<svg width="184" height="31" viewBox="0 0 184 31" fill="none" xmlns="http://www.w3.org/2000/svg">
<path d="M47.1704 9.3877V18.7562C47.1704 20.2019 46.7656 21.32 45.9367 22.1103C45.127 22.9007 44.009 23.2862 42.6404 23.2862C41.1946 23.2862 40.0187 22.8814 39.1513 22.0525C38.2838 21.2236 37.8405 20.067 37.8405 18.5441H41.1753C41.1753 19.1224 41.291 19.5465 41.5223 19.8549C41.7536 20.1441 42.1006 20.2983 42.544 20.2983C42.9488 20.2983 43.2572 20.1634 43.4885 19.9128C43.7199 19.6429 43.8162 19.2766 43.8162 18.7755V9.3877H47.1704Z" fill="#416326"/>
<path d="M49.8306 14.7079C50.2547 13.8597 50.833 13.2043 51.5655 12.7417C52.298 12.279 53.1076 12.0477 54.0136 12.0477C54.7847 12.0477 55.4594 12.2019 56.0377 12.5104C56.616 12.8188 57.0594 13.2429 57.3871 13.7441V12.2019H60.7412V23.1511H57.3871V21.609C57.0594 22.1102 56.5967 22.5343 56.0184 22.8427C55.4401 23.1511 54.7654 23.3053 53.9944 23.3053C53.1076 23.3053 52.298 23.074 51.5655 22.6114C50.833 22.1487 50.2547 21.4933 49.8306 20.6259C49.4065 19.7777 49.1945 18.7753 49.1945 17.6573C49.1945 16.5392 49.4065 15.5561 49.8306 14.7079ZM56.6931 15.7103C56.2305 15.2284 55.6714 14.9778 54.9967 14.9778C54.3221 14.9778 53.763 15.2091 53.3004 15.691C52.8378 16.1729 52.6064 16.8284 52.6064 17.6573C52.6064 18.4861 52.8378 19.1608 53.3004 19.6428C53.763 20.1247 54.3221 20.3753 54.9967 20.3753C55.6714 20.3753 56.2305 20.1247 56.6931 19.6428C57.1557 19.1608 57.3871 18.5054 57.3871 17.6573C57.3871 16.8091 57.1557 16.1922 56.6931 15.7103Z" fill="#416326"/>
<path d="M69.8591 23.1512L66.5242 18.5634V23.1512H63.17V8.65515H66.5242V16.6743L69.8398 12.2213H73.9843L69.435 17.7152L74.0228 23.1705H69.8591V23.1512Z" fill="#416326"/>
<path d="M83.8539 20.7224H78.7263L77.8974 23.1513H74.389L79.3624 9.3877H83.237L88.2104 23.1513H84.6635L83.8539 20.7224ZM83.0057 18.1393L81.3094 13.1081L79.6323 18.1393H83.0057Z" fill="#9FBC2E"/>
<path d="M106.947 13.3394C107.757 14.1683 108.162 15.3056 108.162 16.7707V23.1705H104.827V17.2333C104.827 16.5201 104.634 15.9803 104.268 15.5948C103.902 15.2093 103.381 15.0165 102.726 15.0165C102.07 15.0165 101.55 15.2093 101.184 15.5948C100.818 15.9803 100.625 16.5201 100.625 17.2333V23.1705H97.2899V17.2333C97.2899 16.5201 97.0971 15.9803 96.7308 15.5948C96.3646 15.2093 95.8441 15.0165 95.1887 15.0165C94.5333 15.0165 94.0128 15.2093 93.6466 15.5948C93.2803 15.9803 93.0875 16.5201 93.0875 17.2333V23.1705H89.7334V12.2214H93.1068V13.59C93.4538 13.1274 93.8972 12.7611 94.4369 12.5105C94.9767 12.2407 95.6128 12.1057 96.3068 12.1057C97.1357 12.1057 97.8682 12.2792 98.5043 12.6262C99.1597 12.9732 99.6609 13.4744 100.027 14.1298C100.413 13.5322 100.914 13.031 101.569 12.6647C102.225 12.2985 102.938 12.1057 103.709 12.1057C105.058 12.1057 106.138 12.5105 106.947 13.3394Z" fill="#9FBC2E"/>
<path d="M115.217 12.5298C115.815 12.2213 116.47 12.0671 117.241 12.0671C118.147 12.0671 118.957 12.2984 119.689 12.7611C120.422 13.2237 121 13.8791 121.424 14.7273C121.848 15.5755 122.06 16.5586 122.06 17.6959C122.06 18.814 121.848 19.8164 121.424 20.6645C121 21.5127 120.422 22.1874 119.689 22.65C118.957 23.1127 118.147 23.344 117.241 23.344C116.47 23.344 115.795 23.1898 115.217 22.8814C114.639 22.5729 114.195 22.1681 113.868 21.6477V23.1705H110.514V8.65515H113.868V13.7635C114.176 13.2623 114.619 12.8382 115.217 12.5298ZM117.954 15.6911C117.492 15.2092 116.913 14.9779 116.239 14.9779C115.564 14.9779 115.005 15.2285 114.542 15.7104C114.08 16.1923 113.848 16.8478 113.848 17.6959C113.848 18.5441 114.08 19.1995 114.542 19.6814C115.005 20.1633 115.564 20.4139 116.239 20.4139C116.913 20.4139 117.472 20.1633 117.935 19.6814C118.398 19.1995 118.648 18.5248 118.648 17.6959C118.648 16.8285 118.417 16.1731 117.954 15.6911Z" fill="#9FBC2E"/>
<path d="M124.065 10.5635C123.699 10.2165 123.506 9.79243 123.506 9.27196C123.506 8.75149 123.699 8.30813 124.065 7.96114C124.432 7.61416 124.913 7.44067 125.511 7.44067C126.089 7.44067 126.552 7.61416 126.937 7.96114C127.304 8.30813 127.497 8.75149 127.497 9.27196C127.497 9.77316 127.304 10.2165 126.937 10.5635C126.571 10.9105 126.089 11.084 125.511 11.084C124.913 11.084 124.432 10.9105 124.065 10.5635ZM127.169 12.2213V23.1705H123.815V12.2213H127.169Z" fill="#9FBC2E"/>
<path d="M132.952 8.65515V23.1705H129.598V8.65515H132.952Z" fill="#9FBC2E"/>
<path d="M138.33 22.3994C137.25 21.8018 136.402 20.9536 135.766 19.8741C135.13 18.7946 134.822 17.5802 134.822 16.2308C134.822 14.8815 135.13 13.667 135.766 12.6068C136.402 11.5273 137.25 10.6984 138.33 10.1008C139.409 9.50325 140.585 9.19482 141.896 9.19482C143.188 9.19482 144.383 9.50325 145.462 10.1008C146.542 10.6984 147.39 11.5466 148.007 12.6068C148.624 13.6863 148.932 14.8815 148.932 16.2308C148.932 17.5802 148.624 18.7946 147.988 19.8741C147.351 20.9536 146.503 21.7825 145.443 22.3994C144.363 22.9969 143.188 23.3054 141.896 23.3054C140.605 23.2861 139.409 22.9969 138.33 22.3994ZM144.537 19.1416C145.192 18.4091 145.52 17.4453 145.52 16.2308C145.52 15.0164 145.192 14.0526 144.537 13.32C143.882 12.5875 142.995 12.2405 141.896 12.2405C140.778 12.2405 139.891 12.6068 139.236 13.32C138.58 14.0333 138.253 15.0164 138.253 16.2501C138.253 17.4645 138.58 18.4284 139.236 19.1609C139.891 19.8934 140.778 20.2404 141.896 20.2404C142.995 20.2404 143.862 19.8741 144.537 19.1416Z" fill="#9FBC2E"/>
<path d="M155.505 12.5298C156.103 12.2213 156.758 12.0671 157.529 12.0671C158.435 12.0671 159.245 12.2984 159.978 12.7611C160.71 13.2237 161.288 13.8791 161.713 14.7273C162.137 15.5755 162.349 16.5586 162.349 17.6959C162.349 18.814 162.137 19.8164 161.713 20.6645C161.288 21.5127 160.71 22.1874 159.978 22.65C159.245 23.1127 158.435 23.344 157.529 23.344C156.758 23.344 156.084 23.1898 155.505 22.8814C154.927 22.5729 154.484 22.1681 154.156 21.6477V23.1705H150.802V8.65515H154.156V13.7635C154.464 13.2623 154.908 12.8382 155.505 12.5298ZM158.243 15.6911C157.78 15.2092 157.202 14.9779 156.527 14.9779C155.852 14.9779 155.293 15.2285 154.831 15.7104C154.368 16.1923 154.137 16.8478 154.137 17.6959C154.137 18.5441 154.368 19.1995 154.831 19.6814C155.293 20.1633 155.852 20.4139 156.527 20.4139C157.202 20.4139 157.761 20.1633 158.223 19.6814C158.686 19.1995 158.937 18.5248 158.937 17.6959C158.937 16.8285 158.705 16.1731 158.243 15.6911Z" fill="#9FBC2E"/>
<path d="M164.084 14.7079C164.508 13.8597 165.086 13.2043 165.819 12.7417C166.551 12.279 167.361 12.0477 168.267 12.0477C169.038 12.0477 169.712 12.2019 170.291 12.5104C170.869 12.8188 171.312 13.2429 171.64 13.7441V12.2019H174.994V23.1511H171.64V21.609C171.312 22.1102 170.85 22.5343 170.271 22.8427C169.693 23.1511 169.018 23.3053 168.247 23.3053C167.361 23.3053 166.551 23.074 165.819 22.6114C165.086 22.1487 164.508 21.4933 164.084 20.6259C163.66 19.7777 163.448 18.7753 163.448 17.6573C163.448 16.5392 163.66 15.5561 164.084 14.7079ZM170.946 15.7103C170.484 15.2284 169.924 14.9778 169.25 14.9778C168.575 14.9778 168.016 15.2091 167.553 15.691C167.091 16.1729 166.859 16.8284 166.859 17.6573C166.859 18.4861 167.091 19.1608 167.553 19.6428C168.016 20.1247 168.575 20.3753 169.25 20.3753C169.924 20.3753 170.484 20.1247 170.946 19.6428C171.409 19.1608 171.64 18.5054 171.64 17.6573C171.64 16.8091 171.409 16.1922 170.946 15.7103Z" fill="#9FBC2E"/>
<path d="M183.514 20.3174V23.1511H181.818C180.604 23.1511 179.659 22.862 178.984 22.2644C178.31 21.6668 177.963 20.703 177.963 19.3536V14.9971H176.633V12.2212H177.963V9.56104H181.317V12.2212H183.514V14.9971H181.317V19.3922C181.317 19.7199 181.394 19.9512 181.548 20.1054C181.702 20.2403 181.972 20.3174 182.339 20.3174H183.514Z" fill="#9FBC2E"/>
<path d="M4.51075 4.51075C-1.50358 10.5251 -1.50358 20.2598 4.51075 26.2742L26.2549 4.51075C20.2598 -1.50358 10.5058 -1.50358 4.51075 4.51075Z" fill="#9FBC2E"/>
<path d="M26.255 4.51074L4.51086 26.2549C10.5252 32.2692 20.2599 32.2692 26.2743 26.2549C32.2886 20.2405 32.2693 10.5058 26.255 4.51074Z" fill="#416326"/>
<path d="M13.918 12.7611L16.7903 9.88888C18.0818 8.59734 18.0818 6.51545 16.7903 5.24319C15.4987 3.95165 13.4168 3.95165 12.1446 5.24319L9.27234 8.11542L13.918 12.7611ZM12.9927 5.72511C13.1662 5.55162 13.4361 5.55162 13.6096 5.72511C13.7831 5.8986 13.7831 6.16847 13.6096 6.34196L11.6048 8.34674C11.4313 8.52023 11.1615 8.52023 10.988 8.34674C10.8145 8.17325 10.8145 7.90338 10.988 7.72989L12.9927 5.72511Z" fill="white"/>
<path d="M8.48175 8.9057L5.60952 11.7779C4.31798 13.0695 4.31798 15.1514 5.60952 16.4236C6.90106 17.7152 8.98295 17.7152 10.2552 16.4236L13.1274 13.5514L8.48175 8.9057Z" fill="white"/>
<path d="M22.9971 16.8092C21.4935 15.6526 19.3345 15.749 17.9466 17.1369C16.5587 18.5249 16.4623 20.6839 17.6189 22.1874L22.9971 16.8092Z" fill="white"/>
<path d="M18.3127 22.8816C19.8163 24.0382 21.9753 23.9418 23.3632 22.5539C24.7512 21.1659 24.8475 19.0069 23.6909 17.5034L18.3127 22.8816Z" fill="white"/>
</svg>
