<svg width="170" height="70" viewBox="0 0 170 70" fill="none" xmlns="http://www.w3.org/2000/svg">
<path d="M0.016148 0.737609C0.0060561 0.745682 0 2.01321 0 3.55525C0 6.10243 0.00201886 6.35876 0.0383495 6.37289C0.0666067 6.38298 0.83157 5.63215 2.86811 3.59561C4.44849 2.01523 5.65951 0.786026 5.65951 0.763824C5.65951 0.723456 5.51217 0.721446 2.84792 0.721446C1.29781 0.719428 0.0222031 0.727517 0.016148 0.737609Z" fill="black"/>
<path d="M11.2908 3.54913V6.37891L14.1145 6.37485L16.9362 6.3668V3.54913V0.731487L14.1145 0.723406L11.2908 0.719385V3.54913Z" fill="black"/>
<path d="M0.016148 12.0041C0.0060561 12.0122 0 13.2858 0 14.8339V17.6454H2.82976H5.65951V14.8157V11.9859H2.84389C1.29781 11.9879 0.0222031 11.996 0.016148 12.0041Z" fill="black"/>
<path d="M11.2908 14.8178V17.6475H14.1205H16.9503L16.9462 14.8239L16.9382 12.0022L14.1165 11.9941L11.2928 11.9901V14.8178H11.2908Z" fill="black"/>
<path d="M22.5752 12.0041C22.5651 12.0122 22.5591 13.2858 22.5591 14.8339V17.6454H25.3888H28.2186V14.8157V11.9859H25.407C23.8569 11.9879 22.5833 11.996 22.5752 12.0041Z" fill="black"/>
<path d="M58.3449 34.1194V51.4996H60.9223H63.4998V48.2318V44.9621L65.4112 42.8952C66.4648 41.7589 67.3327 40.8305 67.3448 40.8345C67.3569 40.8385 68.8202 43.2363 70.5964 46.165L73.8258 51.4895L76.6979 51.4976C78.2763 51.4996 79.566 51.4935 79.56 51.4834C79.5579 51.4713 77.5719 48.2278 75.1498 44.2718L70.7498 37.0783L70.8668 36.9531C70.9597 36.8583 78.8757 28.256 79.0695 28.042L79.1179 27.9876H76.0621H73.0063L68.2571 32.9487L63.5079 37.9119L63.4998 27.3255L63.4957 16.7432H60.9183H58.3408V34.1194H58.3449Z" fill="black"/>
<path d="M130.817 22.5098C130.808 24.7946 130.804 25.0853 130.766 25.3093C130.615 26.2257 130.304 26.819 129.759 27.2288C129.127 27.7011 128.249 27.9291 126.848 27.9776L126.394 27.9937V30.0949V32.196L128.606 32.2041L130.819 32.2081L130.829 38.4469C130.837 45.2992 130.827 44.8229 130.98 45.7453C131.329 47.8485 132.304 49.5197 133.806 50.5914C134.886 51.3604 136.179 51.8206 137.804 52.0124C138.256 52.0669 139.558 52.087 140.137 52.0507C140.727 52.0123 141.544 51.9235 141.835 51.867L141.899 51.8529L141.895 49.7982L141.887 47.7395L141.827 47.7435C141.792 47.7455 141.643 47.7657 141.49 47.7839C140.733 47.8808 139.752 47.8848 139.1 47.7859C137.455 47.5397 136.484 46.704 136.133 45.2367C135.982 44.611 135.992 45.049 135.986 38.3258L135.978 32.2101H138.866H141.754V30.0969V27.9837H138.866H135.978V23.9731V19.9626H133.402H130.825L130.817 22.5098Z" fill="black"/>
<path d="M11.2906 26.1086V28.9383L14.1143 28.9343L16.936 28.9262L16.944 26.1025L16.9481 23.2808H14.1183H11.2886V26.1086H11.2906Z" fill="black"/>
<path d="M22.5513 30.9365L22.5432 38.5942L22.4908 38.9878C22.3313 40.227 22.073 41.1131 21.6168 42.0072C20.7025 43.8016 19.1261 44.9944 16.9584 45.5293C16.1672 45.7251 15.2327 45.8401 14.4476 45.8401H14.1064V48.6638V51.4875L14.4718 51.4795C15.6767 51.4552 16.7142 51.3442 17.794 51.1263C21.8429 50.3088 24.935 48.0543 26.6365 44.6715C27.4297 43.0992 27.906 41.4017 28.1079 39.4641C28.1987 38.574 28.1987 38.5619 28.2088 30.8497L28.2189 23.2768H25.3891H22.5574L22.5513 30.9365Z" fill="black"/>
<path d="M121.12 27.4265C119.996 27.5234 119.106 27.7575 118.244 28.1874C117.241 28.686 116.414 29.4166 115.79 30.3531L115.63 30.5913L115.622 29.2854L115.618 27.9815L110.825 27.9856L106.033 27.9937L106.025 30.1836L106.021 32.3756H108.241H110.461V39.7406V47.1056H108.241H106.021V49.3016V51.4976H113.017H120.01V49.3016V47.1056H117.814H115.616L115.626 42.3241C115.634 37.5527 115.634 37.5446 115.687 37.1813C115.848 36.049 116.155 35.1952 116.682 34.3899C117.425 33.2555 118.599 32.4664 119.942 32.1979C120.499 32.0849 120.565 32.0829 122.122 32.0708L123.619 32.0587V29.7335V27.4084L122.42 27.4124C121.754 27.4184 121.173 27.4225 121.12 27.4265Z" fill="black"/>
<path d="M91.4341 27.4729C91.3897 27.4769 91.2161 27.4951 91.0526 27.5072C89.1634 27.6687 87.3126 28.3246 85.8977 29.3318C85.0843 29.9091 84.275 30.7326 83.7441 31.5238C83.4353 31.9799 83.0216 32.7368 83.068 32.753C83.0801 32.757 84.0186 33.2717 85.1529 33.8933L87.2177 35.0256L87.3631 34.733C88.0594 33.3302 89.3915 32.317 90.9719 31.988C91.4906 31.881 91.6541 31.8669 92.304 31.8669C92.9519 31.8669 93.1275 31.883 93.6463 31.986C94.274 32.1131 94.9865 32.4139 95.4668 32.755C95.9371 33.092 96.3509 33.5765 96.589 34.0831C96.8191 34.5655 96.9059 34.949 96.9079 35.4717L96.91 35.829L92.958 36.7029C88.1684 37.7646 88.455 37.698 87.8132 37.8816C85.7968 38.4589 84.2709 39.2763 83.1931 40.3521C82.8359 40.7094 82.6542 40.9274 82.3858 41.329C81.861 42.1162 81.538 43.0345 81.427 44.0619C81.3887 44.4171 81.3968 45.2406 81.4391 45.6241C81.6248 47.2186 82.2889 48.5851 83.4111 49.675C83.837 50.0887 84.2205 50.3895 84.6948 50.6781C85.8856 51.4047 87.3146 51.8447 88.9475 51.9941C89.448 52.0385 90.5016 52.0446 90.9295 52.0062C93.2547 51.7882 95.1883 50.9304 96.7424 49.4187L97.0169 49.1522V50.3269V51.5036H99.548H102.079L102.071 43.307C102.063 34.2122 102.079 35.0277 101.909 34.1901C101.443 31.877 100.044 29.9938 97.9131 28.7969C96.6032 28.0643 95.0369 27.6222 93.2729 27.487C92.9842 27.4608 91.642 27.4527 91.4341 27.4729ZM96.9241 40.8971C96.9241 42.3241 96.8979 42.6248 96.7202 43.3252C96.369 44.6957 95.5173 45.9269 94.3567 46.7362C93.0771 47.6284 91.4422 48.0139 89.8093 47.808C88.6225 47.6566 87.7304 47.1843 87.2379 46.4416C86.6909 45.6201 86.6243 44.4333 87.0724 43.5109C87.5447 42.5461 88.5317 41.8396 90.0939 41.3431C90.3503 41.2624 96.7667 39.7446 96.9059 39.7325C96.918 39.7285 96.9241 40.2552 96.9241 40.8971Z" fill="black"/>
<path d="M154.829 27.485C154.181 27.5375 153.418 27.6647 152.801 27.8221C150.332 28.4499 148.377 29.8284 147.125 31.8225C146.927 32.1374 146.614 32.7409 146.643 32.751C146.655 32.755 147.593 33.2697 148.728 33.8894L150.792 35.0237L150.94 34.725C151.446 33.7158 152.254 32.9205 153.277 32.424C153.822 32.1596 154.319 32.0102 155.043 31.8932C155.302 31.8528 156.428 31.8528 156.714 31.8932C157.376 31.988 157.907 32.1414 158.396 32.3756C159.219 32.7752 159.782 33.306 160.146 34.0347C160.376 34.4928 160.473 34.8844 160.493 35.4435L160.507 35.825L160.247 35.8795C160.103 35.9097 158.178 36.3376 155.964 36.8281C151.822 37.7465 151.311 37.8716 150.484 38.1642C148.881 38.7334 147.686 39.4358 146.772 40.3481C146.263 40.8548 145.886 41.3714 145.601 41.9588C145.393 42.3867 145.286 42.6773 145.171 43.1254C145.016 43.739 144.992 43.961 144.992 44.7744C144.992 45.2346 145.004 45.5677 145.022 45.7049C145.119 46.3871 145.323 47.1177 145.563 47.6506C145.904 48.4115 146.376 49.0776 147.012 49.6932C148.356 50.9971 150.25 51.7822 152.534 51.9841C153.047 52.0285 154.038 52.0365 154.444 51.9962C156.276 51.8145 157.893 51.1626 159.26 50.0545C159.574 49.7982 160.174 49.2027 160.412 48.908L160.58 48.7022L160.588 50.0969L160.592 51.4916H164.901H169.21V49.2956V47.0996H167.432H165.654V41.2503C165.654 34.8783 165.658 35.1085 165.521 34.3516C164.921 31.0858 162.535 28.7001 158.979 27.81C158.327 27.6485 157.604 27.5355 156.848 27.475C156.472 27.4528 155.207 27.4568 154.829 27.485ZM160.493 41.0344C160.483 42.526 160.479 42.5764 160.321 43.2263C160.115 44.0781 159.694 44.9379 159.161 45.5939C157.895 47.148 155.923 47.9816 153.828 47.8484C152.454 47.7616 151.477 47.3398 150.901 46.5829C150.754 46.3871 150.54 45.9572 150.474 45.721C150.268 44.9803 150.334 44.1628 150.651 43.5109C151.19 42.4089 152.427 41.6258 154.387 41.1474C155.134 40.9658 160.463 39.6861 160.485 39.6841C160.495 39.6821 160.499 40.2896 160.493 41.0344Z" fill="black"/>
<path d="M33.9227 30.1796V32.3756H40.547H47.1713L47.1672 34.0993L47.1592 35.8229L43.1487 36.711C38.5811 37.7242 38.6457 37.7081 38.0523 37.8817C37.1743 38.1319 36.488 38.3903 35.7836 38.7314C34.8552 39.1775 34.1386 39.6679 33.5069 40.2775C32.3584 41.3896 31.761 42.6935 31.65 44.3404C31.5874 45.2548 31.7065 46.1913 31.9992 47.0693C32.3282 48.0623 32.8247 48.8677 33.5654 49.6084C34.8087 50.8598 36.6112 51.6752 38.6981 51.9356C39.5156 52.0385 40.5773 52.0607 41.2413 51.9881C42.8298 51.8165 44.2608 51.3059 45.5263 50.4622C46.0511 50.111 46.4749 49.7598 46.9533 49.2734L47.2682 48.9565V50.2261V51.4956H49.7992H52.3302V39.7386V27.9816H43.1265H33.9227V30.1796ZM47.1652 40.9879C47.1551 42.1626 47.1511 42.3282 47.1047 42.6067C46.9856 43.3535 46.8221 43.8762 46.5254 44.4777C46.0531 45.4284 45.3729 46.1994 44.4788 46.7968C43.6533 47.3478 42.7793 47.6708 41.7277 47.8141C41.3644 47.8646 40.5167 47.8686 40.1635 47.8262C38.7405 47.6526 37.7556 47.0653 37.2994 46.1187C37.1016 45.711 37.0249 45.3395 37.0249 44.8047C37.0249 43.6865 37.5295 42.7984 38.5387 42.1364C39.2128 41.6924 39.9152 41.4199 41.1787 41.1171C42.6965 40.7498 47.1349 39.6841 47.1551 39.6841C47.1672 39.6821 47.1713 40.2694 47.1652 40.9879Z" fill="black"/>
<path d="M14.1082 66.3246V69.9052H14.6814H15.2546V69.2128V68.5226L15.6542 68.0805C15.8742 67.8363 16.0559 67.6405 16.0579 67.6446C16.0599 67.6466 16.3707 68.1532 16.7421 68.7708L17.4223 69.893L18.0581 69.9011C18.4093 69.9031 18.6939 69.8971 18.6939 69.887C18.6939 69.8749 18.2741 69.1805 17.7634 68.3429C17.2508 67.5053 16.835 66.813 16.837 66.8009C16.841 66.7888 17.2568 66.3286 17.7634 65.7735C18.27 65.2205 18.6878 64.7563 18.6899 64.7462C18.6939 64.7341 18.3932 64.724 18.0218 64.728H17.3456L16.3062 65.828L15.2667 66.926L15.2586 64.835L15.2546 62.744H14.6814H14.1082V66.3246Z" fill="black"/>
<path d="M37.3883 66.3165L37.3964 69.893L37.9757 69.9011L38.5529 69.9052V69.2088L38.555 68.5084L38.9485 68.0725L39.3441 67.6365L40.0263 68.7648L40.7106 69.893L41.3524 69.9011C41.861 69.9051 41.9902 69.9011 41.9801 69.8769C41.9721 69.8607 41.5502 69.1604 41.0375 68.3248L40.1071 66.8049L41.0355 65.7877C41.5462 65.2266 41.9721 64.7583 41.9781 64.7462C41.9862 64.7341 41.7076 64.724 41.3141 64.724H40.6379L39.5984 65.82L38.559 66.918L38.5509 64.8289L38.5469 62.7419H37.9615H37.3762L37.3883 66.3165Z" fill="black"/>
<path d="M48.9153 66.3246V69.9052H49.4885H50.0617V66.3246V62.744H49.4885H48.9153V66.3246Z" fill="black"/>
<path d="M56.7745 66.3164L56.7826 69.893L57.3276 69.901L57.8685 69.9051V69.6044V69.3016L58.0078 69.4328C58.258 69.671 58.4922 69.8001 58.8837 69.9212C59.0876 69.9838 59.1239 69.9858 59.5639 69.9858C60.0786 69.9858 60.2017 69.9636 60.6054 69.8001C61.6913 69.3561 62.3453 68.1249 62.1555 66.8715C62.0506 66.163 61.6893 65.5434 61.1423 65.1296C60.6498 64.7562 59.9293 64.5584 59.3157 64.6291C58.7788 64.6896 58.3872 64.8612 58.0441 65.1902L57.9412 65.285V64.0155V62.7459H57.3558H56.7705L56.7745 66.3164ZM59.8627 65.7412C60.2542 65.8421 60.6216 66.1469 60.7992 66.5142C60.9384 66.8069 60.9808 67.0249 60.9667 67.3942C60.9485 67.8807 60.8133 68.2036 60.5065 68.5084C60.2199 68.793 59.8909 68.9241 59.463 68.9241C59.1643 68.9241 59.023 68.8939 58.7788 68.7768C58.4034 68.5972 58.1147 68.2298 57.9957 67.7797C57.9391 67.5678 57.9391 67.0612 57.9957 66.8493C58.1935 66.1025 58.805 65.6463 59.5478 65.6948C59.6487 65.7008 59.792 65.723 59.8627 65.7412Z" fill="black"/>
<path d="M83.4595 63.3999V64.0559L84.0388 64.0519L84.6161 64.0438L84.6241 63.3919L84.6282 62.742H84.0428H83.4575V63.3999H83.4595Z" fill="black"/>
<path d="M26.0632 63.6321C26.0551 64.171 26.0531 64.1932 25.9945 64.3203C25.8694 64.5848 25.6817 64.7018 25.3466 64.722L25.1367 64.7341V65.2549V65.7776H25.603H26.0692V67.0976C26.0692 68.454 26.0773 68.563 26.1701 68.8577C26.2953 69.2492 26.5718 69.5802 26.9068 69.7478C27.2237 69.9032 27.4054 69.9395 27.8837 69.9415C28.1138 69.9435 28.3419 69.9335 28.3924 69.9254L28.4812 69.9072V69.449V68.9909H28.1542C27.7929 68.9909 27.6839 68.9686 27.5305 68.8637C27.4054 68.7809 27.3206 68.6659 27.2701 68.5125C27.2338 68.4076 27.2298 68.2279 27.2197 67.0875L27.2116 65.7796L27.8272 65.7756L28.4428 65.7675L28.4509 65.2468L28.4549 64.7281H27.8333H27.2116V63.9046V63.0811H26.6404H26.0692L26.0632 63.6321Z" fill="black"/>
<path d="M21.5925 64.6191C21.2575 64.6635 21.1343 64.6897 20.9365 64.7523C19.451 65.2226 18.7244 66.8413 19.3117 68.3672C19.6206 69.1665 20.3573 69.77 21.2413 69.9496C21.534 70.0102 22.0285 70.0162 22.3252 69.9637C23.1345 69.8224 23.8309 69.3259 24.2164 68.6155C24.3254 68.4116 24.4364 68.0947 24.4869 67.8343C24.5373 67.578 24.5413 67.0754 24.499 66.8252C24.2749 65.5455 23.2556 64.6736 21.9235 64.6191C21.7782 64.6151 21.6329 64.6151 21.5925 64.6191ZM22.2666 65.7534C22.745 65.8987 23.1265 66.3064 23.2637 66.8252C23.3162 67.0209 23.3243 67.5619 23.2778 67.7557C23.2597 67.8263 23.1971 67.9898 23.1366 68.1129C23.0478 68.2945 22.9933 68.3733 22.858 68.5065C22.5654 68.7991 22.2525 68.9243 21.8085 68.9243C21.3826 68.9243 21.0677 68.7971 20.7791 68.5065C20.5914 68.3208 20.4703 68.1149 20.3795 67.8263C20.3351 67.6729 20.325 67.5962 20.325 67.3136C20.327 67.0674 20.3391 66.9382 20.3694 66.8252C20.5046 66.3286 20.8619 65.927 21.2998 65.7716C21.5965 65.6707 21.9659 65.6626 22.2666 65.7534Z" fill="black"/>
<path d="M31.4159 64.619C31.3816 64.6231 31.2746 64.6412 31.1777 64.6553C30.4773 64.7583 29.8496 65.1821 29.5549 65.7553L29.4581 65.9411L29.9647 66.1913C30.2412 66.3326 30.4713 66.4416 30.4733 66.4376C30.6186 66.1187 30.7983 65.9229 31.0566 65.7897C31.2806 65.6766 31.4502 65.6464 31.7328 65.6585C31.9245 65.6686 31.9891 65.6827 32.1163 65.7412C32.4008 65.8744 32.5563 66.0964 32.5825 66.4113C32.5906 66.5021 32.5865 66.5829 32.5744 66.591C32.5623 66.599 32.1485 66.6919 31.6581 66.7989C30.7054 67.0068 30.3764 67.0996 30.0858 67.253C29.5166 67.5497 29.236 68.0099 29.2804 68.569C29.3289 69.1583 29.674 69.6145 30.2452 69.8466C30.5116 69.9536 30.6549 69.9798 31.0384 69.9919C31.3553 70.002 31.4381 69.9959 31.6157 69.9536C31.9729 69.8708 32.2979 69.6891 32.53 69.449L32.6249 69.3521L32.637 69.6226L32.6491 69.893L33.1941 69.9011L33.739 69.9051L33.731 67.9897L33.7229 66.0722L33.6583 65.8805C33.3959 65.1135 32.7036 64.6533 31.7489 64.617C31.5975 64.613 31.4502 64.613 31.4159 64.619ZM32.5865 67.7011C32.5845 68.137 32.4674 68.4539 32.2071 68.7143C32.0254 68.896 31.8236 69.005 31.5713 69.0574C31.2786 69.12 31.0102 69.0958 30.7962 68.9868C30.663 68.9202 30.5984 68.8515 30.5359 68.7123C30.441 68.5044 30.4814 68.2541 30.6328 68.0805C30.7861 67.9069 30.9375 67.8504 31.7509 67.6648C32.1526 67.5739 32.5038 67.4992 32.5341 67.4972C32.5825 67.4932 32.5865 67.5012 32.5865 67.7011Z" fill="black"/>
<path d="M44.7635 64.6291C44.3497 64.6816 43.8774 64.8592 43.5404 65.0833C43.3305 65.2245 43.0176 65.5354 42.8763 65.7372C42.2526 66.6414 42.2365 67.9009 42.836 68.8193C43.3305 69.5782 44.1439 70 45.1066 70C46.4791 70 47.5448 69.124 47.781 67.796C47.8415 67.4609 47.8213 66.924 47.7386 66.6071C47.5408 65.8502 47.0745 65.2629 46.3943 64.9137C45.9342 64.6796 45.2842 64.5645 44.7635 64.6291ZM45.5184 65.7412C45.8958 65.8381 46.251 66.1328 46.4246 66.49C46.5659 66.7726 46.6063 66.9644 46.6063 67.3136C46.6063 67.917 46.3843 68.3833 45.9523 68.676C45.692 68.8536 45.5264 68.902 45.1793 68.9162C44.6929 68.9384 44.4042 68.8273 44.0793 68.5064C43.7563 68.1895 43.6171 67.8222 43.6171 67.3075C43.6171 66.4557 44.1156 65.8199 44.8705 65.7029C45.042 65.6766 45.3387 65.6948 45.5184 65.7412Z" fill="black"/>
<path d="M53.176 64.6312C52.6573 64.6978 52.1789 64.9077 51.8197 65.2266C51.642 65.384 51.42 65.6928 51.3514 65.8785L51.3251 65.9431L51.8257 66.1934L52.3242 66.4437L52.403 66.2923C52.5624 65.9895 52.8874 65.7473 53.2285 65.6767C53.4222 65.6383 53.7654 65.6605 53.9309 65.7251C54.2316 65.8422 54.4233 66.1046 54.4314 66.4194L54.4395 66.5971L53.507 66.8049C52.4635 67.035 52.2778 67.0895 51.9347 67.2631C51.6481 67.4105 51.3776 67.6587 51.2707 67.8807C50.9962 68.4519 51.1576 69.1745 51.6541 69.5822C52.0215 69.887 52.4736 70.0162 53.0852 69.996C53.3698 69.9839 53.4465 69.9718 53.6362 69.9092C53.9107 69.8204 54.1448 69.6832 54.3446 69.4934L54.5 69.3501V69.6266V69.9031H55.049H55.598V68.0584C55.598 66.2862 55.596 66.2075 55.5496 66.0117C55.3639 65.2387 54.7362 64.7422 53.8077 64.6271C53.5777 64.6029 53.4142 64.6029 53.176 64.6312ZM54.4456 67.7616C54.4274 68.0886 54.4011 68.2017 54.3022 68.4015C54.0883 68.8415 53.5756 69.12 53.0569 69.0837C52.8187 69.0696 52.6734 69.0191 52.5483 68.9121C52.4131 68.7971 52.3525 68.6618 52.3525 68.4701C52.3545 68.2077 52.4918 68.0119 52.7582 67.8908C52.8793 67.8363 54.274 67.5013 54.4032 67.4972L54.4597 67.4952L54.4456 67.7616Z" fill="black"/>
<path d="M65.3428 64.6292C64.8967 64.6857 64.3578 64.8996 64.0248 65.1519C63.5646 65.5031 63.2134 66.0279 63.0742 66.5789C62.9712 66.9886 62.953 67.3197 63.0136 67.7254C63.1751 68.8193 63.8997 69.6307 64.9755 69.9233C65.1874 69.9798 65.2459 69.9859 65.6839 69.9859C66.0997 69.988 66.1885 69.9819 66.354 69.9355C66.8525 69.8023 67.23 69.5984 67.5691 69.2795C68.0515 68.8234 68.33 68.234 68.3905 67.5477C68.4127 67.2974 68.3926 66.9342 68.3461 66.7162C68.116 65.6666 67.3309 64.8895 66.2813 64.6736C66.023 64.6211 65.583 64.6009 65.3428 64.6292ZM66.0936 65.7413C66.5942 65.8725 66.9999 66.2984 67.1472 66.8494C67.2118 67.0956 67.2017 67.5942 67.1291 67.8404C66.9979 68.2723 66.7254 68.6074 66.3621 68.7789C66.1179 68.896 65.9786 68.9263 65.6799 68.9263C65.2479 68.9263 64.9593 68.8092 64.6606 68.5085C64.5173 68.3672 64.4466 68.2723 64.3821 68.1391C64.2367 67.8465 64.2085 67.6991 64.2105 67.2914C64.2105 66.9685 64.2186 66.914 64.2751 66.7424C64.4668 66.1651 64.8927 65.7938 65.474 65.7009C65.6213 65.6767 65.9241 65.6969 66.0936 65.7413Z" fill="black"/>
<path d="M74.9969 64.6311C74.4136 64.7099 73.9252 64.94 73.5639 65.3073C73.3984 65.4728 73.253 65.6827 73.1824 65.8563L73.1461 65.9431L73.6446 66.1934L74.1452 66.4437L74.2239 66.2923C74.3833 65.9895 74.7083 65.7473 75.0494 65.6767C75.2432 65.6383 75.5863 65.6605 75.7498 65.7251C75.9112 65.7877 76.0848 65.931 76.1696 66.0804C76.2221 66.1692 76.2362 66.2257 76.2443 66.3952L76.2544 66.6011L75.4006 66.7868C74.9283 66.8897 74.452 66.9987 74.3409 67.033C73.4488 67.2893 73.0007 67.7293 72.9644 68.3893C72.9281 69.0332 73.2894 69.5923 73.905 69.8406C74.2178 69.9677 74.347 69.9879 74.8072 69.9879C75.225 69.9859 75.2432 69.9839 75.4591 69.9112C75.7336 69.8184 75.9536 69.6892 76.1635 69.4974L76.323 69.3501V69.6266V69.9031H76.872H77.423L77.4129 67.9998C77.4048 66.258 77.4028 66.0824 77.3624 65.9512C77.1626 65.273 76.6156 64.8068 75.8446 64.6594C75.6105 64.617 75.2068 64.6029 74.9969 64.6311ZM76.2503 67.7616C76.2483 68.0765 76.2261 68.1916 76.1232 68.4015C75.9092 68.8415 75.3966 69.12 74.8778 69.0837C74.6376 69.0675 74.4943 69.0191 74.3652 68.9101C74.2299 68.793 74.1734 68.6699 74.1734 68.4741C74.1734 68.2925 74.2239 68.1633 74.343 68.0462C74.4883 67.9029 74.6679 67.8404 75.4389 67.6648C75.8406 67.574 76.1857 67.4972 76.21 67.4972C76.2463 67.4932 76.2503 67.5235 76.2503 67.7616Z" fill="black"/>
<path d="M80.1536 64.6191C79.3321 64.7079 78.773 65.0934 78.5631 65.715C78.5146 65.8543 78.5066 65.929 78.5066 66.1692C78.5066 66.6031 78.6035 66.8453 78.8981 67.138C79.2009 67.4387 79.3926 67.5275 80.3251 67.7819C80.9569 67.9534 81.1527 68.0321 81.2798 68.1653C81.5261 68.4217 81.405 68.8153 81.0295 68.9747C80.7894 69.0797 80.3494 69.0817 80.0708 68.9848C79.7418 68.8677 79.4391 68.6155 79.2715 68.3107C79.2191 68.2158 79.1666 68.1371 79.1565 68.1371C79.1161 68.1371 78.2805 68.5529 78.2805 68.571C78.2805 68.6316 78.5106 69.0292 78.6277 69.1685C78.9647 69.5782 79.4734 69.8648 80.0405 69.9637C80.3029 70.0081 80.8196 70.0081 81.082 69.9637C81.8268 69.8345 82.3697 69.3885 82.5211 68.783C82.5736 68.573 82.5574 68.1835 82.4848 67.9837C82.3818 67.6971 82.18 67.4569 81.8732 67.2551C81.6371 67.1017 81.4332 67.025 80.6925 66.813C80.3534 66.7182 80.0244 66.6092 79.9598 66.5789C79.8084 66.5022 79.6732 66.3528 79.651 66.2398C79.5864 65.8927 79.8104 65.6565 80.2545 65.602C80.8075 65.5354 81.3545 65.7938 81.5866 66.2297L81.6572 66.363L82.0872 66.1651C82.3233 66.0562 82.5272 65.9613 82.5393 65.9572C82.5514 65.9552 82.509 65.8503 82.4464 65.7272C82.3112 65.4628 82.0407 65.164 81.7884 64.9945C81.5785 64.8552 81.2818 64.7341 81.0053 64.6756C80.7934 64.6292 80.3393 64.6009 80.1536 64.6191Z" fill="black"/>
<path d="M71.511 64.7159C71.1679 64.7865 70.8551 64.9904 70.6734 65.2608L70.5947 65.3799L70.5866 65.057L70.5786 64.7381L70.0376 64.73L69.4927 64.726V67.3156V69.9052H70.0639H70.6371L70.6452 68.3005C70.6553 66.5244 70.6532 66.5728 70.8127 66.268C70.96 65.9935 71.2164 65.8078 71.5454 65.7352C71.6402 65.717 71.8481 65.7009 72.0802 65.7009H72.4556V65.1882V64.6755L72.0681 64.6776C71.8239 64.6796 71.616 64.6937 71.511 64.7159Z" fill="black"/>
<path d="M83.4597 67.3156V69.9052L84.039 69.9011L84.6162 69.893V67.3156V64.7381L84.039 64.73L83.4597 64.726V67.3156Z" fill="black"/>
</svg>
