<svg width="179" height="32" viewBox="0 0 179 32" fill="none" xmlns="http://www.w3.org/2000/svg">
<path d="M47.1342 10.3211V19.6773C47.1342 21.1281 46.7249 22.2442 45.9065 23.0254C45.0881 23.8066 43.9906 24.1973 42.6142 24.1973C41.1633 24.1973 40.0101 23.788 39.1358 22.9696C38.2616 22.1512 37.8152 20.9793 37.8152 19.4541H41.1447C41.1447 20.0307 41.2563 20.4585 41.4981 20.7561C41.7399 21.0537 42.0748 21.2025 42.5212 21.2025C42.9304 21.2025 43.2466 21.0723 43.4698 20.8119C43.693 20.5515 43.8046 20.1795 43.8046 19.6773V10.3211H47.1342Z" fill="#416326"/>
<path d="M49.8126 15.6409C50.2404 14.7853 50.817 14.1343 51.5425 13.6879C52.2679 13.2228 53.0863 12.9996 53.9978 12.9996C54.7604 12.9996 55.4486 13.1484 56.0252 13.4647C56.6019 13.7809 57.0483 14.1901 57.3645 14.6923V13.1484H60.7126V24.0857H57.3645V22.5418C57.0297 23.044 56.5833 23.4533 56.0067 23.7695C55.43 24.0857 54.7418 24.2345 53.9792 24.2345C53.0863 24.2345 52.2865 24.0113 51.5425 23.5463C50.817 23.0812 50.2404 22.4302 49.8126 21.5746C49.3848 20.7189 49.1802 19.7331 49.1802 18.5985C49.1802 17.4638 49.3848 16.478 49.8126 15.6409ZM56.6577 16.6454C56.1927 16.1618 55.6346 15.92 54.965 15.92C54.2954 15.92 53.7374 16.1618 53.2723 16.6268C52.8073 17.1104 52.5841 17.7614 52.5841 18.5985C52.5841 19.4355 52.8073 20.1051 53.2723 20.5887C53.7374 21.0724 54.2954 21.3142 54.965 21.3142C55.6346 21.3142 56.1927 21.0724 56.6577 20.5887C57.1227 20.1051 57.3459 19.4541 57.3459 18.6171C57.3645 17.78 57.1227 17.129 56.6577 16.6454Z" fill="#416326"/>
<path d="M69.8271 24.0857L66.4975 19.5099V24.0857H63.1494V9.57709H66.4975V17.594L69.8085 13.1484H73.9378L69.3993 18.6356L73.975 24.0857H69.8271Z" fill="#416326"/>
<path d="M75.5561 13.5576C76.1513 12.4974 76.9698 11.6604 78.0114 11.0651C79.0531 10.4699 80.2621 10.1723 81.5828 10.1723C83.2196 10.1723 84.6147 10.6001 85.7679 11.4744C86.9212 12.33 87.7024 13.5204 88.093 15.0085H84.4101C84.1311 14.4319 83.7404 14.0041 83.2382 13.6878C82.736 13.3902 82.1594 13.2414 81.527 13.2414C80.5039 13.2414 79.6669 13.5948 79.0159 14.3203C78.3834 15.0457 78.0486 15.9943 78.0486 17.2034C78.0486 18.4124 78.3648 19.3611 79.0159 20.0865C79.6483 20.8119 80.4853 21.1653 81.527 21.1653C82.1594 21.1653 82.736 21.0165 83.2382 20.7189C83.7404 20.4213 84.1311 19.9749 84.4101 19.3983H88.093C87.7024 20.8863 86.9212 22.0582 85.7679 22.9138C84.5961 23.7694 83.201 24.1973 81.5828 24.1973C80.2435 24.1973 79.0531 23.8997 78.0114 23.3044C76.9512 22.7092 76.1327 21.8908 75.5561 20.8305C74.9609 19.7703 74.6819 18.5612 74.6819 17.2034C74.6819 15.8455 74.9795 14.6179 75.5561 13.5576Z" fill="#9FBC2E"/>
<path d="M100.425 19.4169H92.8361C92.8919 20.1051 93.1151 20.6073 93.4872 20.9794C93.8778 21.3328 94.3428 21.5188 94.9008 21.5188C95.7378 21.5188 96.3145 21.1654 96.6493 20.4585H100.221C100.035 21.184 99.6998 21.8164 99.2348 22.393C98.7512 22.9696 98.1559 23.416 97.4491 23.7509C96.7237 24.0857 95.9239 24.2345 95.031 24.2345C93.9522 24.2345 93.0035 24.0113 92.1665 23.5463C91.3295 23.0812 90.6784 22.4302 90.2134 21.5932C89.7484 20.7375 89.5066 19.7517 89.5066 18.6171C89.5066 17.4824 89.7298 16.4966 90.1948 15.6409C90.6598 14.7853 91.3109 14.1343 92.1479 13.6879C92.9849 13.2228 93.9522 12.9996 95.031 12.9996C96.0913 12.9996 97.0213 13.2228 97.8583 13.6693C98.6768 14.1157 99.3278 14.7481 99.7928 15.5665C100.258 16.385 100.481 17.3522 100.481 18.4497C100.481 18.7473 100.462 19.0821 100.425 19.4169ZM97.0585 17.5568C97.0585 16.9802 96.8539 16.5338 96.4633 16.1804C96.0727 15.8455 95.589 15.6781 94.9938 15.6781C94.4358 15.6781 93.9522 15.8455 93.5802 16.1618C93.1895 16.4966 92.9477 16.943 92.8733 17.5568H97.0585Z" fill="#9FBC2E"/>
<path d="M108.926 24.0857L105.596 19.5099V24.0857H102.248V9.57709H105.596V17.594L108.907 13.1484H113.037L108.498 18.6356L113.074 24.0857H108.926Z" fill="#9FBC2E"/>
<path d="M121.37 24.0857L118.505 18.896H117.705V24.0857H114.357V10.3211H119.975C121.053 10.3211 121.983 10.5071 122.746 10.8977C123.509 11.2697 124.085 11.7906 124.457 12.4602C124.829 13.1112 125.034 13.8552 125.034 14.6551C125.034 15.5665 124.774 16.3849 124.253 17.1104C123.732 17.8358 122.969 18.338 121.965 18.6356L125.146 24.0857H121.37ZM117.705 16.5152H119.789C120.402 16.5152 120.867 16.3663 121.165 16.0687C121.481 15.7711 121.63 15.3433 121.63 14.8039C121.63 14.2831 121.481 13.8738 121.165 13.5762C120.849 13.2786 120.402 13.1298 119.789 13.1298H117.705V16.5152Z" fill="#9FBC2E"/>
<path d="M137.366 19.4169H129.777C129.833 20.1051 130.056 20.6073 130.428 20.9794C130.819 21.3328 131.284 21.5188 131.842 21.5188C132.679 21.5188 133.256 21.1654 133.59 20.4585H137.162C136.976 21.184 136.641 21.8164 136.176 22.393C135.692 22.9696 135.097 23.416 134.39 23.7509C133.665 24.0857 132.865 24.2345 131.972 24.2345C130.893 24.2345 129.945 24.0113 129.108 23.5463C128.271 23.0812 127.62 22.4302 127.155 21.5932C126.69 20.7375 126.448 19.7517 126.448 18.6171C126.448 17.4824 126.671 16.4966 127.136 15.6409C127.601 14.7853 128.252 14.1343 129.089 13.6879C129.926 13.2228 130.893 12.9996 131.972 12.9996C133.032 12.9996 133.962 13.2228 134.799 13.6693C135.618 14.1157 136.269 14.7481 136.734 15.5665C137.199 16.385 137.422 17.3522 137.422 18.4497C137.441 18.7473 137.404 19.0821 137.366 19.4169ZM134 17.5568C134 16.9802 133.795 16.5338 133.404 16.1804C133.014 15.8455 132.53 15.6781 131.935 15.6781C131.377 15.6781 130.893 15.8455 130.521 16.1618C130.131 16.4966 129.889 16.943 129.814 17.5568H134Z" fill="#9FBC2E"/>
<path d="M141.087 23.7509C140.343 23.416 139.747 22.9696 139.32 22.4116C138.892 21.835 138.65 21.2026 138.594 20.4957H141.905C141.942 20.8677 142.128 21.184 142.426 21.4072C142.742 21.649 143.133 21.7606 143.579 21.7606C143.988 21.7606 144.323 21.6862 144.546 21.5188C144.77 21.3514 144.881 21.1468 144.881 20.8863C144.881 20.5701 144.714 20.3469 144.398 20.1981C144.063 20.0493 143.542 19.8819 142.817 19.6959C142.035 19.5099 141.384 19.3239 140.864 19.1193C140.343 18.9147 139.896 18.5985 139.506 18.152C139.134 17.7056 138.929 17.129 138.929 16.385C138.929 15.7525 139.096 15.1945 139.45 14.6737C139.803 14.1529 140.306 13.7437 140.975 13.4461C141.645 13.1484 142.445 12.9996 143.375 12.9996C144.751 12.9996 145.83 13.3344 146.611 14.0227C147.392 14.7109 147.857 15.6037 147.969 16.7198H144.881C144.825 16.3478 144.658 16.0316 144.379 15.8269C144.1 15.6037 143.728 15.4921 143.263 15.4921C142.872 15.4921 142.575 15.5665 142.37 15.7153C142.166 15.8641 142.054 16.0688 142.054 16.3292C142.054 16.6454 142.221 16.8872 142.556 17.036C142.891 17.1848 143.412 17.3522 144.119 17.501C144.937 17.7056 145.588 17.9102 146.09 18.1148C146.593 18.3194 147.039 18.6357 147.43 19.1007C147.82 19.5471 148.006 20.1609 148.025 20.9049C148.025 21.5374 147.839 22.114 147.485 22.6162C147.132 23.1184 146.611 23.5091 145.942 23.8067C145.272 24.0857 144.491 24.2345 143.598 24.2345C142.686 24.2345 141.849 24.0671 141.087 23.7509Z" fill="#9FBC2E"/>
<path d="M150.368 11.4929C149.996 11.1395 149.81 10.7117 149.81 10.2095C149.81 9.68865 149.996 9.26083 150.368 8.90742C150.74 8.554 151.224 8.3866 151.801 8.3866C152.377 8.3866 152.842 8.554 153.214 8.90742C153.586 9.26083 153.772 9.68865 153.772 10.2095C153.772 10.7117 153.586 11.1395 153.214 11.4929C152.842 11.8463 152.377 12.0137 151.801 12.0137C151.224 12.0137 150.74 11.8463 150.368 11.4929ZM153.475 13.1484V24.0856H150.127V13.1484H153.475Z" fill="#9FBC2E"/>
<path d="M162.589 24.0857L159.26 19.5099V24.0857H155.911V9.57709H159.26V17.594L162.57 13.1484H166.7L162.161 18.6356L166.737 24.0857H162.589Z" fill="#9FBC2E"/>
<path d="M170.103 23.5461C169.248 23.0811 168.578 22.4301 168.095 21.593C167.611 20.7374 167.369 19.7516 167.369 18.6169C167.369 17.5009 167.611 16.4964 168.113 15.6408C168.615 14.7852 169.285 14.1341 170.159 13.6691C171.015 13.2041 171.982 12.9809 173.061 12.9809C174.14 12.9809 175.107 13.2041 175.963 13.6691C176.818 14.1341 177.507 14.7852 178.009 15.6408C178.511 16.4964 178.753 17.4823 178.753 18.6169C178.753 19.733 178.492 20.7374 177.99 21.593C177.488 22.4487 176.8 23.0997 175.925 23.5647C175.051 24.0297 174.084 24.2529 173.024 24.2529C171.926 24.2343 170.959 24.0111 170.103 23.5461ZM174.623 20.6258C175.07 20.1608 175.293 19.4912 175.293 18.6169C175.293 17.7427 175.07 17.0731 174.642 16.608C174.196 16.143 173.675 15.9012 173.024 15.9012C172.373 15.9012 171.833 16.1244 171.405 16.5894C170.978 17.0545 170.754 17.7241 170.754 18.6169C170.754 19.4912 170.959 20.1608 171.387 20.6258C171.815 21.0908 172.336 21.3326 172.987 21.3326C173.638 21.3326 174.177 21.1094 174.623 20.6258Z" fill="#9FBC2E"/>
<path d="M15.3828 31.6934C23.8785 31.6934 30.7656 24.8062 30.7656 16.3105C30.7656 7.81485 23.8785 0.927734 15.3828 0.927734C6.88712 0.927734 0 7.81485 0 16.3105C0 24.8062 6.88712 31.6934 15.3828 31.6934Z" fill="#416326"/>
<path d="M22.5254 7.14032H8.22144V24.6994H22.5254V7.14032Z" fill="#9FBC2E"/>
<path d="M20.3304 9.29785L19.977 17.538H17.4845L17.1311 9.29785H20.3304Z" fill="white"/>
<path d="M18.7492 22.1696C19.7252 22.1696 20.5163 21.3785 20.5163 20.4026C20.5163 19.4266 19.7252 18.6355 18.7492 18.6355C17.7733 18.6355 16.9822 19.4266 16.9822 20.4026C16.9822 21.3785 17.7733 22.1696 18.7492 22.1696Z" fill="white"/>
<path d="M15.0852 9.48401H9.95142V11.0837H15.0852V9.48401Z" fill="#416326"/>
<path d="M15.0852 12.795H9.95142V14.3946H15.0852V12.795Z" fill="#416326"/>
<path d="M15.0852 16.1245H9.95142V17.7241H15.0852V16.1245Z" fill="#416326"/>
<path d="M12.7787 19.4354H9.95142V21.0351H12.7787V19.4354Z" fill="#416326"/>
</svg>
