<svg width="167" height="32" viewBox="0 0 167 32" fill="none" xmlns="http://www.w3.org/2000/svg">
<path d="M47.1416 9.72534V19.0979C47.1416 20.5438 46.7409 21.6588 45.9221 22.4427C45.1033 23.2267 44.0058 23.6274 42.6121 23.6274C41.1661 23.6274 39.9989 23.2093 39.1279 22.3905C38.2568 21.5717 37.8213 20.4045 37.8213 18.8888H41.1487C41.1487 19.4637 41.2707 19.8993 41.4971 20.1954C41.741 20.4916 42.072 20.6309 42.5076 20.6309C42.9082 20.6309 43.2218 20.509 43.4483 20.2303C43.6748 19.9689 43.7793 19.5857 43.7793 19.0979V9.72534H47.1416Z" fill="#416326"/>
<path d="M49.8245 15.0387C50.2426 14.1851 50.8349 13.5405 51.5666 13.0701C52.2982 12.6172 53.117 12.3907 54.0229 12.3907C54.7895 12.3907 55.4689 12.5475 56.0438 12.8611C56.6187 13.1746 57.0716 13.5927 57.3852 14.098V12.5475H60.7301V23.4879H57.3852V21.9374C57.0542 22.4426 56.6013 22.8608 56.0264 23.1743C55.4515 23.4879 54.772 23.6447 54.0055 23.6447C53.117 23.6447 52.3157 23.4182 51.584 22.9479C50.8523 22.4775 50.2774 21.8329 49.8419 20.9619C49.4238 20.1082 49.1973 19.1152 49.1973 18.0003C49.1799 16.8679 49.3889 15.8923 49.8245 15.0387ZM56.6709 16.0317C56.2006 15.5439 55.6431 15.3 54.9811 15.3C54.3191 15.3 53.7442 15.5439 53.2912 16.0143C52.8209 16.4846 52.5944 17.1466 52.5944 17.9829C52.5944 18.8191 52.8209 19.4811 53.2912 19.9689C53.7616 20.4566 54.3191 20.7005 54.9811 20.7005C55.6431 20.7005 56.218 20.4566 56.6709 19.9689C57.1413 19.4811 57.3678 18.8191 57.3678 17.9829C57.3678 17.1815 57.1413 16.5195 56.6709 16.0317Z" fill="#416326"/>
<path d="M69.8412 23.4878L66.5138 18.9061V23.4878H63.1689V8.97607H66.5138V16.9898L69.8238 12.5474H73.9526L69.4057 18.035L73.9874 23.4878H69.8412Z" fill="#416326"/>
<path d="M83.2379 23.488L78.6213 17.408V23.488H75.2765V9.72534H78.6213V15.753L83.2031 9.72534H87.1402L81.8094 16.4673L87.3319 23.488H83.2379Z" fill="#9FBC2E"/>
<path d="M91.0078 22.9478C90.1541 22.4949 89.4747 21.8329 88.9869 20.9967C88.4991 20.143 88.2552 19.15 88.2552 18.0177C88.2552 16.9027 88.4991 15.9097 89.0044 15.0561C89.4921 14.2025 90.1716 13.5405 91.0426 13.0875C91.9137 12.6346 92.8718 12.4081 93.9345 12.4081C94.9972 12.4081 95.9728 12.6346 96.8264 13.0875C97.6801 13.5405 98.3595 14.2025 98.8647 15.0561C99.3525 15.9097 99.6138 16.9027 99.6138 18.0177C99.6138 19.15 99.3699 20.1256 98.8647 20.9793C98.3595 21.8329 97.68 22.4949 96.809 22.9478C95.9379 23.4008 94.9624 23.6273 93.8997 23.6273C92.8196 23.6447 91.8614 23.4182 91.0078 22.9478ZM95.5373 20.0385C95.9902 19.5681 96.2167 18.8887 96.2167 18.0177C96.2167 17.1466 95.9902 16.4672 95.5547 15.9968C95.1192 15.5265 94.5791 15.3 93.9345 15.3C93.2899 15.3 92.7325 15.5265 92.3144 15.9968C91.8788 16.4672 91.6698 17.1292 91.6698 18.0177C91.6698 18.8887 91.8788 19.5681 92.3144 20.0385C92.7325 20.5089 93.2725 20.7528 93.9171 20.7528C94.5617 20.7528 95.0843 20.5089 95.5373 20.0385Z" fill="#9FBC2E"/>
<path d="M111.129 13.6799C111.896 14.5161 112.279 15.6484 112.279 17.0944V23.4879H108.952V17.5473C108.952 16.8156 108.76 16.2408 108.377 15.8401C107.993 15.4394 107.488 15.2303 106.844 15.2303C106.199 15.2303 105.694 15.4394 105.311 15.8401C104.927 16.2408 104.736 16.8156 104.736 17.5473V23.4879H101.408V12.5475H104.753V13.9934C105.084 13.5056 105.554 13.1224 106.129 12.8436C106.704 12.5649 107.349 12.4255 108.063 12.4255C109.352 12.4255 110.363 12.8436 111.129 13.6799Z" fill="#9FBC2E"/>
<path d="M116.512 23.1569C115.763 22.8259 115.188 22.3904 114.753 21.8155C114.317 21.2406 114.073 20.6134 114.021 19.8992H117.331C117.366 20.2824 117.54 20.5786 117.854 20.8225C118.167 21.0664 118.551 21.1709 119.004 21.1709C119.422 21.1709 119.753 21.0838 119.979 20.927C120.206 20.7702 120.328 20.5438 120.328 20.2824C120.328 19.9689 120.171 19.7424 119.84 19.5856C119.509 19.4288 118.986 19.272 118.254 19.0804C117.47 18.8888 116.826 18.6971 116.303 18.5055C115.781 18.2964 115.328 17.9829 114.944 17.5473C114.561 17.1118 114.37 16.5195 114.37 15.7704C114.37 15.1432 114.544 14.5683 114.892 14.0631C115.241 13.5405 115.746 13.1398 116.425 12.8436C117.105 12.5475 117.906 12.3907 118.829 12.3907C120.206 12.3907 121.286 12.7391 122.07 13.4011C122.854 14.0805 123.307 14.9864 123.429 16.1014H120.328C120.275 15.7181 120.101 15.422 119.822 15.1955C119.544 14.969 119.178 14.8645 118.707 14.8645C118.307 14.8645 118.011 14.9342 117.801 15.091C117.592 15.2477 117.488 15.4394 117.488 15.7007C117.488 16.0143 117.662 16.2582 117.993 16.415C118.324 16.5717 118.847 16.7285 119.544 16.8853C120.345 17.0944 121.007 17.3034 121.53 17.4951C122.035 17.7041 122.488 18.0177 122.871 18.4706C123.254 18.9236 123.463 19.5333 123.463 20.2824C123.463 20.927 123.289 21.5019 122.923 21.9897C122.557 22.4949 122.052 22.8956 121.373 23.1743C120.693 23.4531 119.927 23.6099 119.038 23.6099C118.098 23.6447 117.261 23.4705 116.512 23.1569Z" fill="#9FBC2E"/>
<path d="M136.337 12.5475V23.4879H132.993V22.0071C132.662 22.4949 132.191 22.8782 131.616 23.1743C131.041 23.4705 130.397 23.6099 129.683 23.6099C128.846 23.6099 128.115 23.4182 127.47 23.0524C126.826 22.6866 126.338 22.1465 125.989 21.4322C125.641 20.718 125.467 19.8992 125.467 18.941V12.5475H128.794V18.4881C128.794 19.2198 128.986 19.7947 129.369 20.1953C129.752 20.596 130.257 20.8051 130.902 20.8051C131.547 20.8051 132.069 20.596 132.453 20.1953C132.836 19.7947 133.027 19.2198 133.027 18.4881V12.5475H136.337Z" fill="#9FBC2E"/>
<path d="M142.104 8.97607V23.4704H138.759V8.97607H142.104Z" fill="#9FBC2E"/>
<path d="M157.452 9.72534L152.574 23.488H148.375L143.498 9.72534H147.051L150.466 20.1083L153.898 9.72534H157.452Z" fill="#9FBC2E"/>
<path d="M162.19 20.8921H166.58V23.4704H158.845V9.70776H162.19V20.8921Z" fill="#9FBC2E"/>
<path d="M15.3828 31.6934C23.8785 31.6934 30.7656 24.8062 30.7656 16.3105C30.7656 7.81485 23.8785 0.927734 15.3828 0.927734C6.88712 0.927734 0 7.81485 0 16.3105C0 24.8062 6.88712 31.6934 15.3828 31.6934Z" fill="#9FBC2E"/>
<path d="M12.9613 23.0873C12.0903 21.9026 11.5676 20.4567 11.5676 18.8888C11.5676 14.969 14.7383 11.7984 18.658 11.7984C22.5778 11.7984 25.7484 14.969 25.7484 18.8888C25.7484 22.8085 22.5778 25.9792 18.658 25.9792C17.5779 25.9792 16.5501 25.7353 15.6267 25.2823L12.0206 26.6237L12.9613 23.0873Z" fill="#416326"/>
<path d="M17.8045 17.1293C18.6756 15.9447 19.1982 14.4987 19.1982 12.9308C19.1982 9.01109 16.0276 5.84045 12.1078 5.84045C8.18809 5.84045 5.01746 9.01109 5.01746 12.9308C5.01746 16.8506 8.18809 20.0212 12.1078 20.0212C13.1879 20.0212 14.2158 19.7773 15.1391 19.3244L18.7453 20.6658L17.8045 17.1293Z" fill="white"/>
<path d="M8.11828 13.9761C8.72443 13.9761 9.21581 13.4847 9.21581 12.8785C9.21581 12.2724 8.72443 11.781 8.11828 11.781C7.51213 11.781 7.02075 12.2724 7.02075 12.8785C7.02075 13.4847 7.51213 13.9761 8.11828 13.9761Z" fill="#416326"/>
<path d="M11.7418 13.9761C12.348 13.9761 12.8393 13.4847 12.8393 12.8785C12.8393 12.2724 12.348 11.781 11.7418 11.781C11.1357 11.781 10.6443 12.2724 10.6443 12.8785C10.6443 13.4847 11.1357 13.9761 11.7418 13.9761Z" fill="#416326"/>
<path d="M15.3656 13.9761C15.9717 13.9761 16.4631 13.4847 16.4631 12.8785C16.4631 12.2724 15.9717 11.781 15.3656 11.781C14.7594 11.781 14.2681 12.2724 14.2681 12.8785C14.2681 13.4847 14.7594 13.9761 15.3656 13.9761Z" fill="#416326"/>
</svg>
