<svg width="173" height="32" viewBox="0 0 173 32" fill="none" xmlns="http://www.w3.org/2000/svg">
<path d="M47.2752 10.3363V19.727C47.2752 21.1758 46.8638 22.3027 46.041 23.0897C45.2182 23.8768 44.1093 24.2703 42.732 24.2703C41.2831 24.2703 40.1205 23.8589 39.2261 23.0361C38.3318 22.2133 37.9025 21.0327 37.9025 19.5123H41.2473C41.2473 20.0847 41.3725 20.5319 41.6051 20.8181C41.8376 21.1043 42.1775 21.2653 42.6246 21.2653C43.036 21.2653 43.3401 21.14 43.5726 20.8717C43.7873 20.6034 43.9125 20.2278 43.9125 19.727V10.3363H47.2752Z" fill="#416326"/>
<path d="M49.9585 15.6664C50.3878 14.8079 50.9602 14.1639 51.6935 13.6989C52.4269 13.2338 53.2497 13.0192 54.1441 13.0192C54.9132 13.0192 55.5929 13.1801 56.1832 13.4842C56.7734 13.8062 57.2206 14.2176 57.5247 14.7184V13.1623H60.8875V24.127H57.5247V22.5708C57.2027 23.0895 56.7377 23.5009 56.1653 23.805C55.575 24.127 54.9132 24.2701 54.1262 24.2701C53.2318 24.2701 52.4269 24.0376 51.6935 23.5725C50.9602 23.1074 50.3878 22.4456 49.9585 21.587C49.5292 20.7285 49.3146 19.7447 49.3146 18.6178C49.3325 17.5088 49.5471 16.525 49.9585 15.6664ZM56.845 16.6681C56.3799 16.1852 55.8076 15.9347 55.1457 15.9347C54.4839 15.9347 53.9115 16.1673 53.4465 16.6502C52.9814 17.1332 52.7489 17.795 52.7489 18.6178C52.7489 19.4585 52.9814 20.1203 53.4465 20.6211C53.9115 21.1041 54.4839 21.3545 55.1457 21.3545C55.8076 21.3545 56.3799 21.1041 56.845 20.6211C57.3101 20.1382 57.5426 19.4764 57.5426 18.6357C57.5426 17.795 57.3101 17.1511 56.845 16.6681Z" fill="#416326"/>
<path d="M70.0455 24.1451L66.7006 19.5481V24.1451H63.3379V9.60297H66.7006V17.6342L70.0276 13.1804H74.1774L69.6162 18.6896L74.2132 24.1451H70.0455Z" fill="#416326"/>
<path d="M82.5127 24.1451L79.6508 18.9399H78.8459V24.1451H75.4832V10.3363H81.1176C82.2087 10.3363 83.1388 10.5331 83.89 10.9087C84.6413 11.2843 85.2316 11.803 85.6072 12.4649C85.9828 13.1267 86.1796 13.86 86.1796 14.6828C86.1796 15.5951 85.9292 16.4179 85.4104 17.1334C84.8917 17.8488 84.1226 18.3676 83.1209 18.6716L86.3048 24.1272H82.5127V24.1451ZM78.8459 16.561H80.9208C81.529 16.561 81.994 16.4179 82.2981 16.1138C82.6022 15.8097 82.7632 15.3804 82.7632 14.8438C82.7632 14.3251 82.6022 13.9137 82.2981 13.6096C81.994 13.3055 81.529 13.1624 80.9208 13.1624H78.8459V16.561Z" fill="#9FBC2E"/>
<path d="M98.5752 19.4585H90.9732C91.0269 20.1382 91.2415 20.6569 91.635 21.0147C92.0286 21.3724 92.4936 21.5513 93.066 21.5513C93.9067 21.5513 94.4791 21.1935 94.8189 20.4959H98.3963C98.2174 21.2114 97.8776 21.8732 97.4125 22.4456C96.9296 23.018 96.3393 23.4831 95.606 23.805C94.8905 24.127 94.0856 24.288 93.1912 24.288C92.118 24.288 91.1521 24.0554 90.3293 23.6083C89.5065 23.1611 88.8447 22.4993 88.3617 21.6407C87.8967 20.7821 87.6462 19.7983 87.6462 18.6536C87.6462 17.5088 87.8788 16.525 88.3438 15.6664C88.8089 14.8079 89.4528 14.1639 90.2935 13.6989C91.1342 13.2338 92.1001 13.0192 93.1912 13.0192C94.2465 13.0192 95.1945 13.2338 96.0174 13.681C96.8402 14.1282 97.4841 14.7542 97.9491 15.5949C98.4142 16.4177 98.6467 17.3836 98.6467 18.4926C98.6289 18.7967 98.611 19.1186 98.5752 19.4585ZM95.1946 17.5982C95.1946 17.0259 94.9978 16.5608 94.6043 16.2209C94.2108 15.8811 93.7278 15.7022 93.1375 15.7022C92.5831 15.7022 92.1001 15.8632 91.7066 16.1852C91.3131 16.5071 91.0805 16.9722 90.9911 17.5803H95.1946V17.5982Z" fill="#9FBC2E"/>
<path d="M102.314 23.8051C101.562 23.4831 100.972 23.0359 100.543 22.4636C100.113 21.8912 99.863 21.2472 99.8093 20.5496H103.136C103.172 20.9253 103.351 21.2294 103.673 21.4798C103.995 21.7123 104.371 21.8375 104.836 21.8375C105.247 21.8375 105.587 21.7481 105.801 21.5871C106.034 21.4261 106.141 21.2115 106.141 20.9432C106.141 20.6212 105.98 20.3887 105.658 20.2456C105.336 20.1025 104.8 19.9236 104.066 19.7447C103.279 19.5659 102.618 19.3691 102.099 19.1723C101.58 18.9756 101.115 18.6536 100.739 18.2065C100.364 17.7593 100.167 17.169 100.167 16.4356C100.167 15.8096 100.346 15.2372 100.686 14.7185C101.026 14.1998 101.544 13.7884 102.224 13.4843C102.904 13.1802 103.709 13.0371 104.639 13.0371C106.016 13.0371 107.107 13.377 107.894 14.0567C108.681 14.7364 109.146 15.6486 109.254 16.7755H106.141C106.088 16.3999 105.927 16.0958 105.64 15.8633C105.354 15.6307 104.997 15.5234 104.531 15.5234C104.138 15.5234 103.834 15.595 103.619 15.7559C103.405 15.899 103.297 16.1137 103.297 16.382C103.297 16.7039 103.458 16.9365 103.798 17.0975C104.138 17.2584 104.657 17.4194 105.354 17.5625C106.159 17.7772 106.821 17.9739 107.34 18.1886C107.858 18.3853 108.306 18.7252 108.681 19.1723C109.075 19.6195 109.272 20.2277 109.289 20.9968C109.289 21.6408 109.111 22.2131 108.753 22.714C108.395 23.2148 107.876 23.6083 107.197 23.8945C106.517 24.1807 105.73 24.3238 104.853 24.3238C103.905 24.3059 103.065 24.127 102.314 23.8051Z" fill="#9FBC2E"/>
<path d="M121.649 19.4585H114.047C114.101 20.1382 114.316 20.6569 114.709 21.0147C115.103 21.3724 115.568 21.5513 116.14 21.5513C116.981 21.5513 117.553 21.1935 117.893 20.4959H121.471C121.292 21.2114 120.952 21.8732 120.487 22.4456C120.004 23.018 119.414 23.4831 118.68 23.805C117.965 24.127 117.16 24.288 116.265 24.288C115.192 24.288 114.226 24.0554 113.404 23.6083C112.581 23.1611 111.919 22.4993 111.436 21.6407C110.971 20.7821 110.72 19.7983 110.72 18.6536C110.72 17.5088 110.953 16.525 111.418 15.6664C111.883 14.8079 112.527 14.1639 113.368 13.6989C114.208 13.2338 115.174 13.0192 116.265 13.0192C117.321 13.0192 118.269 13.2338 119.092 13.681C119.914 14.1282 120.558 14.7542 121.023 15.5949C121.488 16.4177 121.721 17.3836 121.721 18.4926C121.703 18.7967 121.685 19.1186 121.649 19.4585ZM118.269 17.5982C118.269 17.0259 118.072 16.5608 117.678 16.2209C117.285 15.8811 116.802 15.7022 116.212 15.7022C115.657 15.7022 115.174 15.8632 114.781 16.1852C114.387 16.5071 114.155 16.9722 114.065 17.5803H118.269V17.5982Z" fill="#9FBC2E"/>
<path d="M128.303 13.5739C128.894 13.234 129.555 13.0552 130.271 13.0552V16.6147H129.341C128.5 16.6147 127.874 16.7936 127.463 17.1513C127.051 17.509 126.837 18.1351 126.837 19.0473V24.1451H123.474V13.1804H126.837V15.0049C127.23 14.3967 127.713 13.9316 128.303 13.5739Z" fill="#9FBC2E"/>
<path d="M136.818 20.9969L139.196 13.1802H142.774L138.875 24.145H134.743L130.843 13.1802H134.439L136.818 20.9969Z" fill="#9FBC2E"/>
<path d="M144.169 15.6664C144.598 14.8079 145.171 14.1639 145.904 13.6989C146.637 13.2338 147.46 13.0192 148.355 13.0192C149.124 13.0192 149.803 13.1801 150.394 13.4842C150.984 13.8062 151.431 14.2176 151.735 14.7184V13.1623H155.098V24.127H151.735V22.5708C151.413 23.0895 150.948 23.5009 150.376 23.805C149.786 24.127 149.124 24.2701 148.337 24.2701C147.442 24.2701 146.637 24.0376 145.904 23.5725C145.171 23.1074 144.598 22.4456 144.169 21.587C143.74 20.7285 143.525 19.7447 143.525 18.6178C143.525 17.5088 143.74 16.525 144.169 15.6664ZM151.038 16.6681C150.573 16.1852 150 15.9347 149.338 15.9347C148.677 15.9347 148.104 16.1673 147.639 16.6502C147.174 17.1332 146.942 17.795 146.942 18.6178C146.942 19.4585 147.174 20.1203 147.639 20.6211C148.104 21.1041 148.677 21.3545 149.338 21.3545C150 21.3545 150.573 21.1041 151.038 20.6211C151.503 20.1382 151.735 19.4764 151.735 18.6357C151.735 17.795 151.503 17.1511 151.038 16.6681Z" fill="#9FBC2E"/>
<path d="M159.445 23.8051C158.693 23.4831 158.103 23.0359 157.674 22.4636C157.245 21.8912 156.994 21.2472 156.941 20.5496H160.268C160.303 20.9253 160.482 21.2294 160.804 21.4798C161.126 21.7123 161.502 21.8375 161.967 21.8375C162.378 21.8375 162.718 21.7481 162.933 21.5871C163.165 21.4261 163.273 21.2115 163.273 20.9432C163.273 20.6212 163.112 20.3887 162.79 20.2456C162.468 20.1025 161.931 19.9236 161.198 19.7447C160.411 19.5659 159.749 19.3691 159.23 19.1723C158.711 18.9756 158.246 18.6536 157.871 18.2065C157.495 17.7593 157.298 17.169 157.298 16.4356C157.298 15.8096 157.477 15.2372 157.817 14.7185C158.157 14.1998 158.676 13.7884 159.355 13.4843C160.035 13.1802 160.84 13.0371 161.77 13.0371C163.147 13.0371 164.238 13.377 165.025 14.0567C165.813 14.7364 166.278 15.6486 166.385 16.7755H163.273C163.219 16.3999 163.058 16.0958 162.772 15.8633C162.486 15.6486 162.128 15.5234 161.663 15.5234C161.269 15.5234 160.965 15.595 160.75 15.7559C160.536 15.899 160.429 16.1137 160.429 16.382C160.429 16.7039 160.59 16.9365 160.929 17.0975C161.269 17.2584 161.788 17.4194 162.486 17.5625C163.29 17.7772 163.952 17.9739 164.471 18.1886C164.99 18.3853 165.437 18.7252 165.813 19.1723C166.206 19.6195 166.403 20.2277 166.421 20.9968C166.421 21.6408 166.242 22.2131 165.884 22.714C165.526 23.2148 165.008 23.6083 164.328 23.8945C163.648 24.1807 162.861 24.3238 161.985 24.3238C161.037 24.3059 160.178 24.127 159.445 23.8051Z" fill="#9FBC2E"/>
<path d="M168.746 11.5168C168.37 11.1769 168.192 10.7476 168.192 10.2289C168.192 9.71017 168.37 9.26299 168.746 8.92314C169.122 8.58329 169.605 8.40442 170.195 8.40442C170.767 8.40442 171.25 8.58329 171.626 8.92314C172.001 9.26299 172.18 9.71017 172.18 10.2289C172.18 10.7476 172.001 11.1769 171.626 11.5168C171.25 11.8566 170.785 12.0355 170.195 12.0355C169.605 12.0355 169.122 11.8566 168.746 11.5168ZM171.858 13.1802V24.145H168.496V13.1802H171.858Z" fill="#9FBC2E"/>
<path d="M15.4186 31.7649C23.934 31.7649 30.8372 24.8618 30.8372 16.3463C30.8372 7.83087 23.934 0.927734 15.4186 0.927734C6.90314 0.927734 0 7.83087 0 16.3463C0 24.8618 6.90314 31.7649 15.4186 31.7649Z" fill="#416326"/>
<path d="M22.5911 7.54584H8.24573V25.1645H22.5911V7.54584Z" fill="#9FBC2E"/>
<path d="M10.2134 15.7917L14.4526 20.7822C14.7209 21.1041 15.1144 21.283 15.5259 21.3009C15.9373 21.3188 16.3487 21.1578 16.6348 20.8537L26.3833 10.8549C26.9556 10.2646 26.9378 9.3345 26.3654 8.78001C25.7751 8.20762 24.845 8.22551 24.2905 8.79789L15.6689 17.6341L12.4851 13.8778C11.9663 13.2518 11.0362 13.1802 10.4102 13.6989C9.76624 14.2534 9.69469 15.1835 10.2134 15.7917Z" fill="white"/>
</svg>
