<svg width="144" height="32" viewBox="0 0 144 32" fill="none" xmlns="http://www.w3.org/2000/svg">
<path d="M0 16.3018C0 24.7907 6.88522 31.6934 15.3915 31.6934V0.927734C6.88522 0.927734 0 7.81296 0 16.3018Z" fill="#9FBC2E"/>
<path d="M15.3916 0.927734V31.6934C23.8805 31.6934 30.7831 24.8081 30.7831 16.3018C30.7831 7.79553 23.8805 0.927734 15.3916 0.927734Z" fill="#416326"/>
<path d="M47.1682 9.71301V19.0909C47.1682 20.5376 46.7673 21.6532 45.948 22.4376C45.1288 23.222 44.0306 23.6055 42.6362 23.6055C41.1894 23.6055 40.0215 23.1871 39.15 22.3679C38.2784 21.5486 37.8427 20.3808 37.8427 18.8643H41.172C41.172 19.4395 41.294 19.8753 41.5206 20.1716C41.7646 20.4679 42.0958 20.6074 42.5316 20.6074C42.9325 20.6074 43.2462 20.4853 43.4728 20.2239C43.6994 19.9624 43.804 19.5789 43.804 19.0909V9.71301H47.1682Z" fill="#416326"/>
<path d="M49.8525 15.0294C50.2709 14.1752 50.8635 13.5303 51.5956 13.0771C52.3277 12.6239 53.147 12.3973 54.0534 12.3973C54.8203 12.3973 55.5001 12.5542 56.0754 12.8679C56.6506 13.1817 57.1038 13.6 57.4176 14.1055V12.5542H60.7643V23.5008H57.4176V21.9494C57.0864 22.4549 56.6332 22.8733 56.0579 23.187C55.4827 23.5008 54.8029 23.6577 54.0359 23.6577C53.147 23.6577 52.3451 23.4311 51.613 22.9604C50.8809 22.4898 50.3057 21.8274 49.87 20.9733C49.4516 20.1192 49.225 19.1256 49.225 18.01C49.2076 16.877 49.4167 15.8835 49.8525 15.0294ZM56.7029 16.0403C56.2323 15.5523 55.6745 15.3082 55.0121 15.3082C54.3497 15.3082 53.7745 15.5523 53.3213 16.0229C52.8506 16.4936 52.624 17.1559 52.624 17.9926C52.624 18.8293 52.8506 19.4917 53.3213 19.9797C53.7919 20.4678 54.3497 20.7118 55.0121 20.7118C55.6745 20.7118 56.2497 20.4678 56.7029 19.9797C57.1735 19.4917 57.4001 18.8293 57.4001 17.9926C57.4001 17.1559 57.1735 16.511 56.7029 16.0403Z" fill="#416326"/>
<path d="M69.8633 23.4834L66.534 18.899V23.4834H63.1873V8.98083H66.534V16.9991L69.8459 12.5542H73.977L69.4275 18.0449L74.0119 23.5008H69.8633V23.4834Z" fill="#416326"/>
<path d="M85.2026 9.71301V12.3974H81.5595V23.4835H78.2128V12.3974H74.5697V9.71301H85.2026Z" fill="#9FBC2E"/>
<path d="M97.1427 18.8119H89.5602C89.6125 19.4917 89.8391 20.0146 90.2226 20.3632C90.6061 20.7293 91.0767 20.9036 91.6519 20.9036C92.4886 20.9036 93.0638 20.555 93.395 19.8403H96.9684C96.7766 20.555 96.4629 21.1999 95.9748 21.7751C95.5042 22.3503 94.8941 22.8036 94.1794 23.1347C93.4647 23.4659 92.6629 23.6228 91.7739 23.6228C90.7106 23.6228 89.7519 23.3962 88.9153 22.943C88.0786 22.4898 87.4336 21.8274 86.963 20.9907C86.4923 20.1366 86.2657 19.1431 86.2657 18.01C86.2657 16.877 86.4923 15.8835 86.963 15.0294C87.4336 14.1752 88.0786 13.5303 88.9153 13.0771C89.7519 12.6239 90.7106 12.3973 91.7914 12.3973C92.8546 12.3973 93.7959 12.6239 94.6152 13.0597C95.4344 13.5129 96.0794 14.1404 96.55 14.9596C97.0206 15.7789 97.2472 16.7376 97.2472 17.8357C97.195 18.1495 97.1775 18.4807 97.1427 18.8119ZM93.7785 16.9468C93.7785 16.3715 93.5867 15.9183 93.1858 15.5697C92.7849 15.2385 92.2969 15.0642 91.7216 15.0642C91.1638 15.0642 90.6932 15.2211 90.2923 15.5523C89.9088 15.8835 89.6648 16.3367 89.5776 16.9468H93.7785Z" fill="#9FBC2E"/>
<path d="M116.177 13.6523C116.979 14.4715 117.38 15.622 117.38 17.0862V23.4833H114.051V17.5394C114.051 16.8422 113.859 16.2844 113.493 15.9009C113.127 15.5174 112.604 15.3257 111.959 15.3257C111.314 15.3257 110.791 15.5174 110.425 15.9009C110.059 16.2844 109.867 16.8247 109.867 17.5394V23.4833H106.521V17.5394C106.521 16.8422 106.329 16.2844 105.963 15.9009C105.597 15.5174 105.074 15.3257 104.429 15.3257C103.766 15.3257 103.261 15.5174 102.895 15.9009C102.529 16.2844 102.337 16.8247 102.337 17.5394V23.4833H98.9904V12.5367H102.337V13.9138C102.668 13.4606 103.121 13.0945 103.662 12.833C104.202 12.5716 104.83 12.4321 105.527 12.4321C106.346 12.4321 107.078 12.6064 107.741 12.9551C108.386 13.3037 108.891 13.8092 109.257 14.4715C109.641 13.8789 110.146 13.3734 110.809 13.0073C111.453 12.6239 112.168 12.4321 112.953 12.4321C114.277 12.4321 115.375 12.833 116.177 13.6523Z" fill="#9FBC2E"/>
<path d="M119.698 15.0294C120.117 14.1752 120.709 13.5303 121.441 13.0771C122.174 12.6239 122.993 12.3973 123.899 12.3973C124.666 12.3973 125.346 12.5542 125.921 12.8679C126.496 13.1817 126.95 13.6 127.263 14.1055V12.5542H130.61V23.5008H127.263V21.9494C126.932 22.4549 126.479 22.8733 125.904 23.187C125.329 23.5008 124.649 23.6577 123.882 23.6577C122.993 23.6577 122.191 23.4311 121.459 22.9604C120.727 22.4898 120.152 21.8274 119.716 20.9733C119.297 20.1192 119.071 19.1256 119.071 18.01C119.071 16.877 119.28 15.8835 119.698 15.0294ZM126.566 16.0403C126.095 15.5523 125.538 15.3082 124.875 15.3082C124.213 15.3082 123.638 15.5523 123.185 16.0229C122.714 16.4936 122.487 17.1559 122.487 17.9926C122.487 18.8293 122.714 19.4917 123.185 19.9797C123.655 20.4678 124.213 20.7118 124.875 20.7118C125.538 20.7118 126.113 20.4678 126.566 19.9797C127.037 19.4917 127.263 18.8293 127.263 17.9926C127.263 17.1559 127.019 16.511 126.566 16.0403Z" fill="#9FBC2E"/>
<path d="M142.777 13.6698C143.544 14.5064 143.927 15.6395 143.927 17.0862V23.4834H140.598V17.5394C140.598 16.8073 140.406 16.2321 140.023 15.8312C139.639 15.4303 139.134 15.2211 138.489 15.2211C137.844 15.2211 137.339 15.4303 136.955 15.8312C136.572 16.2321 136.38 16.8073 136.38 17.5394V23.4834H133.033V12.5368H136.38V13.9835C136.711 13.4955 137.182 13.112 137.757 12.8331C138.332 12.5542 138.977 12.4147 139.692 12.4147C140.982 12.4322 142.01 12.8331 142.777 13.6698Z" fill="#9FBC2E"/>
<path d="M15.3915 9.20736C15.653 9.20736 15.8447 8.99818 15.8447 8.71929C15.8447 8.40553 15.8447 8.07434 15.8447 7.76059C15.8447 7.44683 15.8447 7.11564 15.8447 6.80188C15.8447 6.50556 15.653 6.29639 15.3741 6.29639C15.1126 6.29639 14.9209 6.50556 14.9209 6.80188C14.9209 7.44683 14.9209 8.09177 14.9209 8.73672C14.9209 9.01562 15.1126 9.22479 15.3915 9.20736Z" fill="white"/>
<path d="M17.4483 9.71287C17.5006 9.69544 17.6226 9.66058 17.6924 9.59086C18.0584 9.24224 18.407 8.89362 18.7382 8.545C18.8951 8.37069 18.8777 8.09179 18.7208 7.91749C18.5465 7.74318 18.2676 7.72574 18.0933 7.88262C17.7272 8.23124 17.3786 8.57986 17.0474 8.92848C16.908 9.06793 16.908 9.24224 16.9777 9.41655C17.0474 9.62572 17.1869 9.71287 17.4483 9.71287Z" fill="white"/>
<path d="M13.0557 9.5559C13.1429 9.64306 13.2649 9.67792 13.3869 9.74764C13.5961 9.71278 13.7704 9.6082 13.8401 9.43389C13.9098 9.24215 13.875 9.06784 13.7355 8.92839C13.4043 8.5972 13.0906 8.26601 12.7594 7.95226C12.5502 7.76052 12.2888 7.74308 12.097 7.93483C11.9053 8.10913 11.9053 8.40546 12.1144 8.61463C12.3933 8.92839 12.7245 9.24215 13.0557 9.5559Z" fill="white"/>
<path d="M22.4161 14.1579C21.7363 14.1579 21.0913 14.3671 20.551 14.6982L16.6116 10.7588C16.3152 10.4625 15.9318 10.3231 15.5483 10.3405C15.1648 10.3405 14.7813 10.4625 14.485 10.7588L10.4759 14.768C9.90066 14.3845 9.22085 14.1579 8.48875 14.1579C6.51905 14.1579 4.91541 15.7615 4.91541 17.7312V20.9211C4.91541 22.5422 6.22273 23.8669 7.86124 23.8669H12.0621V17.7487C12.0621 17.6266 12.0447 17.5046 12.0272 17.3826L15.5483 13.8616L18.895 17.2083C18.8602 17.3826 18.8427 17.5569 18.8427 17.7487V23.8669H23.0436C24.6647 23.8669 25.9894 22.5596 25.9894 20.9211V17.7312C25.9894 15.7615 24.3858 14.1579 22.4161 14.1579Z" fill="white"/>
<path d="M22.4163 13.4606C23.7759 13.4606 24.874 12.3624 24.874 11.0028C24.874 9.64319 23.7759 8.54504 22.4163 8.54504C21.0566 8.54504 19.9585 9.64319 19.9585 11.0028C19.9585 12.3624 21.0566 13.4606 22.4163 13.4606Z" fill="white"/>
<path d="M8.48877 13.4606C9.84838 13.4606 10.9465 12.3624 10.9465 11.0028C10.9465 9.64319 9.84838 8.54504 8.48877 8.54504C7.12916 8.54504 6.03101 9.64319 6.03101 11.0028C6.03101 12.3624 7.14659 13.4606 8.48877 13.4606Z" fill="white"/>
</svg>
