<svg width="262" height="59" viewBox="0 0 262 59" fill="none" xmlns="http://www.w3.org/2000/svg">
<path d="M89.4523 9.27356V29.3195C89.4523 32.4138 88.5778 34.8018 86.8288 36.4836C85.0799 38.1653 82.7255 39.0061 79.7657 39.0061C76.6713 39.0061 74.1824 38.1316 72.2989 36.349C70.4154 34.6 69.4736 32.0775 69.4736 28.8486H76.6041C76.6041 30.0931 76.8395 31.0012 77.344 31.6402C77.8485 32.2793 78.5885 32.582 79.5302 32.582C80.4047 32.582 81.0774 32.3129 81.5483 31.7411C82.0192 31.1694 82.2546 30.3621 82.2546 29.3195V9.27356H89.4523Z" fill="#416326"/>
<path d="M93.9258 20.6419C94.8339 18.8256 96.0784 17.413 97.6256 16.4376C99.2064 15.4622 100.955 14.9577 102.872 14.9577C104.521 14.9577 105.967 15.294 107.211 15.9667C108.456 16.6394 109.398 17.5139 110.07 18.6238V15.3277H117.234V38.737H110.07V35.4072C109.364 36.4835 108.388 37.3917 107.144 38.0643C105.9 38.737 104.453 39.0734 102.805 39.0734C100.888 39.0734 99.1727 38.5688 97.5919 37.5935C96.0111 36.5844 94.8003 35.2054 93.8922 33.3556C92.9841 31.5393 92.5132 29.4204 92.5132 26.9987C92.5805 24.5771 93.0177 22.4581 93.9258 20.6419ZM108.624 22.7944C107.615 21.7518 106.438 21.2473 104.991 21.2473C103.579 21.2473 102.368 21.7518 101.359 22.7944C100.35 23.8035 99.8791 25.2161 99.8791 26.9987C99.8791 28.7813 100.384 30.194 101.359 31.2702C102.368 32.3129 103.545 32.851 104.991 32.851C106.404 32.851 107.615 32.3465 108.624 31.3039C109.599 30.2612 110.104 28.8486 110.104 27.066C110.104 25.2161 109.599 23.8035 108.624 22.7944Z" fill="#416326"/>
<path d="M135.531 38.7034L128.401 28.9159V38.737H121.237V7.69275H128.401V24.8461L135.498 15.3277H144.343L134.623 27.066L144.444 38.737H135.531V38.7034Z" fill="#416326"/>
<path d="M167.08 9.27356V15.025H159.277V38.737H152.113V15.025H144.31V9.27356H167.08Z" fill="#9FBC2E"/>
<path d="M179.356 16.1686C180.601 15.4286 182.013 15.0587 183.561 15.0587V22.66H181.576C179.794 22.66 178.448 23.0299 177.54 23.8035C176.632 24.5771 176.195 25.9225 176.195 27.8396V38.7034H169.031V15.3277H176.195V19.2293C177.036 17.9176 178.078 16.9085 179.356 16.1686Z" fill="#9FBC2E"/>
<path d="M186.52 20.6419C187.429 18.8256 188.673 17.413 190.22 16.4376C191.801 15.4622 193.55 14.9577 195.467 14.9577C197.115 14.9577 198.561 15.294 199.806 15.9667C201.05 16.6394 201.992 17.5139 202.665 18.6238V15.3277H209.829V38.737H202.665V35.4072C201.958 36.4835 200.983 37.3917 199.739 38.0643C198.494 38.737 197.048 39.0734 195.4 39.0734C193.483 39.0734 191.767 38.5688 190.187 37.5935C188.606 36.5844 187.395 35.2054 186.487 33.3556C185.579 31.5393 185.108 29.4204 185.108 26.9987C185.141 24.5771 185.612 22.4581 186.52 20.6419ZM201.185 22.7944C200.176 21.7518 198.999 21.2473 197.552 21.2473C196.106 21.2473 194.929 21.7518 193.92 22.7944C192.911 23.8035 192.44 25.2161 192.44 26.9987C192.44 28.7813 192.945 30.194 193.92 31.2702C194.895 32.3129 196.106 32.851 197.552 32.851C198.999 32.851 200.176 32.3465 201.185 31.3039C202.16 30.2612 202.665 28.8486 202.665 27.066C202.665 25.2161 202.194 23.8035 201.185 22.7944Z" fill="#9FBC2E"/>
<path d="M213.865 20.6419C214.84 18.8256 216.253 17.413 218.002 16.4376C219.785 15.4622 221.803 14.9577 224.09 14.9577C227.016 14.9577 229.471 15.7313 231.456 17.2785C233.44 18.8256 234.718 20.9782 235.324 23.7698H227.689C227.05 21.9872 225.805 21.0791 223.955 21.0791C222.643 21.0791 221.601 21.5836 220.794 22.6263C220.02 23.6353 219.616 25.1152 219.616 26.9987C219.616 28.9159 220.02 30.3621 220.794 31.3711C221.567 32.3802 222.61 32.9183 223.955 32.9183C225.805 32.9183 227.05 32.0102 227.689 30.2276H235.357C234.752 32.952 233.44 35.1045 231.456 36.6853C229.471 38.2661 227.016 39.0397 224.123 39.0397C221.836 39.0397 219.785 38.5352 218.036 37.5598C216.253 36.5844 214.874 35.1718 213.899 33.3556C212.89 31.5393 212.419 29.4204 212.419 26.9651C212.419 24.5098 212.89 22.4581 213.865 20.6419Z" fill="#9FBC2E"/>
<path d="M252.242 38.7034L245.111 28.9159V38.737H237.947V7.69275H245.111V24.8461L252.208 15.3277H261.054L251.333 27.066L261.155 38.737H252.242V38.7034Z" fill="#9FBC2E"/>
<path d="M77.7813 52.9642H76.8732L75.9987 51.0134H71.9962L71.1217 52.9642H70.2809L73.6443 45.5311H74.4179L77.7813 52.9642ZM74.0143 46.5401L72.3326 50.3071H75.696L74.0143 46.5401Z" fill="#416326"/>
<path d="M84.3735 51.4507C84.239 51.787 84.0372 52.0898 83.8017 52.3252C83.5663 52.5606 83.2972 52.7624 82.9609 52.897C82.6582 53.0315 82.3218 53.0988 81.9855 53.0988C81.7164 53.0988 81.5146 53.0651 81.2792 52.9979C81.0774 52.9306 80.8756 52.8633 80.7074 52.7288C80.5392 52.6279 80.3711 52.4934 80.2365 52.3588C80.102 52.2243 79.9675 52.0561 79.8666 51.9216V54.6459H79.0593V47.5155H79.8666V48.6254C79.9675 48.4573 80.102 48.3227 80.2365 48.1546C80.3711 48.02 80.5392 47.8855 80.7074 47.7846C80.8756 47.6837 81.0774 47.5828 81.2792 47.5155C81.481 47.4482 81.7164 47.4146 81.9519 47.4146C82.2882 47.4146 82.5909 47.4819 82.8936 47.6164C83.1963 47.751 83.499 47.9191 83.7345 48.1546C83.9699 48.39 84.1717 48.6927 84.3399 49.0291C84.4744 49.3654 84.5753 49.769 84.5753 50.2399C84.5753 50.7108 84.5081 51.1144 84.3735 51.4507ZM83.5999 49.399C83.499 49.13 83.3645 48.9281 83.1963 48.7263C83.0282 48.5582 82.8263 48.39 82.5909 48.2891C82.3555 48.1882 82.12 48.1546 81.851 48.1546C81.5819 48.1546 81.3464 48.2218 81.111 48.3227C80.8756 48.4236 80.6738 48.5582 80.472 48.76C80.2702 48.9281 80.1356 49.1636 80.0347 49.4327C79.9338 49.7017 79.8666 49.9708 79.8666 50.3071C79.8666 50.6099 79.9338 50.9126 80.0347 51.1816C80.1356 51.4507 80.3038 51.6525 80.472 51.8543C80.6738 52.0225 80.8756 52.1907 81.111 52.2916C81.3464 52.3925 81.5819 52.4597 81.851 52.4597C82.12 52.4597 82.3555 52.4261 82.5909 52.3252C82.8263 52.2243 83.0282 52.0898 83.1963 51.9216C83.3645 51.7534 83.499 51.518 83.5999 51.2489C83.7008 50.9798 83.7681 50.6771 83.7681 50.3744C83.7345 49.9372 83.7008 49.6345 83.5999 49.399Z" fill="#416326"/>
<path d="M86.1561 52.9642V45.2957H86.9633V52.9642H86.1561Z" fill="#416326"/>
<path d="M88.8469 46.3384V45.4302H89.7887V46.3384H88.8469ZM88.9142 52.9643V47.5156H89.7214V52.9643H88.9142Z" fill="#416326"/>
<path d="M96.4482 52.9642H95.4728L93.522 50.4417L92.4121 51.5516V52.9642H91.6049V45.2957H92.4121V50.6098L95.3382 47.5491H96.3473L94.0601 49.8699L96.4482 52.9642Z" fill="#416326"/>
<path d="M98.5671 48.289C98.298 48.3563 98.0625 48.4572 97.7935 48.5917L97.558 47.9191C97.8607 47.7845 98.1635 47.6836 98.4662 47.5827C98.7689 47.5154 99.1388 47.4482 99.5425 47.4482C100.282 47.4482 100.854 47.6164 101.258 47.9863C101.661 48.3563 101.863 48.8944 101.863 49.6344V52.9642H101.09V52.157C100.888 52.3924 100.652 52.6278 100.316 52.796C100.013 52.9978 99.6097 53.0651 99.1052 53.0651C98.8361 53.0651 98.6007 53.0314 98.3653 52.9642C98.1298 52.8969 97.8944 52.796 97.7262 52.6278C97.5244 52.4933 97.3899 52.2915 97.2553 52.0897C97.1544 51.8879 97.0872 51.6188 97.0872 51.3497C97.0872 51.047 97.1544 50.8116 97.2553 50.5762C97.3562 50.3407 97.5244 50.1725 97.7262 50.038C97.928 49.9035 98.1635 49.7689 98.4662 49.7017C98.7352 49.6344 99.0716 49.6008 99.4079 49.6008C99.7443 49.6008 100.047 49.6344 100.316 49.668C100.585 49.7017 100.821 49.7689 101.09 49.8362V49.6344C101.09 49.1299 100.955 48.7599 100.652 48.5245C100.383 48.289 99.9797 48.1545 99.4415 48.1545C99.1388 48.1881 98.8361 48.2218 98.5671 48.289ZM98.3316 50.5089C98.0626 50.7107 97.928 50.9798 97.928 51.3497C97.928 51.5179 97.9617 51.6861 98.0289 51.8206C98.0962 51.9552 98.1971 52.0561 98.3316 52.157C98.4662 52.2579 98.6007 52.3251 98.7689 52.3588C98.937 52.3924 99.1052 52.426 99.2734 52.426C99.5088 52.426 99.7443 52.3924 99.9797 52.3251C100.215 52.2579 100.383 52.157 100.551 52.0224C100.72 51.8879 100.854 51.7533 100.955 51.5515C101.056 51.3834 101.09 51.1816 101.09 50.9461V50.408C100.888 50.3407 100.652 50.3071 100.383 50.2398C100.114 50.2062 99.8115 50.1725 99.4752 50.1725C98.9707 50.2062 98.6007 50.3071 98.3316 50.5089Z" fill="#416326"/>
<path d="M107.177 52.1234C107.077 52.3252 106.942 52.4934 106.774 52.6279C106.606 52.7624 106.404 52.8633 106.168 52.9642C105.933 53.0315 105.664 53.0651 105.395 53.0651C104.991 53.0651 104.621 52.9979 104.218 52.8633C103.814 52.7288 103.478 52.527 103.141 52.2916L103.545 51.7198C103.848 51.9552 104.15 52.1234 104.453 52.2243C104.756 52.3588 105.092 52.3925 105.428 52.3925C105.765 52.3925 106.034 52.3252 106.236 52.157C106.438 51.9889 106.538 51.7871 106.538 51.518V51.4843C106.538 51.3498 106.505 51.2489 106.438 51.148C106.37 51.0471 106.269 50.9798 106.135 50.8789C106 50.8117 105.866 50.7444 105.698 50.6771C105.529 50.6099 105.361 50.5762 105.193 50.509C104.991 50.4417 104.756 50.3744 104.554 50.3071C104.352 50.2399 104.15 50.139 103.982 50.0381C103.814 49.9372 103.68 49.769 103.545 49.6008C103.41 49.4327 103.377 49.2309 103.377 48.9618V48.9281C103.377 48.6927 103.41 48.4909 103.511 48.2891C103.612 48.0873 103.747 47.9191 103.881 47.7846C104.049 47.6501 104.251 47.5492 104.487 47.4819C104.722 47.4146 104.958 47.381 105.227 47.381C105.563 47.381 105.899 47.4482 106.236 47.5492C106.572 47.6501 106.875 47.8182 107.177 47.9864L106.807 48.5918C106.538 48.4236 106.303 48.2891 106 48.2218C105.698 48.1546 105.462 48.0873 105.193 48.0873C104.857 48.0873 104.621 48.1546 104.419 48.3227C104.218 48.4573 104.15 48.6591 104.15 48.8945V48.9281C104.15 49.0627 104.184 49.1636 104.251 49.2645C104.319 49.3654 104.419 49.4327 104.554 49.4999C104.689 49.5672 104.823 49.6345 104.991 49.7017C105.159 49.769 105.328 49.8026 105.529 49.8699C105.731 49.9372 105.933 50.0044 106.168 50.0717C106.37 50.139 106.572 50.2399 106.74 50.3744C106.908 50.509 107.043 50.6435 107.144 50.8117C107.245 50.9798 107.312 51.1816 107.312 51.4171V51.4507C107.312 51.7198 107.278 51.9552 107.177 52.1234Z" fill="#416326"/>
<path d="M108.826 46.3384V45.4302H109.767V46.3384H108.826ZM108.893 52.9643V47.5156H109.7V52.9643H108.893Z" fill="#416326"/>
<path d="M120.026 51.4507C119.891 51.787 119.69 52.0898 119.454 52.3252C119.219 52.5606 118.95 52.7624 118.613 52.897C118.311 53.0315 117.974 53.0988 117.638 53.0988C117.369 53.0988 117.167 53.0651 116.932 52.9979C116.73 52.9306 116.528 52.8633 116.36 52.7288C116.192 52.6279 116.023 52.4934 115.889 52.3588C115.754 52.2243 115.62 52.0561 115.519 51.9216V54.6459H114.712V47.5155H115.519V48.6254C115.62 48.4573 115.754 48.3227 115.889 48.1546C116.023 48.02 116.192 47.8855 116.36 47.7846C116.528 47.6837 116.73 47.5828 116.932 47.5155C117.133 47.4482 117.369 47.4146 117.604 47.4146C117.941 47.4146 118.243 47.4819 118.546 47.6164C118.849 47.751 119.151 47.9191 119.387 48.1546C119.622 48.39 119.824 48.6927 119.992 49.0291C120.127 49.3654 120.228 49.769 120.228 50.2399C120.228 50.7108 120.16 51.1144 120.026 51.4507ZM119.252 49.399C119.151 49.13 119.017 48.9281 118.849 48.7263C118.681 48.5582 118.479 48.39 118.243 48.2891C118.008 48.1882 117.772 48.1546 117.503 48.1546C117.234 48.1546 116.999 48.2218 116.763 48.3227C116.528 48.4236 116.326 48.5582 116.124 48.76C115.923 48.9281 115.788 49.1636 115.687 49.4327C115.586 49.7017 115.519 49.9708 115.519 50.3071C115.519 50.6099 115.586 50.9126 115.687 51.1816C115.788 51.4507 115.956 51.6525 116.124 51.8543C116.326 52.0225 116.528 52.1907 116.763 52.2916C116.999 52.3925 117.234 52.4597 117.503 52.4597C117.772 52.4597 118.008 52.4261 118.243 52.3252C118.479 52.2243 118.681 52.0898 118.849 51.9216C119.017 51.7534 119.151 51.518 119.252 51.2489C119.353 50.9798 119.42 50.6771 119.42 50.3744C119.387 49.9372 119.353 49.6345 119.252 49.399Z" fill="#416326"/>
<path d="M122.447 51.3498C122.548 51.5852 122.717 51.787 122.885 51.9216C123.053 52.0898 123.255 52.1907 123.49 52.2916C123.692 52.3588 123.927 52.4261 124.163 52.4261C124.533 52.4261 124.869 52.3588 125.138 52.2243C125.407 52.0898 125.643 51.888 125.878 51.6525L126.383 52.0898C126.114 52.3925 125.811 52.6615 125.441 52.8297C125.105 53.0315 124.667 53.0988 124.129 53.0988C123.759 53.0988 123.423 53.0315 123.086 52.897C122.75 52.7624 122.481 52.5606 122.212 52.3252C121.977 52.0898 121.775 51.787 121.607 51.4171C121.472 51.0807 121.405 50.6771 121.405 50.2735C121.405 49.8699 121.472 49.4999 121.607 49.1636C121.741 48.8272 121.909 48.5245 122.145 48.2555C122.38 47.9864 122.649 47.7846 122.986 47.6501C123.288 47.5155 123.658 47.4146 124.028 47.4146C124.432 47.4146 124.802 47.4819 125.105 47.6501C125.407 47.7846 125.676 48.02 125.912 48.2555C126.114 48.5245 126.282 48.8272 126.416 49.1636C126.517 49.4999 126.584 49.9035 126.584 50.2735C126.584 50.3071 126.584 50.3408 126.584 50.3744C126.584 50.408 126.584 50.4753 126.584 50.509H122.279C122.246 50.8453 122.313 51.1144 122.447 51.3498ZM125.71 49.9708C125.676 49.7354 125.643 49.4999 125.542 49.2645C125.475 49.029 125.34 48.8272 125.205 48.6591C125.071 48.4909 124.903 48.3564 124.667 48.2555C124.465 48.1546 124.23 48.0873 123.961 48.0873C123.726 48.0873 123.49 48.1209 123.288 48.2218C123.086 48.3227 122.918 48.4573 122.75 48.6254C122.582 48.7936 122.481 48.9954 122.38 49.1972C122.279 49.4327 122.212 49.6681 122.178 49.9372H125.71V49.9708Z" fill="#416326"/>
<path d="M128.771 52.9642H127.963V47.5155H128.771V48.4573C128.939 48.1546 129.208 47.9191 129.477 47.7173C129.78 47.5155 130.15 47.4146 130.62 47.4146C130.957 47.4146 131.26 47.4819 131.495 47.5828C131.764 47.6837 131.966 47.8519 132.134 48.02C132.302 48.2218 132.437 48.4573 132.538 48.6927C132.639 48.9618 132.672 49.2645 132.672 49.5672V52.9306H131.865V49.769C131.865 49.2645 131.73 48.8609 131.461 48.5582C131.192 48.2555 130.822 48.1209 130.351 48.1209C130.116 48.1209 129.914 48.1546 129.712 48.2555C129.511 48.3227 129.342 48.4573 129.208 48.5918C129.073 48.7263 128.939 48.9281 128.871 49.13C128.804 49.3318 128.737 49.5672 128.737 49.8363V52.9642H128.771Z" fill="#416326"/>
<path d="M135.531 48.289C135.262 48.3563 135.026 48.4572 134.757 48.5917L134.522 47.9191C134.825 47.7845 135.127 47.6836 135.43 47.5827C135.733 47.5154 136.103 47.4482 136.506 47.4482C137.246 47.4482 137.818 47.6164 138.222 47.9863C138.625 48.3563 138.827 48.8944 138.827 49.6344V52.9642H138.053V52.157C137.852 52.3924 137.616 52.6278 137.28 52.796C136.944 52.9642 136.574 53.0651 136.069 53.0651C135.8 53.0651 135.565 53.0314 135.329 52.9642C135.094 52.8969 134.858 52.796 134.69 52.6278C134.488 52.4933 134.354 52.2915 134.219 52.0897C134.118 51.8879 134.051 51.6188 134.051 51.3497C134.051 51.047 134.118 50.8116 134.219 50.5762C134.32 50.3407 134.488 50.1725 134.69 50.038C134.892 49.9035 135.127 49.7689 135.43 49.7017C135.699 49.6344 136.035 49.6008 136.372 49.6008C136.708 49.6008 137.011 49.6344 137.28 49.668C137.549 49.7017 137.784 49.7689 138.053 49.8362V49.6344C138.053 49.1299 137.919 48.7599 137.616 48.5245C137.347 48.289 136.944 48.1545 136.405 48.1545C136.069 48.1881 135.8 48.2218 135.531 48.289ZM135.262 50.5089C134.993 50.7107 134.858 50.9798 134.858 51.3497C134.858 51.5179 134.892 51.6861 134.959 51.8206C135.026 51.9552 135.127 52.0561 135.262 52.157C135.396 52.2579 135.531 52.3251 135.699 52.3588C135.867 52.3924 136.035 52.426 136.204 52.426C136.439 52.426 136.674 52.3924 136.91 52.3251C137.145 52.2579 137.314 52.157 137.482 52.0224C137.65 51.8879 137.784 51.7533 137.885 51.5515C137.986 51.3834 138.02 51.1816 138.02 50.9461V50.408C137.818 50.3407 137.583 50.3071 137.314 50.2398C137.044 50.2062 136.742 50.1725 136.405 50.1725C135.935 50.2062 135.531 50.3071 135.262 50.5089Z" fill="#416326"/>
<path d="M141.35 52.9642H140.543V47.5155H141.35V48.4573C141.518 48.1546 141.787 47.9191 142.056 47.7173C142.359 47.5155 142.729 47.4146 143.2 47.4146C143.536 47.4146 143.839 47.4819 144.074 47.5828C144.343 47.6837 144.545 47.8519 144.713 48.02C144.881 48.2218 145.016 48.4573 145.117 48.6927C145.218 48.9618 145.251 49.2645 145.251 49.5672V52.9306H144.444V49.769C144.444 49.2645 144.31 48.8609 144.041 48.5582C143.771 48.2555 143.402 48.1209 142.931 48.1209C142.695 48.1209 142.493 48.1546 142.292 48.2555C142.09 48.3227 141.922 48.4573 141.787 48.5918C141.653 48.7263 141.518 48.9281 141.451 49.13C141.383 49.3318 141.316 49.5672 141.316 49.8363V52.9642H141.35Z" fill="#416326"/>
<path d="M151.978 53.1997C151.844 53.536 151.675 53.8051 151.406 54.0405C151.171 54.276 150.868 54.4441 150.532 54.545C150.196 54.646 149.826 54.7132 149.388 54.7132C148.917 54.7132 148.514 54.6459 148.077 54.5114C147.673 54.3769 147.269 54.2087 146.899 53.9396L147.269 53.3006C147.572 53.536 147.908 53.7042 148.245 53.8051C148.581 53.9396 148.951 53.9733 149.355 53.9733C149.96 53.9733 150.431 53.8051 150.801 53.4688C151.171 53.1324 151.339 52.6615 151.339 52.0225V51.3834C151.104 51.6861 150.801 51.9552 150.465 52.1907C150.128 52.4261 149.691 52.527 149.186 52.527C148.85 52.527 148.547 52.4597 148.245 52.3588C147.942 52.2579 147.673 52.0898 147.438 51.8543C147.202 51.6189 147 51.3498 146.866 51.0471C146.731 50.7444 146.664 50.3744 146.664 49.9708C146.664 49.5672 146.731 49.1972 146.866 48.8945C147 48.5918 147.202 48.2891 147.438 48.0873C147.673 47.8519 147.942 47.6837 148.245 47.5828C148.547 47.4482 148.884 47.4146 149.186 47.4146C149.456 47.4146 149.657 47.4482 149.893 47.5155C150.095 47.5828 150.296 47.6501 150.465 47.751C150.633 47.8519 150.801 47.9528 150.935 48.0873C151.07 48.2218 151.205 48.3564 151.305 48.5245V47.5492H152.113V52.0561C152.18 52.4597 152.113 52.8633 151.978 53.1997ZM151.238 49.2309C151.137 48.9954 150.969 48.7936 150.801 48.6591C150.599 48.4909 150.397 48.39 150.162 48.2891C149.926 48.1882 149.691 48.1546 149.422 48.1546C149.153 48.1546 148.917 48.1882 148.682 48.2891C148.447 48.3564 148.245 48.4909 148.077 48.6591C147.908 48.8272 147.774 49.0291 147.673 49.2309C147.572 49.4663 147.538 49.7017 147.538 50.0044C147.538 50.3071 147.606 50.5426 147.707 50.778C147.808 51.0135 147.942 51.2153 148.11 51.3834C148.278 51.5516 148.48 51.6861 148.716 51.7534C148.951 51.8543 149.187 51.8879 149.422 51.8879C149.691 51.8879 149.926 51.8543 150.162 51.7534C150.397 51.6525 150.599 51.5516 150.801 51.3834C151.003 51.2153 151.137 51.0135 151.238 50.8117C151.339 50.5762 151.406 50.3408 151.406 50.0381C151.406 49.7017 151.339 49.4663 151.238 49.2309Z" fill="#416326"/>
<path d="M155.072 48.289C154.803 48.3563 154.568 48.4572 154.299 48.5917L154.063 47.9191C154.366 47.7845 154.669 47.6836 154.972 47.5827C155.274 47.5154 155.644 47.4482 156.048 47.4482C156.788 47.4482 157.36 47.6164 157.763 47.9863C158.167 48.3563 158.369 48.8944 158.369 49.6344V52.9642H157.595V52.157C157.393 52.3924 157.158 52.6278 156.821 52.796C156.485 52.9642 156.115 53.0651 155.611 53.0651C155.342 53.0651 155.106 53.0314 154.871 52.9642C154.635 52.8969 154.4 52.796 154.232 52.6278C154.03 52.4933 153.895 52.2915 153.761 52.0897C153.626 51.8879 153.593 51.6188 153.593 51.3497C153.593 51.047 153.66 50.8116 153.761 50.5762C153.862 50.3407 154.03 50.1725 154.232 50.038C154.433 49.9035 154.669 49.7689 154.972 49.7017C155.241 49.6344 155.577 49.6008 155.913 49.6008C156.25 49.6008 156.552 49.6344 156.821 49.668C157.09 49.7017 157.326 49.7689 157.595 49.8362V49.6344C157.595 49.1299 157.46 48.7599 157.158 48.5245C156.889 48.289 156.485 48.1545 155.947 48.1545C155.644 48.1881 155.342 48.2218 155.072 48.289ZM154.837 50.5089C154.568 50.7107 154.433 50.9798 154.433 51.3497C154.433 51.5179 154.467 51.6861 154.534 51.8206C154.602 51.9552 154.702 52.0561 154.837 52.157C154.972 52.2579 155.106 52.3251 155.274 52.3588C155.442 52.3924 155.611 52.426 155.779 52.426C156.014 52.426 156.25 52.3924 156.485 52.3251C156.721 52.2579 156.889 52.157 157.057 52.0224C157.225 51.8879 157.36 51.7533 157.46 51.5515C157.561 51.3834 157.595 51.1816 157.595 50.9461V50.408C157.393 50.3407 157.158 50.3071 156.889 50.2398C156.62 50.2062 156.317 50.1725 155.981 50.1725C155.476 50.2062 155.106 50.3071 154.837 50.5089Z" fill="#416326"/>
<path d="M160.891 52.9642H160.084V47.5155H160.891V48.4573C161.059 48.1546 161.328 47.9191 161.597 47.7173C161.9 47.5155 162.27 47.4146 162.741 47.4146C163.077 47.4146 163.38 47.4819 163.615 47.5828C163.885 47.6837 164.086 47.8519 164.254 48.02C164.423 48.2218 164.557 48.4573 164.658 48.6927C164.759 48.9618 164.793 49.2645 164.793 49.5672V52.9306H163.985V49.769C163.985 49.2645 163.851 48.8609 163.582 48.5582C163.313 48.2555 162.943 48.1209 162.472 48.1209C162.236 48.1209 162.035 48.1546 161.833 48.2555C161.631 48.3227 161.463 48.4573 161.328 48.5918C161.194 48.7263 161.059 48.9281 160.992 49.13C160.925 49.3318 160.857 49.5672 160.857 49.8363V52.9642H160.891Z" fill="#416326"/>
<path d="M167.652 48.289C167.383 48.3563 167.147 48.4572 166.878 48.5917L166.643 47.9191C166.945 47.7845 167.248 47.6836 167.551 47.5827C167.853 47.5154 168.223 47.4482 168.627 47.4482C169.367 47.4482 169.939 47.6164 170.342 47.9863C170.746 48.3563 170.948 48.8944 170.948 49.6344V52.9642H170.174V52.157C169.972 52.3924 169.737 52.6278 169.401 52.796C169.064 52.9642 168.694 53.0651 168.19 53.0651C167.921 53.0651 167.685 53.0314 167.45 52.9642C167.214 52.8969 166.979 52.796 166.811 52.6278C166.609 52.4933 166.474 52.2915 166.34 52.0897C166.239 51.8879 166.172 51.6188 166.172 51.3497C166.172 51.047 166.239 50.8116 166.34 50.5762C166.441 50.3407 166.609 50.1725 166.811 50.038C167.013 49.9035 167.248 49.7689 167.551 49.7017C167.82 49.6344 168.156 49.6008 168.493 49.6008C168.829 49.6008 169.132 49.6344 169.401 49.668C169.67 49.7017 169.905 49.7689 170.174 49.8362V49.6344C170.174 49.1299 170.04 48.7599 169.737 48.5245C169.468 48.289 169.064 48.1545 168.56 48.1545C168.223 48.1881 167.921 48.2218 167.652 48.289ZM167.383 50.5089C167.114 50.7107 166.979 50.9798 166.979 51.3497C166.979 51.5179 167.013 51.6861 167.08 51.8206C167.147 51.9552 167.248 52.0561 167.383 52.157C167.517 52.2579 167.652 52.3251 167.82 52.3588C167.988 52.3924 168.156 52.426 168.324 52.426C168.56 52.426 168.795 52.3924 169.031 52.3251C169.266 52.2579 169.434 52.157 169.602 52.0224C169.771 51.8879 169.905 51.7533 170.006 51.5515C170.107 51.3834 170.141 51.1816 170.141 50.9461V50.408C169.939 50.3407 169.703 50.3071 169.434 50.2398C169.165 50.2062 168.862 50.1725 168.526 50.1725C168.055 50.2062 167.652 50.3071 167.383 50.5089Z" fill="#416326"/>
<path d="M173.47 52.9642H172.663V47.5155H173.47V48.4573C173.638 48.1546 173.908 47.9191 174.177 47.7173C174.479 47.5155 174.849 47.4146 175.32 47.4146C175.657 47.4146 175.959 47.4819 176.195 47.5828C176.464 47.6837 176.666 47.8519 176.834 48.02C177.002 48.2218 177.136 48.4573 177.237 48.6927C177.338 48.9618 177.372 49.2645 177.372 49.5672V52.9306H176.565V49.769C176.565 49.2645 176.43 48.8609 176.161 48.5582C175.892 48.2555 175.522 48.1209 175.051 48.1209C174.816 48.1209 174.614 48.1546 174.412 48.2555C174.21 48.3227 174.042 48.4573 173.908 48.5918C173.773 48.7263 173.638 48.9281 173.571 49.13C173.504 49.3318 173.437 49.5672 173.437 49.8363V52.9642H173.47Z" fill="#416326"/>
<path d="M183.258 49.6681V52.9979H182.417V45.5984H183.258V48.8609H187.496V45.5984H188.337V52.9643H187.496V49.6345H183.258V49.6681Z" fill="#416326"/>
<path d="M191.33 45.5984V52.9643H190.489V45.5984H191.33Z" fill="#416326"/>
<path d="M199.032 45.5984H199.94L196.779 53.0315H196.005L192.843 45.5984H193.785L196.409 51.9552L199.032 45.5984Z" fill="#416326"/>
<path d="M205.49 51.4171C205.49 51.7535 205.591 51.9889 205.759 52.1234C205.927 52.258 206.163 52.3252 206.432 52.3252C206.566 52.3252 206.701 52.3252 206.835 52.2916C206.97 52.258 207.104 52.2243 207.239 52.1571V52.8634C207.104 52.9307 206.936 52.9979 206.802 53.0316C206.634 53.0652 206.465 53.0988 206.264 53.0988C206.062 53.0988 205.826 53.0652 205.658 52.9979C205.456 52.9307 205.322 52.8634 205.154 52.7288C205.019 52.5943 204.918 52.4598 204.817 52.258C204.75 52.0562 204.716 51.8207 204.716 51.5517V48.2555H203.943V47.5492H204.716V45.9011H205.524V47.5492H207.239V48.2555H205.524V51.4171H205.49Z" fill="#416326"/>
<path d="M209.19 51.3498C209.291 51.5852 209.459 51.787 209.627 51.9216C209.795 52.0898 209.997 52.1907 210.232 52.2916C210.434 52.3588 210.67 52.4261 210.905 52.4261C211.275 52.4261 211.611 52.3588 211.88 52.2243C212.15 52.0898 212.385 51.888 212.62 51.6525L213.125 52.0898C212.856 52.3925 212.553 52.6615 212.183 52.8297C211.847 53.0315 211.41 53.0988 210.871 53.0988C210.501 53.0988 210.165 53.0315 209.829 52.897C209.492 52.7624 209.223 52.5606 208.954 52.3252C208.719 52.0898 208.517 51.787 208.349 51.4171C208.214 51.0807 208.147 50.6771 208.147 50.2735C208.147 49.8699 208.214 49.4999 208.349 49.1636C208.483 48.8272 208.652 48.5245 208.887 48.2555C209.122 47.9864 209.392 47.7846 209.728 47.6501C210.031 47.5155 210.401 47.4146 210.771 47.4146C211.174 47.4146 211.544 47.4819 211.847 47.6501C212.15 47.7846 212.419 48.02 212.654 48.2555C212.856 48.5245 213.024 48.8272 213.159 49.1636C213.259 49.4999 213.327 49.9035 213.327 50.2735C213.327 50.3071 213.327 50.3408 213.327 50.3744C213.327 50.408 213.327 50.4753 213.327 50.509H209.022C209.022 50.8453 209.089 51.1144 209.19 51.3498ZM212.452 49.9708C212.419 49.7354 212.385 49.4999 212.284 49.2645C212.217 49.029 212.082 48.8272 211.948 48.6591C211.813 48.4909 211.645 48.3564 211.41 48.2555C211.208 48.1546 210.972 48.0873 210.703 48.0873C210.468 48.0873 210.232 48.1209 210.031 48.2218C209.829 48.3227 209.661 48.4573 209.492 48.6254C209.324 48.7936 209.223 48.9954 209.122 49.1972C209.022 49.4327 208.954 49.6681 208.921 49.9372H212.452V49.9708Z" fill="#416326"/>
<path d="M215.513 52.9642H214.706V47.5155H215.513V48.9281C215.614 48.6927 215.748 48.4909 215.883 48.3227C216.017 48.1209 216.186 47.9864 216.387 47.8182C216.589 47.6501 216.791 47.5828 216.993 47.5155C217.228 47.4482 217.464 47.4146 217.733 47.4146V48.2891H217.666C217.363 48.2891 217.094 48.3564 216.825 48.4573C216.556 48.5582 216.32 48.7263 216.152 48.9281C215.95 49.13 215.816 49.399 215.681 49.7017C215.58 50.0044 215.513 50.3744 215.513 50.778V52.9642Z" fill="#416326"/>
<path d="M219.011 46.3384V45.4302H219.953V46.3384H219.011ZM219.044 52.9643V47.5156H219.852V52.9643H219.044Z" fill="#416326"/>
<path d="M222.543 52.9642H221.735V47.5155H222.543V48.4573C222.711 48.1546 222.98 47.9191 223.249 47.7173C223.552 47.5155 223.922 47.4146 224.392 47.4146C224.729 47.4146 225.031 47.4819 225.267 47.5828C225.536 47.6837 225.738 47.8519 225.906 48.02C226.074 48.2218 226.209 48.4573 226.31 48.6927C226.41 48.9618 226.444 49.2645 226.444 49.5672V52.9306H225.637V49.769C225.637 49.2645 225.502 48.8609 225.233 48.5582C224.964 48.2555 224.594 48.1209 224.123 48.1209C223.888 48.1209 223.686 48.1546 223.484 48.2555C223.283 48.3227 223.114 48.4573 222.98 48.5918C222.845 48.7263 222.711 48.9281 222.643 49.13C222.576 49.3318 222.509 49.5672 222.509 49.8363V52.9642H222.543Z" fill="#416326"/>
<path d="M229.303 51.4171C229.303 51.7535 229.404 51.9889 229.572 52.1234C229.74 52.258 229.976 52.3252 230.245 52.3252C230.379 52.3252 230.514 52.3252 230.648 52.2916C230.783 52.258 230.917 52.2243 231.052 52.1571V52.8634C230.917 52.9307 230.749 52.9979 230.615 53.0316C230.447 53.0652 230.278 53.0988 230.077 53.0988C229.875 53.0988 229.639 53.0652 229.471 52.9979C229.269 52.9307 229.135 52.8634 228.967 52.7288C228.832 52.5943 228.731 52.4598 228.63 52.258C228.563 52.0562 228.529 51.8207 228.529 51.5517V48.2555H227.756V47.5492H228.529V45.9011H229.337V47.5492H231.052V48.2555H229.303V51.4171Z" fill="#416326"/>
<path d="M233.036 51.3498C233.137 51.5852 233.305 51.787 233.474 51.9216C233.642 52.0898 233.844 52.1907 234.079 52.2916C234.281 52.3588 234.516 52.4261 234.752 52.4261C235.122 52.4261 235.458 52.3588 235.727 52.2243C235.996 52.0898 236.232 51.888 236.467 51.6525L236.971 52.0898C236.702 52.3925 236.4 52.6615 236.03 52.8297C235.693 53.0315 235.256 53.0988 234.718 53.0988C234.348 53.0988 234.012 53.0315 233.675 52.897C233.339 52.7624 233.07 52.5606 232.801 52.3252C232.565 52.0898 232.364 51.787 232.195 51.4171C232.061 51.0807 231.994 50.6771 231.994 50.2735C231.994 49.8699 232.061 49.4999 232.195 49.1636C232.33 48.8272 232.498 48.5245 232.734 48.2555C232.969 47.9864 233.238 47.7846 233.574 47.6501C233.877 47.5155 234.247 47.4146 234.617 47.4146C235.021 47.4146 235.391 47.4819 235.693 47.6501C235.996 47.7846 236.265 48.02 236.501 48.2555C236.702 48.5245 236.871 48.8272 237.005 49.1636C237.106 49.4999 237.173 49.9035 237.173 50.2735C237.173 50.3071 237.173 50.3408 237.173 50.3744C237.173 50.408 237.173 50.4753 237.173 50.509H232.868C232.834 50.8453 232.902 51.1144 233.036 51.3498ZM236.299 49.9708C236.265 49.7354 236.232 49.4999 236.131 49.2645C236.063 49.029 235.929 48.8272 235.794 48.6591C235.66 48.4909 235.492 48.3564 235.256 48.2555C235.054 48.1546 234.819 48.0873 234.55 48.0873C234.314 48.0873 234.079 48.1209 233.877 48.2218C233.675 48.3227 233.507 48.4573 233.339 48.6254C233.171 48.7936 233.07 48.9954 232.969 49.1972C232.868 49.4327 232.801 49.6681 232.767 49.9372H236.299V49.9708Z" fill="#416326"/>
<path d="M243.53 53.1997C243.396 53.536 243.228 53.8051 242.958 54.0405C242.723 54.276 242.42 54.4441 242.084 54.545C241.748 54.646 241.378 54.7132 240.94 54.7132C240.47 54.7132 240.066 54.6459 239.629 54.5114C239.225 54.3769 238.821 54.2087 238.452 53.9396L238.821 53.3006C239.124 53.536 239.461 53.7042 239.797 53.8051C240.133 53.9396 240.503 53.9733 240.907 53.9733C241.512 53.9733 241.983 53.8051 242.353 53.4688C242.723 53.1324 242.891 52.6615 242.891 52.0225V51.3834C242.656 51.6861 242.353 51.9552 242.017 52.1907C241.68 52.4261 241.243 52.527 240.739 52.527C240.402 52.527 240.1 52.4597 239.797 52.3588C239.494 52.2579 239.225 52.0898 238.99 51.8543C238.754 51.6189 238.552 51.3498 238.418 51.0471C238.283 50.7444 238.216 50.3744 238.216 49.9708C238.216 49.5672 238.283 49.1972 238.418 48.8945C238.552 48.5918 238.754 48.2891 238.99 48.0873C239.225 47.8519 239.494 47.6837 239.797 47.5828C240.1 47.4482 240.436 47.4146 240.739 47.4146C241.008 47.4146 241.209 47.4482 241.445 47.5155C241.647 47.5828 241.849 47.6501 242.017 47.751C242.185 47.8519 242.353 47.9528 242.488 48.0873C242.622 48.2218 242.757 48.3564 242.858 48.5245V47.5492H243.665V52.0561C243.732 52.4597 243.665 52.8633 243.53 53.1997ZM242.757 49.2309C242.656 48.9954 242.488 48.7936 242.319 48.6591C242.118 48.4909 241.916 48.39 241.68 48.2891C241.445 48.1882 241.209 48.1546 240.94 48.1546C240.671 48.1546 240.436 48.1882 240.2 48.2891C239.965 48.3564 239.763 48.4909 239.595 48.6591C239.427 48.8272 239.292 49.0291 239.191 49.2309C239.091 49.4663 239.057 49.7017 239.057 50.0044C239.057 50.3071 239.124 50.5426 239.225 50.778C239.326 51.0135 239.461 51.2153 239.629 51.3834C239.797 51.5516 239.999 51.6861 240.234 51.7534C240.47 51.8543 240.705 51.8879 240.94 51.8879C241.209 51.8879 241.445 51.8543 241.68 51.7534C241.916 51.6525 242.118 51.5516 242.319 51.3834C242.521 51.2153 242.656 51.0135 242.757 50.8117C242.858 50.5762 242.925 50.3408 242.925 50.0381C242.925 49.7017 242.891 49.4663 242.757 49.2309Z" fill="#416326"/>
<path d="M246.322 52.9642H245.515V47.5155H246.322V48.9281C246.423 48.6927 246.557 48.4909 246.692 48.3227C246.827 48.1209 246.995 47.9864 247.196 47.8182C247.398 47.6501 247.6 47.5828 247.802 47.5155C248.037 47.4482 248.273 47.4146 248.542 47.4146V48.2891H248.475C248.172 48.2891 247.903 48.3564 247.634 48.4573C247.365 48.5582 247.129 48.7263 246.961 48.9281C246.759 49.13 246.625 49.399 246.49 49.7017C246.389 50.0044 246.322 50.3744 246.322 50.778V52.9642Z" fill="#416326"/>
<path d="M250.627 48.289C250.358 48.3563 250.123 48.4572 249.854 48.5917L249.618 47.9191C249.921 47.7845 250.224 47.6836 250.526 47.5827C250.829 47.5154 251.199 47.4482 251.603 47.4482C252.342 47.4482 252.914 47.6164 253.318 47.9863C253.721 48.3563 253.923 48.8944 253.923 49.6344V52.9642H253.15V52.157C252.948 52.3924 252.712 52.6278 252.376 52.796C252.073 52.9978 251.67 53.0651 251.165 53.0651C250.896 53.0651 250.661 53.0314 250.425 52.9642C250.19 52.8969 249.954 52.796 249.786 52.6278C249.584 52.4933 249.45 52.2915 249.315 52.0897C249.214 51.8879 249.147 51.6188 249.147 51.3497C249.147 51.047 249.214 50.8116 249.315 50.5762C249.416 50.3407 249.584 50.1725 249.786 50.038C249.988 49.9035 250.224 49.7689 250.526 49.7017C250.795 49.6344 251.132 49.6008 251.468 49.6008C251.804 49.6008 252.107 49.6344 252.376 49.668C252.645 49.7017 252.881 49.7689 253.15 49.8362V49.6344C253.15 49.1299 253.015 48.7599 252.712 48.5245C252.443 48.289 252.04 48.1545 251.535 48.1545C251.165 48.1881 250.863 48.2218 250.627 48.289ZM250.358 50.5089C250.089 50.7107 249.954 50.9798 249.954 51.3497C249.954 51.5179 249.988 51.6861 250.055 51.8206C250.123 51.9552 250.224 52.0561 250.358 52.157C250.493 52.2579 250.627 52.3251 250.795 52.3588C250.963 52.3924 251.132 52.426 251.3 52.426C251.535 52.426 251.771 52.3924 252.006 52.3251C252.242 52.2579 252.41 52.157 252.578 52.0224C252.746 51.8879 252.881 51.7533 252.982 51.5515C253.082 51.3834 253.116 51.1816 253.116 50.9461V50.408C252.914 50.3407 252.679 50.3071 252.41 50.2398C252.141 50.2062 251.838 50.1725 251.502 50.1725C251.031 50.2062 250.627 50.3071 250.358 50.5089Z" fill="#416326"/>
<path d="M259.204 52.1234C259.103 52.3252 258.968 52.4934 258.8 52.6279C258.632 52.7624 258.43 52.8633 258.195 52.9642C257.959 53.0315 257.69 53.0651 257.421 53.0651C257.017 53.0651 256.647 52.9979 256.244 52.8633C255.84 52.7288 255.504 52.527 255.168 52.2916L255.571 51.7198C255.874 51.9552 256.177 52.1234 256.479 52.2243C256.782 52.3588 257.118 52.3925 257.455 52.3925C257.791 52.3925 258.06 52.3252 258.262 52.157C258.464 51.9889 258.565 51.7871 258.565 51.518V51.4843C258.565 51.3498 258.531 51.2489 258.464 51.148C258.396 51.0471 258.296 50.9798 258.161 50.8789C258.026 50.8117 257.892 50.7444 257.724 50.6771C257.556 50.6099 257.387 50.5762 257.219 50.509C257.017 50.4417 256.782 50.3744 256.58 50.3071C256.378 50.2399 256.177 50.139 256.008 50.0381C255.84 49.9372 255.706 49.769 255.571 49.6008C255.47 49.4327 255.403 49.2309 255.403 48.9618V48.9281C255.403 48.6927 255.437 48.4909 255.538 48.2891C255.638 48.0873 255.773 47.9191 255.908 47.7846C256.076 47.6501 256.278 47.5492 256.513 47.4819C256.748 47.4146 256.984 47.381 257.253 47.381C257.589 47.381 257.926 47.4482 258.262 47.5492C258.598 47.6501 258.901 47.8182 259.204 47.9864L258.834 48.5918C258.565 48.4236 258.329 48.2891 258.027 48.2218C257.724 48.1546 257.488 48.0873 257.219 48.0873C256.883 48.0873 256.647 48.1546 256.446 48.3227C256.244 48.4573 256.177 48.6591 256.177 48.8945V48.9281C256.177 49.0627 256.21 49.1636 256.278 49.2645C256.345 49.3654 256.446 49.4327 256.58 49.4999C256.715 49.5672 256.849 49.6345 257.017 49.7017C257.186 49.769 257.354 49.8026 257.556 49.8699C257.757 49.9372 257.959 50.0044 258.195 50.0717C258.396 50.139 258.598 50.2399 258.766 50.3744C258.935 50.509 259.069 50.6435 259.17 50.8117C259.271 50.9798 259.338 51.1816 259.338 51.4171V51.4507C259.338 51.7198 259.305 51.9552 259.204 52.1234Z" fill="#416326"/>
<path d="M260.885 46.3384V45.4302H261.827V46.3384H260.885ZM260.919 52.9643V47.5156H261.726V52.9643H260.919Z" fill="#416326"/>
<path d="M18.7201 15.395C18.7537 15.3613 18.7873 15.3277 18.821 15.2941C18.8883 15.2268 18.9892 15.1259 19.0564 15.0586L19.0901 15.025C19.7627 14.4196 20.4354 13.8478 21.1417 13.3769L12.7332 4.96838C5.53551 9.71079 0.355857 17.8166 0.154053 29.2858C0.187687 30.7994 0.288589 32.2457 0.490394 33.6583L18.7201 15.395Z" fill="#9FBC2E"/>
<path d="M26.1195 11.0561C35.4361 8.66812 44.7864 16.3367 45.5264 25.4179L56.0875 14.8904C48.688 0.932277 31.0301 -3.20472 17.5092 2.44581L26.1195 11.0561Z" fill="#A4C944"/>
<path d="M41.5912 36.6854C41.3894 36.9208 41.154 37.1563 40.9185 37.3917C40.0104 38.2998 36.3779 41.9323 33.519 44.7912L44.0129 55.2851C52.7578 50.9463 59.35 42.2687 59.5855 29.2522C59.5182 25.8888 59.0473 22.8281 58.2065 20.0365L41.5912 36.6854Z" fill="#416326"/>
<path d="M26.1532 44.8248C23.967 42.7395 21.7808 40.6206 19.8636 38.4343L19.6955 38.2662C16.7357 34.8355 14.4822 31.2703 14.1122 27.3015L1.86938 39.5443C4.39194 46.9774 9.50433 52.2243 15.693 55.285L26.1532 44.8248Z" fill="#609045"/>
<path d="M29.8865 48.4573C29.8529 48.4237 29.8529 48.4237 29.8865 48.4573L20.9735 57.3367C26.7249 58.9848 32.9809 58.9848 38.766 57.3367L29.8865 48.4573Z" fill="#9FBC2E"/>
<path d="M22.7562 18.6575L22.2854 19.1284C18.3838 23.2317 18.4511 29.7231 22.4535 33.7256C22.5544 33.8265 27.1959 38.468 29.853 41.1251L35.4699 35.5082L38.0261 32.952C45.9638 23.4672 32.3756 9.7781 22.7562 18.6575ZM29.8867 30.0595C27.9023 30.0595 26.2878 28.445 26.2878 26.4606C26.2878 24.4762 27.9023 22.8618 29.8867 22.8618C31.8711 22.8618 33.4855 24.4762 33.4855 26.4606C33.4855 28.445 31.8711 30.0595 29.8867 30.0595Z" fill="#9FBC2E"/>
</svg>
