<svg width="130" height="22" viewBox="0 0 130 22" fill="none"
                            xmlns="http://www.w3.org/2000/svg">
                            <path
                                d="M11.2162 6.72754C8.93928 6.72754 7.10962 8.5572 7.10962 10.8341C7.10962 13.111 8.93928 14.9407 11.2162 14.9407C13.4931 14.9407 15.3228 13.111 15.3228 10.8341C15.3228 8.5572 13.4931 6.72754 11.2162 6.72754ZM11.2162 13.5176C9.75247 13.5176 8.53269 12.3385 8.53269 10.8341C8.53269 9.37039 9.71181 8.15061 11.2162 8.15061C12.6799 8.15061 13.8997 9.32973 13.8997 10.8341C13.859 12.2978 12.6799 13.5176 11.2162 13.5176Z"
                                fill="white" />
                            <path
                                d="M15.4853 5.58936C14.9568 5.58936 14.5095 6.03661 14.5095 6.56518C14.5095 7.09375 14.9568 7.541 15.4853 7.541C16.0139 7.541 16.4612 7.09375 16.4612 6.56518C16.4612 5.99595 16.0139 5.58936 15.4853 5.58936Z"
                                fill="white" />
                            <path
                                d="M11.2162 0.547363C5.52393 0.547363 0.929443 5.14185 0.929443 10.8341C0.929443 16.5264 5.52393 21.1209 11.2162 21.1209C16.9085 21.1209 21.503 16.5264 21.503 10.8341C21.4623 5.14185 16.8678 0.547363 11.2162 0.547363ZM17.7217 14.0869C17.681 14.8594 17.5591 15.3067 17.4371 15.5913C17.1525 16.2825 16.6239 16.8517 15.9327 17.0957C15.6481 17.2176 15.2415 17.3396 14.4283 17.3803C13.5745 17.4209 13.3305 17.4209 11.1756 17.4209C9.02062 17.4209 8.77667 17.4209 7.92283 17.3803C7.1503 17.3396 6.70305 17.2176 6.41844 17.0957C6.0525 16.9737 5.76789 16.7704 5.48327 16.4858C5.19866 16.2418 4.99536 15.9165 4.87338 15.5506C4.75141 15.266 4.62943 14.8594 4.58877 14.0462C4.54811 13.1924 4.54811 12.9484 4.54811 10.7935C4.54811 8.63854 4.54811 8.39459 4.58877 7.54075C4.62943 6.76822 4.75141 6.32097 4.87338 6.03636C4.99536 5.67042 5.19866 5.38581 5.48327 5.10119C5.72723 4.81658 6.0525 4.61328 6.41844 4.4913C6.70305 4.36933 7.10964 4.24735 7.92283 4.20669C8.77667 4.16603 9.02062 4.16603 11.1756 4.16603C13.3305 4.16603 13.5745 4.16603 14.4283 4.20669C15.2008 4.24735 15.6481 4.36933 15.9327 4.4913C16.2986 4.61328 16.5832 4.81658 16.8679 5.10119C17.1525 5.34515 17.3558 5.67042 17.4777 6.03636C17.5997 6.32097 17.7217 6.72756 17.7624 7.54075C17.803 8.39459 17.803 8.63854 17.803 10.7935C17.7624 12.9891 17.7624 13.233 17.7217 14.0869Z"
                                fill="white" />
                            <path
                                d="M35.8562 13.8023C36.0595 13.8836 36.3848 14.0056 36.8321 14.2089C35.8969 15.144 34.6771 15.5913 33.1727 15.5913C31.6277 15.5913 30.4079 15.1034 29.4727 14.1682C28.5376 13.233 28.0903 11.9726 28.0903 10.4276C28.0903 8.84185 28.5782 7.58142 29.5134 6.56494C30.4486 5.54846 31.6683 5.06055 33.2134 5.06055C34.6771 5.06055 35.8562 5.5078 36.7507 6.36164C37.6452 7.25614 38.0925 8.3946 38.0925 9.85833C38.0925 10.6715 37.8892 11.3627 37.4419 11.932C36.9947 12.5012 36.4255 12.7858 35.7343 12.7858C34.9617 12.7858 34.3925 12.6232 34.0672 12.2979C33.6606 12.6638 33.1727 12.8671 32.6035 12.8671C32.0749 12.8671 31.6683 12.7451 31.3431 12.4605C31.0178 12.1759 30.8552 11.81 30.8552 11.3221C30.8552 10.7122 31.0991 10.2649 31.6277 9.93965C32.1563 9.61438 32.8475 9.45174 33.742 9.45174C33.6606 8.76054 33.376 8.3946 32.8881 8.3946C32.4002 8.3946 31.9936 8.51658 31.6683 8.80119L31.3024 8.06933C31.709 7.78471 32.1969 7.62208 32.7661 7.62208C34.1079 7.62208 34.7584 8.3946 34.7584 9.93965V11.688C35.1244 11.932 35.409 12.0539 35.6529 12.0539C36.5474 12.0539 36.9947 11.3221 36.9947 9.85833C36.9947 8.76054 36.6288 7.82537 35.8969 7.05285C35.165 6.32098 34.2705 5.95505 33.1321 5.95505C31.9123 5.95505 30.9365 6.36164 30.164 7.21549C29.4321 8.06933 29.0255 9.12647 29.0255 10.4682C29.0255 11.7693 29.3914 12.7858 30.1233 13.599C30.8552 14.3715 31.8716 14.7781 33.0914 14.7781C34.3112 14.6968 35.2057 14.4122 35.8562 13.8023ZM33.742 11.7693V10.0616H33.376C32.4409 10.0616 31.953 10.4276 31.953 11.2001C31.953 11.444 32.0343 11.688 32.2376 11.8506C32.4409 12.0133 32.6442 12.0946 32.9288 12.0946C33.2134 12.1352 33.498 12.0133 33.742 11.7693Z"
                                fill="white" />
                            <path
                                d="M38.9055 17.6652V16.4454C39.8407 16.4454 40.4912 16.2828 40.8572 15.9981C41.2231 15.7135 41.3857 15.2256 41.3857 14.5751V8.02894H39.8407V6.89048H42.7681V14.5751C42.7681 15.6322 42.4429 16.4454 41.833 16.9333C41.1824 17.4212 40.2066 17.6652 38.9055 17.6652ZM41.8736 3.92236C42.1176 3.92236 42.3209 4.00368 42.4835 4.16632C42.6462 4.32895 42.7275 4.53225 42.7275 4.77621C42.7275 5.02016 42.6462 5.22346 42.4835 5.38609C42.3209 5.54873 42.1176 5.63005 41.8736 5.63005C41.6297 5.63005 41.4264 5.54873 41.2638 5.38609C41.1011 5.22346 41.0198 5.02016 41.0198 4.77621C41.0198 4.53225 41.1011 4.32895 41.2638 4.16632C41.4264 4.00368 41.6297 3.92236 41.8736 3.92236Z"
                                fill="white" />
                            <path
                                d="M49.5582 13.7209C48.9889 14.4121 48.1757 14.7374 47.0373 14.7374C46.4274 14.7374 45.8988 14.5341 45.4516 14.0869C45.0043 13.6396 44.801 13.111 44.801 12.4198C44.801 11.6473 45.1263 10.9561 45.8175 10.4275C46.5087 9.89896 47.3626 9.61434 48.4604 9.61434C48.745 9.61434 49.0702 9.69566 49.4362 9.81764C49.4362 8.5572 48.8669 7.94732 47.7691 7.94732C46.9153 7.94732 46.2648 8.19127 45.7768 8.63852L45.2076 7.50006C45.4516 7.29677 45.8175 7.09347 46.3054 6.97149C46.7527 6.80886 47.1999 6.72754 47.6065 6.72754C48.745 6.72754 49.5582 6.97149 50.0461 7.50006C50.5746 8.02863 50.8186 8.84182 50.8186 9.93962V12.7044C50.8186 13.3956 51.0219 13.8429 51.4285 14.0462V14.7374C50.8592 14.7374 50.4527 14.6561 50.168 14.4934C49.8834 14.3715 49.6801 14.0869 49.5582 13.7209ZM49.4362 10.8341C48.9889 10.7528 48.7043 10.6715 48.5417 10.6715C47.8505 10.6715 47.2812 10.8341 46.834 11.2001C46.3867 11.566 46.1834 11.9726 46.1834 12.4605C46.1834 13.2737 46.6713 13.6803 47.6065 13.6803C48.2977 13.6803 48.9076 13.355 49.4362 12.7044V10.8341Z"
                                fill="white" />
                            <path
                                d="M57.9748 14.6155L55.5353 10.7529L54.3155 11.9727V14.6155H52.9331V3.67822H54.3155V10.4683L57.2836 6.84964H58.91L56.4298 9.7771L59.4792 14.5749H57.9748V14.6155Z"
                                fill="white" />
                            <path
                                d="M64.8462 13.7209C64.277 14.4121 63.4638 14.7374 62.3254 14.7374C61.7155 14.7374 61.1869 14.5341 60.7397 14.0869C60.2924 13.6396 60.0891 13.111 60.0891 12.4198C60.0891 11.6473 60.4144 10.9561 61.1056 10.4275C61.7968 9.89896 62.6506 9.61434 63.7484 9.61434C64.0331 9.61434 64.3583 9.69566 64.7243 9.81764C64.7243 8.5572 64.155 7.94732 63.0572 7.94732C62.2034 7.94732 61.5528 8.19127 61.0649 8.63852L60.4957 7.50006C60.7397 7.29677 61.1056 7.09347 61.5935 6.97149C62.0408 6.80886 62.488 6.72754 62.8946 6.72754C64.0331 6.72754 64.8462 6.97149 65.3342 7.50006C65.8627 8.02863 66.1067 8.84182 66.1067 9.93962V12.7044C66.1067 13.3956 66.31 13.8429 66.7166 14.0462V14.7374C66.1473 14.7374 65.7407 14.6561 65.4561 14.4934C65.1715 14.3715 64.9682 14.0869 64.8462 13.7209ZM64.7243 10.8341C64.277 10.7528 63.9924 10.6715 63.8298 10.6715C63.1386 10.6715 62.5693 10.8341 62.1221 11.2001C61.6748 11.566 61.4715 11.9726 61.4715 12.4605C61.4715 13.2737 61.9594 13.6803 62.8946 13.6803C63.5858 13.6803 64.1957 13.355 64.7243 12.7044V10.8341Z"
                                fill="white" />
                            <path
                                d="M72.4495 8.19127C72.1649 7.98797 71.8396 7.866 71.555 7.866C71.0671 7.866 70.6605 8.10995 70.2945 8.5572C69.9286 9.00445 69.766 9.53302 69.766 10.1836V14.6154H68.3835V6.89018H69.766V8.10995C70.2539 7.17479 71.0264 6.72754 72.0022 6.72754C72.2462 6.72754 72.6121 6.7682 73.0594 6.84952L72.4495 8.19127Z"
                                fill="white" />
                            <path
                                d="M74.4824 7.94756H73.5879V6.84976H74.4824V5.2234L75.8648 4.69482V6.84976H77.9791V7.94756H75.8648V11.8102C75.8648 12.4607 75.9868 12.908 76.1901 13.1926C76.3934 13.4772 76.7593 13.5992 77.2472 13.5992C77.6132 13.5992 77.9791 13.5179 78.345 13.3146L78.5483 14.5344C77.9791 14.697 77.3692 14.7376 76.678 14.7376C76.0681 14.7376 75.5395 14.4937 75.1329 14.0464C74.7263 13.5992 74.4824 13.03 74.4824 12.3388V7.94756Z"
                                fill="white" />
                            <path
                                d="M84.2813 13.7209C83.7121 14.4121 82.8989 14.7374 81.7604 14.7374C81.1505 14.7374 80.622 14.5341 80.1747 14.0869C79.7275 13.6396 79.5242 13.111 79.5242 12.4198C79.5242 11.6473 79.8494 10.9561 80.5407 10.4275C81.2319 9.89896 82.0857 9.61434 83.1835 9.61434C83.4681 9.61434 83.7934 9.69566 84.1593 9.81764C84.1593 8.5572 83.5901 7.94732 82.4923 7.94732C81.6384 7.94732 80.9879 8.19127 80.5 8.63852L79.9308 7.50006C80.1747 7.29677 80.5406 7.09347 81.0286 6.97149C81.4758 6.80886 81.9231 6.72754 82.3297 6.72754C83.4681 6.72754 84.2813 6.97149 84.7692 7.50006C85.2978 8.02863 85.5417 8.84182 85.5417 9.93962V12.7044C85.5417 13.3956 85.745 13.8429 86.1516 14.0462V14.7374C85.5824 14.7374 85.1758 14.6561 84.8912 14.4934C84.5659 14.3715 84.4033 14.0869 84.2813 13.7209ZM84.1187 10.8341C83.6714 10.7528 83.3868 10.6715 83.2242 10.6715C82.5329 10.6715 81.9637 10.8341 81.5165 11.2001C81.0692 11.566 80.8659 11.9726 80.8659 12.4605C80.8659 13.2737 81.3538 13.6803 82.289 13.6803C82.9802 13.6803 83.5901 13.355 84.1187 12.7044V10.8341Z"
                                fill="white" />
                            <path d="M86.6394 16.4454V15.5103H94.4866V16.4454H86.6394Z" fill="white" />
                            <path
                                d="M94.9341 14.168L95.422 12.8669C96.1945 13.3549 96.8044 13.6395 97.2923 13.6395C98.1462 13.6395 98.5527 13.2735 98.5527 12.5823C98.5527 12.0538 98.1462 11.6472 97.333 11.2812C96.6824 10.9966 96.2758 10.7527 96.0725 10.6307C95.8692 10.4681 95.6659 10.3054 95.5033 10.1021C95.3407 9.89883 95.2187 9.69553 95.1374 9.49223C95.0561 9.28894 95.0154 9.04498 95.0154 8.80103C95.0154 8.15048 95.2594 7.66257 95.7066 7.29664C96.1539 6.9307 96.7637 6.76807 97.5363 6.76807C98.1055 6.76807 98.7967 6.9307 99.6912 7.29664L99.2846 8.55707C98.756 8.10982 98.1868 7.90653 97.6582 7.90653C97.333 7.90653 97.0484 7.98784 96.8451 8.15048C96.6011 8.31312 96.5198 8.51641 96.5198 8.71971C96.5198 9.20762 96.8044 9.61421 97.3736 9.85817L98.3495 10.3054C98.9593 10.59 99.4066 10.8746 99.6506 11.2406C99.9352 11.6065 100.057 12.0538 100.057 12.5823C100.057 13.2735 99.8132 13.8021 99.3253 14.2087C98.8374 14.6153 98.1462 14.8186 97.2923 14.8186C96.4385 14.7779 95.6659 14.5746 94.9341 14.168Z"
                                fill="white" />
                            <path
                                d="M107.985 10.8748H102.415C102.415 11.7693 102.659 12.4605 103.147 12.9484C103.594 13.355 104.163 13.5989 104.855 13.5989C105.627 13.5989 106.278 13.355 106.806 12.9077L107.376 13.8836C107.172 14.0869 106.847 14.2901 106.4 14.4528C105.831 14.6561 105.221 14.7374 104.57 14.7374C103.594 14.7374 102.781 14.4121 102.09 13.7616C101.317 13.0297 100.951 12.0539 100.951 10.8341C100.951 9.57368 101.358 8.51654 102.131 7.74402C102.822 7.05281 103.635 6.72754 104.611 6.72754C105.709 6.72754 106.562 7.05281 107.213 7.6627C107.823 8.27259 108.107 9.04512 108.107 10.0616C108.107 10.3462 108.067 10.6308 107.985 10.8748ZM104.651 7.866C104.042 7.866 103.513 8.06929 103.106 8.47589C102.7 8.84182 102.496 9.32973 102.415 9.89896H106.725C106.725 9.32973 106.562 8.88248 106.196 8.51654C105.831 8.06929 105.302 7.866 104.651 7.866Z"
                                fill="white" />
                            <path
                                d="M114.328 14.6155V9.73645C114.328 9.16722 114.166 8.71996 113.881 8.35403C113.597 8.02876 113.19 7.86612 112.661 7.86612C112.336 7.86612 112.011 7.94744 111.645 8.15074C111.32 8.35403 111.035 8.55733 110.872 8.84194V14.6155H109.49V3.67822H110.872V7.70348C111.076 7.41887 111.36 7.17491 111.767 6.97162C112.174 6.76832 112.58 6.687 113.027 6.687C113.841 6.687 114.491 6.97162 114.938 7.50019C115.386 8.02876 115.63 8.76062 115.63 9.73645V14.6155H114.328Z"
                                fill="white" />
                            <path
                                d="M122.013 13.7209C121.444 14.4121 120.631 14.7374 119.492 14.7374C118.882 14.7374 118.354 14.5341 117.907 14.0869C117.459 13.6396 117.256 13.111 117.256 12.4198C117.256 11.6473 117.581 10.9561 118.273 10.4275C118.964 9.89896 119.818 9.61434 120.915 9.61434C121.2 9.61434 121.525 9.69566 121.891 9.81764C121.891 8.5572 121.322 7.94732 120.224 7.94732C119.37 7.94732 118.72 8.19127 118.232 8.63852L117.663 7.50006C117.907 7.29677 118.273 7.09347 118.76 6.97149C119.208 6.80886 119.655 6.72754 120.062 6.72754C121.2 6.72754 122.013 6.97149 122.501 7.50006C123.03 8.02863 123.274 8.84182 123.274 9.93962V12.7044C123.274 13.3956 123.477 13.8429 123.884 14.0462V14.7374C123.314 14.7374 122.908 14.6561 122.623 14.4934C122.339 14.3715 122.135 14.0869 122.013 13.7209ZM121.891 10.8341C121.444 10.7528 121.159 10.6715 120.997 10.6715C120.306 10.6715 119.736 10.8341 119.289 11.2001C118.842 11.566 118.639 11.9726 118.639 12.4605C118.639 13.2737 119.126 13.6803 120.062 13.6803C120.753 13.6803 121.363 13.355 121.891 12.7044V10.8341Z"
                                fill="white" />
                            <path
                                d="M125.916 7.94756H125.022V6.84976H125.916V5.2234L127.299 4.69482V6.84976H129.413V7.94756H127.299V11.8102C127.299 12.4607 127.421 12.908 127.624 13.1926C127.827 13.4772 128.193 13.5992 128.681 13.5992C129.047 13.5992 129.413 13.5179 129.779 13.3146L129.982 14.5344C129.413 14.697 128.803 14.7376 128.112 14.7376C127.502 14.7376 126.973 14.4937 126.567 14.0464C126.16 13.5992 125.916 13.03 125.916 12.3388V7.94756Z"
                                fill="white" />
                        </svg>