<svg width="494" height="26" viewBox="0 0 494 26" fill="none"
                            xmlns="http://www.w3.org/2000/svg">
                            <path
                                d="M62.2814 9.72803C60.0045 9.72803 58.1748 11.5577 58.1748 13.8346C58.1748 16.1115 60.0045 17.9412 62.2814 17.9412C64.5583 17.9412 66.388 16.1115 66.388 13.8346C66.388 11.5577 64.5583 9.72803 62.2814 9.72803ZM62.2814 16.5181C60.8177 16.5181 59.5979 15.339 59.5979 13.8346C59.5979 12.3709 60.777 11.1511 62.2814 11.1511C63.7858 11.1511 64.9649 12.3302 64.9649 13.8346C64.9649 15.2983 63.7451 16.5181 62.2814 16.5181Z"
                                fill="white" />
                            <path
                                d="M66.5505 8.58984C66.022 8.58984 65.5747 9.03709 65.5747 9.56566C65.5747 10.0942 66.022 10.5415 66.5505 10.5415C67.0791 10.5415 67.5263 10.0942 67.5263 9.56566C67.5263 8.99643 67.0791 8.58984 66.5505 8.58984Z"
                                fill="white" />
                            <path
                                d="M62.2814 3.54785C56.5891 3.54785 51.9946 8.14234 51.9946 13.8346C51.9946 19.5269 56.5891 24.1214 62.2814 24.1214C67.9737 24.1214 72.5682 19.5269 72.5682 13.8346C72.5682 8.14234 67.9737 3.54785 62.2814 3.54785ZM68.8275 17.0874C68.7869 17.8599 68.6649 18.3071 68.5429 18.5918C68.2583 19.283 67.7297 19.8522 67.0385 20.0961C66.7539 20.2181 66.3473 20.3401 65.5341 20.3808C64.6803 20.4214 64.4363 20.4214 62.2814 20.4214C60.1265 20.4214 59.8825 20.4214 59.0287 20.3808C58.2561 20.3401 57.8089 20.2181 57.5243 20.0961C57.1583 19.9742 56.8737 19.7709 56.5891 19.4863C56.3045 19.2423 56.1012 18.917 55.9792 18.5511C55.8572 18.2665 55.7353 17.8599 55.6946 17.0467C55.6539 16.1929 55.654 15.9489 55.654 13.794C55.654 11.639 55.6539 11.3951 55.6946 10.5412C55.7353 9.76871 55.8572 9.32146 55.9792 9.03684C56.1012 8.67091 56.3045 8.3863 56.5891 8.10168C56.8331 7.81707 57.1583 7.61377 57.5243 7.49179C57.8089 7.36982 58.2155 7.24784 59.0287 7.20718C59.8825 7.16652 60.1265 7.16652 62.2814 7.16652C64.4363 7.16652 64.6803 7.16652 65.5341 7.20718C66.3067 7.24784 66.7539 7.36982 67.0385 7.49179C67.4045 7.61377 67.6891 7.81707 67.9737 8.10168C68.2583 8.34564 68.4616 8.67091 68.5836 9.03684C68.7056 9.32146 68.8275 9.72805 68.8682 10.5412C68.9089 11.3951 68.9088 11.639 68.9088 13.794C68.8682 15.9896 68.8682 16.2335 68.8275 17.0874Z"
                                fill="white" />
                            <path
                                d="M36.8288 3.54785C31.1365 3.54785 26.542 8.14234 26.542 13.8346C26.542 19.5269 31.1365 24.1214 36.8288 24.1214C42.5211 24.1214 47.1156 19.5269 47.1156 13.8346C47.1156 8.14234 42.5211 3.54785 36.8288 3.54785ZM39.3903 9.0775C39.3903 9.15882 39.309 9.24014 39.2277 9.24014H37.8046C37.4387 9.24014 37.1541 9.52475 37.1541 9.89069V11.3951H39.187C39.309 11.3951 39.3903 11.4764 39.3496 11.5984L39.187 13.7127C39.187 13.794 39.1057 13.8753 39.0244 13.8753H37.1947V20.828C37.1947 20.9093 37.1134 20.9907 37.0321 20.9907H34.4705C34.3892 20.9907 34.3079 20.9093 34.3079 20.828V13.9159V13.794H33.0475C32.9661 13.794 32.8848 13.7127 32.8848 13.6313V11.5171C32.8848 11.4357 32.9661 11.3544 33.0475 11.3544H34.3079V9.32146C34.3079 7.89839 35.4464 6.75993 36.8694 6.75993H39.2683C39.3496 6.75993 39.431 6.84125 39.431 6.92257V9.0775H39.3903Z"
                                fill="white" />
                            <path
                                d="M347.547 3.54785C341.854 3.54785 337.26 8.14234 337.26 13.8346C337.26 19.5269 341.854 24.1214 347.547 24.1214C353.239 24.1214 357.833 19.5269 357.833 13.8346C357.833 8.14234 353.239 3.54785 347.547 3.54785ZM343.318 15.7456H342.464L342.017 13.6313C341.895 13.1028 341.814 12.6962 341.773 12.2083C341.692 12.6962 341.61 13.1028 341.488 13.6313L340.96 15.7456H340.065L338.967 11.2731H339.821L340.228 13.3061C340.35 13.8346 340.431 14.4039 340.513 14.8511C340.594 14.3632 340.716 13.8346 340.838 13.2654L341.326 11.2324H342.18L342.627 13.3061C342.749 13.8346 342.83 14.3225 342.911 14.8104C342.993 14.3225 343.115 13.794 343.237 13.2654L343.684 11.2324H344.497L343.318 15.7456ZM346.733 15.7456H345.839L344.741 11.2731H345.595L346.001 13.3061C346.123 13.8346 346.205 14.4039 346.286 14.8511C346.367 14.3632 346.489 13.8346 346.611 13.2654L347.099 11.2324H347.953L348.4 13.3061C348.522 13.8346 348.604 14.3225 348.685 14.8104C348.766 14.3225 348.888 13.794 348.97 13.2654L349.417 11.2324H350.23L349.01 15.705H348.116L347.669 13.5907C347.547 13.0621 347.465 12.6555 347.425 12.1676C347.343 12.6555 347.262 13.0621 347.14 13.5907L346.733 15.7456ZM351.043 23.4709C350.677 23.5928 350.311 23.7148 349.945 23.7961L349.01 21.1533L347.425 22.4137L347.628 16.1115L352.06 20.6247L350.067 20.7874L351.043 23.4709ZM354.133 15.7456L353.686 13.6313C353.564 13.1028 353.483 12.6962 353.442 12.2083C353.361 12.6962 353.279 13.1028 353.158 13.6313L352.629 15.7456H351.734L350.637 11.2731H351.49L351.897 13.3061C352.019 13.8346 352.1 14.4039 352.182 14.8511C352.263 14.3632 352.385 13.8346 352.507 13.2654L352.995 11.2324H353.849L354.296 13.3061C354.418 13.8346 354.499 14.3225 354.581 14.8104C354.662 14.3225 354.784 13.794 354.906 13.2654L355.353 11.2324H356.166L354.947 15.705H354.133V15.7456Z"
                                fill="white" />
                            <path
                                d="M88.0188 17.7785H86.7177V16.8027H86.6771C86.1891 17.5345 85.2133 17.9411 84.3188 17.9411C82.2045 17.9411 80.8628 16.3554 80.8628 14.3631C80.8628 12.3302 82.2452 10.7851 84.3188 10.7851C85.2946 10.7851 86.2298 11.2324 86.6771 11.9236H86.7177V6.88184H88.0188V17.7785ZM86.7584 14.3631C86.7584 12.9807 85.9045 12.0049 84.5221 12.0049C83.1397 12.0049 82.2859 12.9807 82.2859 14.3631C82.2859 15.7455 83.1397 16.7214 84.5221 16.7214C85.8639 16.7214 86.7584 15.7455 86.7584 14.3631Z"
                                fill="white" />
                            <path
                                d="M90.8648 7.57324C91.3934 7.57324 91.8 8.02049 91.8 8.5084C91.8 9.03697 91.3528 9.44357 90.8648 9.44357C90.3363 9.44357 89.9297 8.99631 89.9297 8.5084C89.9297 7.97983 90.3769 7.57324 90.8648 7.57324ZM90.255 10.948H91.5561V17.7787H90.255V10.948Z"
                                fill="white" />
                            <path
                                d="M93.7515 10.9478H95.0526V12.0049H95.0932C95.4185 11.2731 96.2724 10.7852 97.3295 10.7852C98.6712 10.7852 99.8097 11.5577 99.8097 13.3873V17.7785H98.5086V13.7533C98.5086 12.4928 97.7767 12.0049 96.9636 12.0049C95.8658 12.0049 95.0526 12.6961 95.0526 14.2819V17.7785H93.7515V10.9478Z"
                                fill="white" />
                            <path
                                d="M101.883 6.88184H103.184V13.9159L106.112 10.9478H107.901L104.729 14.0785L108.185 17.7785H106.315L103.184 14.2412V17.7785H101.883V6.88184Z"
                                fill="white" />
                            <path
                                d="M110.462 14.8511C110.462 16.0302 111.56 16.8434 112.78 16.8434C113.552 16.8434 114.162 16.4368 114.65 15.8269L115.626 16.5588C114.894 17.4939 113.918 17.9412 112.617 17.9412C110.462 17.9412 109.121 16.3961 109.121 14.3632C109.121 12.3302 110.584 10.7852 112.658 10.7852C115.057 10.7852 115.992 12.6148 115.992 14.3632V14.8104H110.462V14.8511ZM114.528 13.7939C114.488 12.6555 113.878 11.8016 112.577 11.8016C111.316 11.8016 110.462 12.8994 110.462 13.7939H114.528Z"
                                fill="white" />
                            <path
                                d="M121.237 12.6556C120.953 12.2897 120.505 11.9644 119.855 11.9644C119.245 11.9644 118.716 12.249 118.716 12.7369C118.716 13.5501 119.895 13.6721 120.465 13.7941C121.603 14.0787 122.457 14.4853 122.457 15.7864C122.457 17.3314 121.034 17.9413 119.692 17.9413C118.554 17.9413 117.741 17.6567 117.049 16.7215L118.025 15.9083C118.432 16.3149 118.92 16.7215 119.692 16.7215C120.343 16.7215 121.075 16.4369 121.075 15.8677C121.075 15.0952 119.977 14.9325 119.448 14.8105C118.35 14.5259 117.375 14.16 117.375 12.8589C117.375 11.4358 118.676 10.7446 119.977 10.7446C120.871 10.7446 121.806 11.0699 122.294 11.8831L121.237 12.6556Z"
                                fill="white" />
                            <path
                                d="M130.995 17.7785H129.694V16.8027H129.654C129.166 17.5345 128.19 17.9411 127.295 17.9411C125.181 17.9411 123.839 16.3554 123.839 14.3631C123.839 12.3302 125.222 10.7851 127.295 10.7851C128.271 10.7851 129.206 11.2324 129.654 11.9236H129.694V6.88184H130.995V17.7785ZM129.694 14.3631C129.694 12.9807 128.84 12.0049 127.458 12.0049C126.076 12.0049 125.222 12.9807 125.222 14.3631C125.222 15.7455 126.076 16.7214 127.458 16.7214C128.84 16.7214 129.694 15.7455 129.694 14.3631Z"
                                fill="white" />
                            <path
                                d="M133.069 6.88184H134.37V13.9159L137.298 10.9478H139.087L135.915 14.0785L139.372 17.7785H137.542L134.37 14.2412V17.7785H133.069V6.88184Z"
                                fill="white" />
                            <path
                                d="M141.445 7.57324C141.974 7.57324 142.38 8.02049 142.38 8.5084C142.38 9.03697 141.933 9.44357 141.445 9.44357C140.917 9.44357 140.51 8.99631 140.51 8.5084C140.469 7.97983 140.917 7.57324 141.445 7.57324ZM140.795 10.948H142.096V17.7787H140.795V10.948Z"
                                fill="white" />
                            <path
                                d="M202.515 3.54785C196.823 3.54785 192.228 8.14234 192.228 13.8346C192.228 19.5269 196.823 24.1214 202.515 24.1214C208.207 24.1214 212.802 19.5269 212.802 13.8346C212.802 8.14234 208.207 3.54785 202.515 3.54785ZM208.126 11.0291V11.3951C208.126 11.9643 208.085 12.5335 207.922 13.1028C207.191 16.3555 204.385 19.4863 199.872 19.4863C198.246 19.4863 196.701 18.9983 195.44 18.2258C195.684 18.2665 195.887 18.2665 196.131 18.2665C197.473 18.2665 198.734 17.8192 199.709 17.0467C198.449 17.006 197.392 16.1929 196.985 15.0544C197.148 15.0951 197.351 15.0951 197.514 15.0951C197.798 15.0951 198.042 15.0544 198.286 14.9731C197.31 14.7698 196.497 14.1192 196.172 13.2247C196.05 12.8995 195.969 12.5742 195.969 12.2083V12.1676C196.375 12.3709 196.823 12.4929 197.27 12.5335C196.497 12.005 195.969 11.1511 195.969 10.1753C195.969 9.64673 196.131 9.15882 196.375 8.75223C197.798 10.4599 199.913 11.5984 202.352 11.7204C202.312 11.5171 202.271 11.3138 202.271 11.0698C202.271 9.4841 203.572 8.22366 205.158 8.22366C206.011 8.22366 206.743 8.54893 207.272 9.11816C207.922 8.99618 208.573 8.75223 209.102 8.42696C208.898 9.11816 208.41 9.64673 207.841 10.0127C208.451 9.93135 208.98 9.76871 209.508 9.56541C209.183 10.1346 208.695 10.6226 208.126 11.0291Z"
                                fill="white" />
                            <path
                                d="M228.252 17.7785H226.951V16.8027H226.91C226.423 17.5345 225.447 17.9411 224.552 17.9411C222.438 17.9411 221.096 16.3554 221.096 14.3631C221.096 12.3302 222.479 10.7851 224.552 10.7851C225.528 10.7851 226.463 11.2324 226.91 11.9236H226.951V6.88184H228.252V17.7785ZM226.951 14.3631C226.951 12.9807 226.097 12.0049 224.715 12.0049C223.332 12.0049 222.479 12.9807 222.479 14.3631C222.479 15.7455 223.332 16.7214 224.715 16.7214C226.097 16.7214 226.951 15.7455 226.951 14.3631Z"
                                fill="white" />
                            <path
                                d="M231.098 7.57324C231.627 7.57324 232.034 8.02049 232.034 8.5084C232.034 9.03697 231.586 9.44357 231.098 9.44357C230.57 9.44357 230.163 8.99631 230.163 8.5084C230.123 7.97983 230.57 7.57324 231.098 7.57324ZM230.448 10.948H231.749V17.7787H230.448V10.948Z"
                                fill="white" />
                            <path
                                d="M233.944 10.9478H235.245V12.0049H235.286C235.611 11.2731 236.465 10.7852 237.522 10.7852C238.864 10.7852 240.003 11.5577 240.003 13.3873V17.7785H238.701V13.7533C238.701 12.4928 237.97 12.0049 237.156 12.0049C236.059 12.0049 235.245 12.6961 235.245 14.2819V17.7785H233.944V10.9478Z"
                                fill="white" />
                            <path
                                d="M242.077 6.88184H243.378V13.9159L246.305 10.9884H248.094L244.923 14.0785L248.379 17.7785H246.549L243.378 14.2412V17.7785H242.077V6.88184Z"
                                fill="white" />
                            <path
                                d="M250.656 14.8511C250.656 16.0302 251.754 16.8434 252.973 16.8434C253.746 16.8434 254.356 16.4368 254.844 15.8269L255.819 16.5588C255.088 17.4939 254.112 17.9412 252.811 17.9412C250.656 17.9412 249.314 16.3961 249.314 14.3632C249.314 12.3302 250.778 10.7852 252.851 10.7852C255.25 10.7852 256.185 12.6148 256.185 14.3632V14.8104H250.656V14.8511ZM254.762 13.7939C254.722 12.6555 254.112 11.8016 252.811 11.8016C251.55 11.8016 250.696 12.8994 250.696 13.7939H254.762Z"
                                fill="white" />
                            <path
                                d="M261.43 12.6556C261.145 12.2897 260.698 11.9644 260.048 11.9644C259.438 11.9644 258.909 12.249 258.909 12.7369C258.909 13.5501 260.088 13.6721 260.658 13.7941C261.796 14.0787 262.65 14.4853 262.65 15.7864C262.65 17.3314 261.227 17.9413 259.885 17.9413C258.747 17.9413 257.933 17.6567 257.242 16.7215L258.218 15.9083C258.625 16.3149 259.113 16.7215 259.885 16.7215C260.536 16.7215 261.267 16.4369 261.267 15.8677C261.267 15.0952 260.17 14.9325 259.641 14.8105C258.543 14.5259 257.567 14.16 257.567 12.8589C257.567 11.4358 258.869 10.7446 260.17 10.7446C261.064 10.7446 261.999 11.0699 262.487 11.8831L261.43 12.6556Z"
                                fill="white" />
                            <path
                                d="M267.854 7.57324H269.237V14.8512C269.237 17.4128 267.407 18.0227 266.269 18.0227C264.846 18.0227 263.789 17.2908 263.504 15.7864L264.846 15.5018C265.008 16.2743 265.496 16.7216 266.269 16.7216C267.651 16.7216 267.854 15.5424 267.854 14.404V7.57324Z"
                                fill="white" />
                            <path
                                d="M271.758 7.57324H273.14V12.0051H273.262L277.735 7.57324H279.686L274.767 12.2897L280.012 17.7787H277.979L273.262 12.6963H273.14V17.7787H271.758V7.57324Z"
                                fill="white" />
                            <path d="M283.346 8.87434H280.052V7.57324H288.021V8.87434H284.728V17.7787H283.346V8.87434Z"
                                fill="white" />
                            <path
                                d="M372.023 17.7785H370.722V16.8027H370.681C370.194 17.5345 369.218 17.9411 368.323 17.9411C366.209 17.9411 364.867 16.3554 364.867 14.3631C364.867 12.3302 366.25 10.7851 368.323 10.7851C369.299 10.7851 370.234 11.2324 370.681 11.9236H370.722V6.88184H372.023V17.7785ZM370.722 14.3631C370.722 12.9807 369.868 12.0049 368.486 12.0049C367.103 12.0049 366.25 12.9807 366.25 14.3631C366.25 15.7455 367.103 16.7214 368.486 16.7214C369.868 16.7214 370.722 15.7455 370.722 14.3631Z"
                                fill="white" />
                            <path
                                d="M374.869 7.57324C375.398 7.57324 375.804 8.02049 375.804 8.5084C375.804 9.03697 375.357 9.44357 374.869 9.44357C374.341 9.44357 373.934 8.99631 373.934 8.5084C373.934 7.97983 374.341 7.57324 374.869 7.57324ZM374.219 10.948H375.52V17.7787H374.219V10.948Z"
                                fill="white" />
                            <path
                                d="M377.715 10.9478H379.016V12.0049H379.057C379.382 11.2731 380.236 10.7852 381.293 10.7852C382.635 10.7852 383.774 11.5577 383.774 13.3873V17.7785H382.472V13.7533C382.472 12.4928 381.741 12.0049 380.927 12.0049C379.83 12.0049 379.016 12.6961 379.016 14.2819V17.7785H377.715V10.9478Z"
                                fill="white" />
                            <path
                                d="M385.847 6.88184H387.148V13.9159L390.076 10.9884H391.905L388.693 14.0785L392.149 17.7785H390.32L387.148 14.2412V17.7785H385.847V6.88184Z"
                                fill="white" />
                            <path
                                d="M394.426 14.8511C394.426 16.0302 395.524 16.8434 396.744 16.8434C397.516 16.8434 398.126 16.4368 398.614 15.8269L399.59 16.5588C398.858 17.4939 397.882 17.9412 396.581 17.9412C394.426 17.9412 393.084 16.3961 393.084 14.3632C393.084 12.3302 394.548 10.7852 396.622 10.7852C399.021 10.7852 399.956 12.6148 399.956 14.3632V14.8104H394.426V14.8511ZM398.533 13.7939C398.492 12.6555 397.882 11.8016 396.581 11.8016C395.321 11.8016 394.467 12.8994 394.467 13.7939H398.533Z"
                                fill="white" />
                            <path
                                d="M405.242 12.6556C404.957 12.2897 404.51 11.9644 403.859 11.9644C403.249 11.9644 402.721 12.249 402.721 12.7369C402.721 13.5501 403.9 13.6721 404.469 13.7941C405.608 14.0787 406.461 14.4853 406.461 15.7864C406.461 17.3314 405.038 17.9413 403.697 17.9413C402.558 17.9413 401.745 17.6567 401.054 16.7215L402.03 15.9083C402.436 16.3149 402.924 16.7215 403.697 16.7215C404.347 16.7215 405.079 16.4369 405.079 15.8677C405.079 15.0952 403.981 14.9325 403.453 14.8105C402.355 14.5259 401.379 14.16 401.379 12.8589C401.379 11.4358 402.68 10.7446 403.981 10.7446C404.876 10.7446 405.811 11.0699 406.299 11.8831L405.242 12.6556Z"
                                fill="white" />
                            <path
                                d="M408.21 16.9249C408.21 16.3963 408.657 15.9897 409.145 15.9897C409.674 15.9897 410.08 16.437 410.08 16.9249C410.08 17.4535 409.633 17.8601 409.145 17.8601C408.657 17.8601 408.21 17.4128 408.21 16.9249Z"
                                fill="white" />
                            <path
                                d="M413.658 10.948V18.7545C413.658 19.4457 413.658 21.2347 411.585 21.2347C411.3 21.2347 411.016 21.1941 410.731 21.1128L410.894 19.9336C411.056 19.9743 411.26 20.0556 411.422 20.0556C412.113 20.0556 412.357 19.6084 412.357 18.7139V10.9886H413.658V10.948ZM413.008 7.57324C413.536 7.57324 413.943 8.02049 413.943 8.5084C413.943 9.03697 413.496 9.44357 413.008 9.44357C412.479 9.44357 412.073 8.99631 412.073 8.5084C412.073 7.97983 412.52 7.57324 413.008 7.57324Z"
                                fill="white" />
                            <path
                                d="M415.894 11.8016C416.626 11.1104 417.643 10.7852 418.618 10.7852C420.651 10.7852 421.465 11.883 421.465 13.0621V16.5588C421.465 17.0467 421.465 17.4533 421.505 17.7785H420.367C420.326 17.4126 420.326 17.0873 420.326 16.7621H420.285C419.716 17.6566 418.944 17.9818 417.887 17.9818C416.626 17.9818 415.528 17.25 415.528 15.9489C415.528 14.2005 417.195 13.5906 419.269 13.5906H420.204V13.306C420.204 12.6148 419.676 11.883 418.578 11.883C417.602 11.883 417.114 12.2895 416.626 12.6555L415.894 11.8016ZM419.554 14.4851C418.334 14.4851 416.829 14.6884 416.829 15.7862C416.829 16.5588 417.399 16.884 418.293 16.884C419.716 16.884 420.245 15.8269 420.245 14.8917V14.4445H419.554V14.4851Z"
                                fill="white" />
                            <path
                                d="M423.498 6.88184H424.758V13.9159L427.726 10.9884H429.515L426.344 14.0785L429.8 17.7785H427.929L424.758 14.2412V17.7785H423.498V6.88184Z"
                                fill="white" />
                            <path
                                d="M431.101 11.8016C431.833 11.1104 432.849 10.7852 433.825 10.7852C435.858 10.7852 436.671 11.883 436.671 13.0621V16.5588C436.671 17.0467 436.671 17.4533 436.712 17.7785H435.573C435.533 17.4126 435.533 17.0873 435.533 16.7621H435.492C434.923 17.6566 434.15 17.9818 433.093 17.9818C431.833 17.9818 430.735 17.25 430.735 15.9489C430.735 14.2005 432.402 13.5906 434.475 13.5906H435.411V13.306C435.411 12.6148 434.882 11.883 433.784 11.883C432.808 11.883 432.321 12.2895 431.833 12.6555L431.101 11.8016ZM434.76 14.4851C433.54 14.4851 432.036 14.6884 432.036 15.7862C432.036 16.5588 432.605 16.884 433.5 16.884C434.923 16.884 435.451 15.8269 435.451 14.8917V14.4445H434.76V14.4851Z"
                                fill="white" />
                            <path
                                d="M438.705 10.9478H440.006V12.0049H440.046C440.372 11.2731 441.225 10.7852 442.079 10.7852C442.283 10.7852 442.486 10.8258 442.649 10.8665L442.608 12.2489C442.405 12.2082 442.161 12.1676 441.957 12.1676C440.697 12.1676 440.006 12.8588 440.006 14.3632V17.7785H438.705V10.9478Z"
                                fill="white" />
                            <path
                                d="M447.812 12.0864H445.942V15.1765C445.942 15.949 445.942 16.7622 446.918 16.7622C447.202 16.7622 447.568 16.7216 447.853 16.5589V17.738C447.568 17.9007 446.958 17.982 446.674 17.982C444.681 17.982 444.641 16.7622 444.641 15.6644V12.1271H443.136V10.9886H444.641V9.07764H445.942V10.9886H447.812V12.0864Z"
                                fill="white" />
                            <path
                                d="M449.642 11.8016C450.374 11.1104 451.39 10.7852 452.366 10.7852C454.399 10.7852 455.212 11.883 455.212 13.0621V16.5588C455.212 17.0467 455.212 17.4533 455.253 17.7785H454.114C454.074 17.4126 454.074 17.0873 454.074 16.7621H454.033C453.464 17.6566 452.691 17.9818 451.634 17.9818C450.374 17.9818 449.276 17.25 449.276 15.9489C449.276 14.2005 450.943 13.5906 453.017 13.5906H453.952V13.306C453.952 12.6148 453.423 11.883 452.325 11.883C451.349 11.883 450.862 12.2895 450.374 12.6555L449.642 11.8016ZM453.301 14.4851C452.081 14.4851 450.577 14.6884 450.577 15.7862C450.577 16.5588 451.146 16.884 452.041 16.884C453.464 16.884 453.992 15.8269 453.992 14.8917V14.4445H453.301V14.4851Z"
                                fill="white" />
                            <path
                                d="M457.326 16.9249C457.326 16.3963 457.773 15.9897 458.261 15.9897C458.79 15.9897 459.196 16.437 459.196 16.9249C459.196 17.4535 458.749 17.8601 458.261 17.8601C457.733 17.8601 457.326 17.4128 457.326 16.9249Z"
                                fill="white" />
                            <path
                                d="M468.223 17.6974C468.223 19.771 466.719 21.194 464.483 21.194C463.181 21.194 462.124 20.8688 461.149 19.9743L462.043 18.8765C462.734 19.6083 463.466 19.9743 464.483 19.9743C466.394 19.9743 466.922 18.7545 466.922 17.616V16.5996H466.881C466.394 17.4127 465.458 17.8193 464.523 17.8193C462.531 17.8193 461.027 16.3149 461.067 14.3226C461.067 12.2897 462.409 10.7446 464.523 10.7446C465.458 10.7446 466.394 11.1512 466.881 11.8831H466.922V10.9073H468.223V17.6974ZM462.45 14.3633C462.45 15.7457 463.303 16.6402 464.686 16.6402C466.068 16.6402 466.922 15.7457 466.922 14.3633C466.922 12.9809 466.068 12.0051 464.686 12.0051C463.303 12.0051 462.45 12.9809 462.45 14.3633Z"
                                fill="white" />
                            <path
                                d="M473.59 10.7852C475.623 10.7852 477.208 12.3709 477.208 14.3632C477.208 16.3555 475.623 17.9412 473.59 17.9412C471.557 17.9412 469.971 16.3555 469.971 14.3632C469.971 12.3709 471.557 10.7852 473.59 10.7852ZM473.59 16.7214C474.972 16.7214 475.826 15.7456 475.826 14.3632C475.826 12.9808 474.972 12.0049 473.59 12.0049C472.207 12.0049 471.354 12.9808 471.354 14.3632C471.354 15.7456 472.207 16.7214 473.59 16.7214Z"
                                fill="white" />
                            <path
                                d="M479.079 16.9249C479.079 16.3963 479.526 15.9897 480.014 15.9897C480.543 15.9897 480.949 16.437 480.949 16.9249C480.949 17.4535 480.502 17.8601 480.014 17.8601C479.486 17.8601 479.079 17.4128 479.079 16.9249Z"
                                fill="white" />
                            <path
                                d="M483.877 7.57324C484.405 7.57324 484.812 8.02049 484.812 8.5084C484.812 9.03697 484.364 9.44357 483.877 9.44357C483.348 9.44357 482.941 8.99631 482.941 8.5084C482.941 7.97983 483.389 7.57324 483.877 7.57324ZM483.226 10.948H484.527V17.7787H483.226V10.948Z"
                                fill="white" />
                            <path
                                d="M493.554 17.7785H492.253V16.8027H492.212C491.724 17.5345 490.748 17.9411 489.854 17.9411C487.74 17.9411 486.398 16.3554 486.398 14.3631C486.398 12.3302 487.78 10.7851 489.854 10.7851C490.83 10.7851 491.765 11.2324 492.212 11.9236H492.253V6.88184H493.554V17.7785ZM492.253 14.3631C492.253 12.9807 491.399 12.0049 490.017 12.0049C488.634 12.0049 487.78 12.9807 487.78 14.3631C487.78 15.7455 488.634 16.7214 490.017 16.7214C491.399 16.7214 492.253 15.7455 492.253 14.3631Z"
                                fill="white" />
                            <path d="M167.467 0.661133H165.597V25.9918H167.467V0.661133Z" fill="white" />
                            <path d="M314.938 0.661133H313.067V25.9918H314.938V0.661133Z" fill="white" />
                            <path
                                d="M10.9694 3.54785C5.2771 3.54785 0.682617 8.14234 0.682617 13.8346C0.682617 19.5269 5.2771 24.1214 10.9694 24.1214C16.6617 24.1214 21.2562 19.5269 21.2562 13.8346C21.2562 8.14234 16.6617 3.54785 10.9694 3.54785ZM16.9463 17.0874C16.9463 17.5753 16.5397 18.0225 16.0518 18.0632C12.6771 18.4698 9.2617 18.4698 5.88699 18.0632C5.39908 18.0225 4.99248 17.5346 4.99248 17.0874C4.99248 15.1764 4.99248 13.3061 4.99248 11.3951C4.99248 10.9072 5.39908 10.4599 5.88699 10.4193C9.2617 10.0127 12.6771 10.0127 16.0518 10.4193C16.5397 10.5006 16.9463 10.9478 16.9463 11.3951C16.9463 13.2654 16.9463 15.1764 16.9463 17.0874Z"
                                fill="white" />
                            <path
                                d="M13.3682 13.9161L9.91211 11.9238C9.66815 11.8018 9.38354 11.9644 9.38354 12.2491V16.2743C9.38354 16.5589 9.66815 16.7216 9.91211 16.5996L13.3682 14.6073C13.6121 14.404 13.6121 14.0787 13.3682 13.9161Z"
                                fill="white" />
                        </svg>