<svg width="696" height="37" viewBox="0 0 696 37" fill="none" xmlns="http://www.w3.org/2000/svg">
<path d="M677.586 36.1956H190.692C180.811 36.1956 172.842 28.1857 172.842 18.3462C172.842 8.46603 180.852 0.496826 190.692 0.496826H677.586C687.466 0.496826 695.435 8.50669 695.435 18.3462C695.435 28.2264 687.466 36.1956 677.586 36.1956Z" fill="#087745"/>
<path d="M249.282 14.7276C247.005 14.7276 245.175 16.5573 245.175 18.8342C245.175 21.1111 247.005 22.9408 249.282 22.9408C251.559 22.9408 253.388 21.1111 253.388 18.8342C253.388 16.5573 251.559 14.7276 249.282 14.7276ZM249.282 21.5177C247.818 21.5177 246.598 20.3386 246.598 18.8342C246.598 17.3704 247.777 16.1507 249.282 16.1507C250.786 16.1507 251.965 17.3298 251.965 18.8342C251.965 20.2979 250.745 21.5177 249.282 21.5177Z" fill="white"/>
<path d="M253.551 13.5892C253.022 13.5892 252.575 14.0364 252.575 14.565C252.575 15.0936 253.022 15.5408 253.551 15.5408C254.079 15.5408 254.527 15.0936 254.527 14.565C254.527 13.9958 254.079 13.5892 253.551 13.5892Z" fill="white"/>
<path d="M249.282 8.54736C243.589 8.54736 238.995 13.1419 238.995 18.8341C238.995 24.5264 243.589 29.1209 249.282 29.1209C254.974 29.1209 259.568 24.5264 259.568 18.8341C259.568 13.1419 254.974 8.54736 249.282 8.54736ZM255.828 22.0869C255.787 22.8594 255.665 23.3067 255.543 23.5913C255.259 24.2825 254.73 24.8517 254.039 25.0957C253.754 25.2176 253.348 25.3396 252.534 25.3803C251.681 25.4209 251.437 25.4209 249.282 25.4209C247.127 25.4209 246.883 25.4209 246.029 25.3803C245.256 25.3396 244.809 25.2176 244.525 25.0957C244.159 24.9737 243.874 24.7704 243.589 24.4858C243.305 24.2418 243.101 23.9165 242.979 23.5506C242.857 23.266 242.736 22.8594 242.695 22.0462C242.654 21.1924 242.654 20.9484 242.654 18.7935C242.654 16.6385 242.654 16.3946 242.695 15.5407C242.736 14.7682 242.857 14.321 242.979 14.0364C243.101 13.6704 243.305 13.3858 243.589 13.1012C243.833 12.8166 244.159 12.6133 244.525 12.4913C244.809 12.3693 245.216 12.2474 246.029 12.2067C246.883 12.166 247.127 12.166 249.282 12.166C251.437 12.166 251.681 12.166 252.534 12.2067C253.307 12.2474 253.754 12.3693 254.039 12.4913C254.405 12.6133 254.689 12.8166 254.974 13.1012C255.259 13.3451 255.462 13.6704 255.584 14.0364C255.706 14.321 255.828 14.7276 255.868 15.5407C255.909 16.3946 255.909 16.6385 255.909 18.7935C255.868 20.9891 255.868 21.233 255.828 22.0869Z" fill="white"/>
<path d="M223.829 8.54736C218.137 8.54736 213.542 13.1419 213.542 18.8341C213.542 24.5264 218.137 29.1209 223.829 29.1209C229.521 29.1209 234.116 24.5264 234.116 18.8341C234.116 13.1419 229.521 8.54736 223.829 8.54736ZM226.39 14.077C226.39 14.1583 226.309 14.2397 226.228 14.2397H224.805C224.439 14.2397 224.154 14.5243 224.154 14.8902V16.3946H226.187C226.309 16.3946 226.39 16.4759 226.35 16.5979L226.187 18.7122C226.187 18.7935 226.106 18.8748 226.024 18.8748H224.195V25.8275C224.195 25.9088 224.114 25.9902 224.032 25.9902H221.471C221.389 25.9902 221.308 25.9088 221.308 25.8275V18.9155V18.7935H220.048C219.966 18.7935 219.885 18.7122 219.885 18.6308V16.5166C219.885 16.4352 219.966 16.3539 220.048 16.3539H221.308V14.321C221.308 12.8979 222.446 11.7594 223.87 11.7594H226.268C226.35 11.7594 226.431 11.8408 226.431 11.9221V14.077H226.39Z" fill="white"/>
<path d="M534.547 8.54736C528.854 8.54736 524.26 13.1419 524.26 18.8341C524.26 24.5264 528.854 29.1209 534.547 29.1209C540.239 29.1209 544.833 24.5264 544.833 18.8341C544.833 13.1419 540.239 8.54736 534.547 8.54736ZM530.318 20.7451H529.464L529.017 18.6308C528.895 18.1023 528.814 17.6957 528.773 17.2078C528.692 17.6957 528.61 18.1023 528.488 18.6308L527.96 20.7451H527.065L525.967 16.2726H526.821L527.228 18.3056C527.35 18.8341 527.431 19.4034 527.513 19.8506C527.594 19.3627 527.716 18.8341 527.838 18.2649L528.326 16.232H529.18L529.627 18.3056C529.749 18.8341 529.83 19.3221 529.911 19.81C529.993 19.3221 530.115 18.7935 530.237 18.2649L530.684 16.232H531.497L530.318 20.7451ZM533.733 20.7451H532.839L531.741 16.2726H532.595L533.001 18.3056C533.123 18.8341 533.205 19.4034 533.286 19.8506C533.367 19.3627 533.489 18.8341 533.611 18.2649L534.099 16.232H534.953L535.4 18.3056C535.522 18.8341 535.604 19.3221 535.685 19.81C535.766 19.3221 535.888 18.7935 535.97 18.2649L536.417 16.232H537.23L536.01 20.7045H535.116L534.669 18.5902C534.547 18.0616 534.465 17.655 534.425 17.1671C534.343 17.655 534.262 18.0616 534.14 18.5902L533.733 20.7451ZM538.043 28.4704C537.677 28.5924 537.311 28.7143 536.945 28.7956L536.01 26.1528L534.425 27.4132L534.628 21.1111L539.06 25.6242L537.067 25.7869L538.043 28.4704ZM541.133 20.7451L540.686 18.6308C540.564 18.1023 540.483 17.6957 540.442 17.2078C540.361 17.6957 540.279 18.1023 540.158 18.6308L539.629 20.7451H538.734L537.637 16.2726H538.49L538.897 18.3056C539.019 18.8341 539.1 19.4034 539.182 19.8506C539.263 19.3627 539.385 18.8341 539.507 18.2649L539.995 16.232H540.849L541.296 18.3056C541.418 18.8341 541.499 19.3221 541.581 19.81C541.662 19.3221 541.784 18.7935 541.906 18.2649L542.353 16.232H543.166L541.947 20.7045H541.133V20.7451Z" fill="white"/>
<path d="M275.019 22.7781H273.718V21.8023H273.677C273.189 22.5342 272.213 22.9408 271.319 22.9408C269.205 22.9408 267.863 21.3551 267.863 19.3628C267.863 17.3298 269.245 15.7848 271.319 15.7848C272.295 15.7848 273.23 16.232 273.677 16.9232H273.718V11.8815H275.019V22.7781ZM273.758 19.3628C273.758 17.9804 272.905 17.0045 271.522 17.0045C270.14 17.0045 269.286 17.9804 269.286 19.3628C269.286 20.7452 270.14 21.721 271.522 21.721C272.864 21.721 273.758 20.7452 273.758 19.3628Z" fill="white"/>
<path d="M277.865 12.5727C278.393 12.5727 278.8 13.0199 278.8 13.5079C278.8 14.0364 278.353 14.443 277.865 14.443C277.336 14.443 276.93 13.9958 276.93 13.5079C276.93 12.9793 277.377 12.5727 277.865 12.5727ZM277.255 15.9474H278.556V22.7782H277.255V15.9474Z" fill="white"/>
<path d="M280.752 15.9474H282.053V17.0045H282.093C282.419 16.2726 283.273 15.7847 284.33 15.7847C285.671 15.7847 286.81 16.5573 286.81 18.3869V22.7781H285.509V18.7529C285.509 17.4924 284.777 17.0045 283.964 17.0045C282.866 17.0045 282.053 17.6957 282.053 19.2814V22.7781H280.752V15.9474Z" fill="white"/>
<path d="M288.884 11.8815H290.185V18.9155L293.112 15.9474H294.901L291.73 19.0782L295.186 22.7781H293.315L290.185 19.2408V22.7781H288.884V11.8815Z" fill="white"/>
<path d="M297.462 19.8506C297.462 21.0298 298.56 21.843 299.78 21.843C300.553 21.843 301.162 21.4364 301.65 20.8265L302.626 21.5583C301.894 22.4935 300.919 22.9408 299.617 22.9408C297.462 22.9408 296.121 21.3957 296.121 19.3627C296.121 17.3298 297.584 15.7847 299.658 15.7847C302.057 15.7847 302.992 17.6144 302.992 19.3627V19.81H297.462V19.8506ZM301.528 18.7935C301.488 17.6551 300.878 16.8012 299.577 16.8012C298.316 16.8012 297.462 17.899 297.462 18.7935H301.528Z" fill="white"/>
<path d="M308.237 17.6551C307.953 17.2891 307.506 16.9639 306.855 16.9639C306.245 16.9639 305.717 17.2485 305.717 17.7364C305.717 18.5496 306.896 18.6715 307.465 18.7935C308.603 19.0781 309.457 19.4847 309.457 20.7858C309.457 22.3309 308.034 22.9408 306.692 22.9408C305.554 22.9408 304.741 22.6561 304.05 21.721L305.025 20.9078C305.432 21.3144 305.92 21.721 306.692 21.721C307.343 21.721 308.075 21.4364 308.075 20.8671C308.075 20.0946 306.977 19.932 306.448 19.81C305.351 19.5254 304.375 19.1595 304.375 17.8584C304.375 16.4353 305.676 15.7441 306.977 15.7441C307.872 15.7441 308.807 16.0694 309.295 16.8825L308.237 17.6551Z" fill="white"/>
<path d="M317.996 22.7781H316.695V21.8023H316.654C316.166 22.5342 315.19 22.9408 314.296 22.9408C312.181 22.9408 310.84 21.3551 310.84 19.3628C310.84 17.3298 312.222 15.7848 314.296 15.7848C315.271 15.7848 316.207 16.232 316.654 16.9232H316.695V11.8815H317.996V22.7781ZM316.695 19.3628C316.695 17.9804 315.841 17.0045 314.458 17.0045C313.076 17.0045 312.222 17.9804 312.222 19.3628C312.222 20.7452 313.076 21.721 314.458 21.721C315.841 21.721 316.695 20.7452 316.695 19.3628Z" fill="white"/>
<path d="M320.069 11.8815H321.37V18.9155L324.298 15.9474H326.087L322.915 19.0782L326.371 22.7781H324.542L321.37 19.2408V22.7781H320.069V11.8815Z" fill="white"/>
<path d="M328.445 12.5727C328.974 12.5727 329.38 13.0199 329.38 13.5079C329.38 14.0364 328.933 14.443 328.445 14.443C327.917 14.443 327.51 13.9958 327.51 13.5079C327.469 12.9793 327.917 12.5727 328.445 12.5727ZM327.795 15.9474H329.096V22.7782H327.795V15.9474Z" fill="white"/>
<path d="M389.515 8.54736C383.823 8.54736 379.228 13.1419 379.228 18.8341C379.228 24.5264 383.823 29.1209 389.515 29.1209C395.207 29.1209 399.802 24.5264 399.802 18.8341C399.802 13.1419 395.207 8.54736 389.515 8.54736ZM395.126 16.0287V16.3946C395.126 16.9638 395.085 17.533 394.923 18.1023C394.191 21.355 391.385 24.4858 386.872 24.4858C385.246 24.4858 383.701 23.9979 382.44 23.2253C382.684 23.266 382.888 23.266 383.132 23.266C384.473 23.266 385.734 22.8187 386.71 22.0462C385.449 22.0056 384.392 21.1924 383.985 20.0539C384.148 20.0946 384.351 20.0946 384.514 20.0946C384.799 20.0946 385.043 20.0539 385.287 19.9726C384.311 19.7693 383.497 19.1188 383.172 18.2243C383.05 17.899 382.969 17.5737 382.969 17.2078V17.1671C383.376 17.3704 383.823 17.4924 384.27 17.533C383.497 17.0045 382.969 16.1506 382.969 15.1748C382.969 14.6462 383.132 14.1583 383.376 13.7517C384.799 15.4594 386.913 16.5979 389.352 16.7199C389.312 16.5166 389.271 16.3133 389.271 16.0693C389.271 14.4836 390.572 13.2232 392.158 13.2232C393.012 13.2232 393.744 13.5484 394.272 14.1177C394.923 13.9957 395.573 13.7517 396.102 13.4265C395.899 14.1177 395.411 14.6462 394.841 15.0122C395.451 14.9309 395.98 14.7682 396.508 14.5649C396.183 15.1342 395.695 15.6221 395.126 16.0287Z" fill="white"/>
<path d="M415.252 22.7781H413.951V21.8023H413.911C413.423 22.5342 412.447 22.9408 411.552 22.9408C409.438 22.9408 408.096 21.3551 408.096 19.3628C408.096 17.3298 409.479 15.7848 411.552 15.7848C412.528 15.7848 413.463 16.232 413.911 16.9232H413.951V11.8815H415.252V22.7781ZM413.951 19.3628C413.951 17.9804 413.097 17.0045 411.715 17.0045C410.333 17.0045 409.479 17.9804 409.479 19.3628C409.479 20.7452 410.333 21.721 411.715 21.721C413.097 21.721 413.951 20.7452 413.951 19.3628Z" fill="white"/>
<path d="M418.098 12.5727C418.627 12.5727 419.034 13.0199 419.034 13.5079C419.034 14.0364 418.586 14.443 418.098 14.443C417.57 14.443 417.163 13.9958 417.163 13.5079C417.123 12.9793 417.57 12.5727 418.098 12.5727ZM417.448 15.9474H418.749V22.7782H417.448V15.9474Z" fill="white"/>
<path d="M420.945 15.9474H422.246V17.0045H422.286C422.612 16.2726 423.465 15.7847 424.523 15.7847C425.864 15.7847 427.003 16.5573 427.003 18.3869V22.7781H425.702V18.7529C425.702 17.4924 424.97 17.0045 424.157 17.0045C423.059 17.0045 422.246 17.6957 422.246 19.2814V22.7781H420.945V15.9474Z" fill="white"/>
<path d="M429.077 11.8815H430.378V18.9155L433.305 15.988H435.094L431.923 19.0782L435.379 22.7781H433.549L430.378 19.2408V22.7781H429.077V11.8815Z" fill="white"/>
<path d="M437.656 19.8506C437.656 21.0298 438.753 21.843 439.973 21.843C440.746 21.843 441.356 21.4364 441.844 20.8265L442.819 21.5583C442.087 22.4935 441.112 22.9408 439.811 22.9408C437.656 22.9408 436.314 21.3957 436.314 19.3627C436.314 17.3298 437.778 15.7847 439.851 15.7847C442.25 15.7847 443.185 17.6144 443.185 19.3627V19.81H437.656V19.8506ZM441.762 18.7935C441.722 17.6551 441.112 16.8012 439.811 16.8012C438.55 16.8012 437.696 17.899 437.696 18.7935H441.762Z" fill="white"/>
<path d="M448.43 17.6551C448.146 17.2891 447.698 16.9639 447.048 16.9639C446.438 16.9639 445.909 17.2485 445.909 17.7364C445.909 18.5496 447.089 18.6715 447.658 18.7935C448.796 19.0781 449.65 19.4847 449.65 20.7858C449.65 22.3309 448.227 22.9408 446.885 22.9408C445.747 22.9408 444.934 22.6561 444.242 21.721L445.218 20.9078C445.625 21.3144 446.113 21.721 446.885 21.721C447.536 21.721 448.268 21.4364 448.268 20.8671C448.268 20.0946 447.17 19.932 446.641 19.81C445.544 19.5254 444.568 19.1595 444.568 17.8584C444.568 16.4353 445.869 15.7441 447.17 15.7441C448.064 15.7441 449 16.0694 449.487 16.8825L448.43 17.6551Z" fill="white"/>
<path d="M454.854 12.5727H456.237V19.8507C456.237 22.4122 454.407 23.0221 453.269 23.0221C451.846 23.0221 450.789 22.2902 450.504 20.7859L451.846 20.5012C452.008 21.2738 452.496 21.721 453.269 21.721C454.651 21.721 454.854 20.5419 454.854 19.4034V12.5727Z" fill="white"/>
<path d="M458.758 12.5727H460.14V17.0045H460.262L464.735 12.5727H466.686L461.767 17.2892L467.012 22.7782H464.979L460.262 17.6958H460.14V22.7782H458.758V12.5727Z" fill="white"/>
<path d="M470.346 13.8738H467.052V12.5727H475.021V13.8738H471.728V22.7782H470.346V13.8738Z" fill="white"/>
<path d="M559.023 22.7781H557.722V21.8023H557.681C557.194 22.5342 556.218 22.9408 555.323 22.9408C553.209 22.9408 551.867 21.3551 551.867 19.3628C551.867 17.3298 553.25 15.7848 555.323 15.7848C556.299 15.7848 557.234 16.232 557.681 16.9232H557.722V11.8815H559.023V22.7781ZM557.722 19.3628C557.722 17.9804 556.868 17.0045 555.486 17.0045C554.103 17.0045 553.25 17.9804 553.25 19.3628C553.25 20.7452 554.103 21.721 555.486 21.721C556.868 21.721 557.722 20.7452 557.722 19.3628Z" fill="white"/>
<path d="M561.87 12.5727C562.398 12.5727 562.805 13.0199 562.805 13.5079C562.805 14.0364 562.357 14.443 561.87 14.443C561.341 14.443 560.934 13.9958 560.934 13.5079C560.934 12.9793 561.341 12.5727 561.87 12.5727ZM561.219 15.9474H562.52V22.7782H561.219V15.9474Z" fill="white"/>
<path d="M564.716 15.9474H566.017V17.0045H566.057C566.383 16.2726 567.236 15.7847 568.294 15.7847C569.635 15.7847 570.774 16.5573 570.774 18.3869V22.7781H569.473V18.7529C569.473 17.4924 568.741 17.0045 567.928 17.0045C566.83 17.0045 566.017 17.6957 566.017 19.2814V22.7781H564.716V15.9474Z" fill="white"/>
<path d="M572.847 11.8815H574.148V18.9155L577.076 15.988H578.906L575.694 19.0782L579.15 22.7781H577.32L574.148 19.2408V22.7781H572.847V11.8815Z" fill="white"/>
<path d="M581.426 19.8506C581.426 21.0298 582.524 21.843 583.744 21.843C584.517 21.843 585.126 21.4364 585.614 20.8265L586.59 21.5583C585.858 22.4935 584.882 22.9408 583.581 22.9408C581.426 22.9408 580.085 21.3957 580.085 19.3627C580.085 17.3298 581.548 15.7847 583.622 15.7847C586.021 15.7847 586.956 17.6144 586.956 19.3627V19.81H581.426V19.8506ZM585.533 18.7935C585.492 17.6551 584.882 16.8012 583.581 16.8012C582.321 16.8012 581.467 17.899 581.467 18.7935H585.533Z" fill="white"/>
<path d="M592.242 17.6551C591.957 17.2891 591.51 16.9639 590.859 16.9639C590.25 16.9639 589.721 17.2485 589.721 17.7364C589.721 18.5496 590.9 18.6715 591.469 18.7935C592.608 19.0781 593.462 19.4847 593.462 20.7858C593.462 22.3309 592.039 22.9408 590.697 22.9408C589.558 22.9408 588.745 22.6561 588.054 21.721L589.03 20.9078C589.436 21.3144 589.924 21.721 590.697 21.721C591.347 21.721 592.079 21.4364 592.079 20.8671C592.079 20.0946 590.981 19.932 590.453 19.81C589.355 19.5254 588.379 19.1595 588.379 17.8584C588.379 16.4353 589.68 15.7441 590.981 15.7441C591.876 15.7441 592.811 16.0694 593.299 16.8825L592.242 17.6551Z" fill="white"/>
<path d="M595.21 21.9242C595.21 21.3957 595.657 20.9891 596.145 20.9891C596.674 20.9891 597.08 21.4363 597.08 21.9242C597.08 22.4528 596.633 22.8594 596.145 22.8594C595.657 22.8594 595.21 22.4121 595.21 21.9242Z" fill="white"/>
<path d="M600.658 15.9474V23.754C600.658 24.4452 600.658 26.2342 598.585 26.2342C598.3 26.2342 598.016 26.1935 597.731 26.1122L597.894 24.9331C598.056 24.9737 598.26 25.0551 598.422 25.0551C599.113 25.0551 599.357 24.6078 599.357 23.7133V15.9881H600.658V15.9474ZM600.008 12.5727C600.536 12.5727 600.943 13.0199 600.943 13.5079C600.943 14.0364 600.496 14.443 600.008 14.443C599.479 14.443 599.073 13.9958 599.073 13.5079C599.073 12.9793 599.52 12.5727 600.008 12.5727Z" fill="white"/>
<path d="M602.895 16.8012C603.627 16.11 604.643 15.7847 605.619 15.7847C607.652 15.7847 608.465 16.8825 608.465 18.0616V21.5583C608.465 22.0462 608.465 22.4528 608.506 22.7781H607.367C607.327 22.4122 607.327 22.0869 607.327 21.7616H607.286C606.717 22.6561 605.944 22.9814 604.887 22.9814C603.627 22.9814 602.529 22.2495 602.529 20.9484C602.529 19.2001 604.196 18.5902 606.269 18.5902H607.205V18.3056C607.205 17.6144 606.676 16.8825 605.578 16.8825C604.602 16.8825 604.114 17.2891 603.627 17.6551L602.895 16.8012ZM606.554 19.4847C605.334 19.4847 603.83 19.688 603.83 20.7858C603.83 21.5583 604.399 21.8836 605.294 21.8836C606.717 21.8836 607.245 20.8265 607.245 19.8913V19.4441H606.554V19.4847Z" fill="white"/>
<path d="M610.498 11.8815H611.758V18.9155L614.726 15.988H616.515L613.344 19.0782L616.8 22.7781H614.93L611.758 19.2408V22.7781H610.498V11.8815Z" fill="white"/>
<path d="M618.101 16.8012C618.833 16.11 619.849 15.7847 620.825 15.7847C622.858 15.7847 623.671 16.8825 623.671 18.0616V21.5583C623.671 22.0462 623.671 22.4528 623.712 22.7781H622.574C622.533 22.4122 622.533 22.0869 622.533 21.7616H622.492C621.923 22.6561 621.15 22.9814 620.093 22.9814C618.833 22.9814 617.735 22.2495 617.735 20.9484C617.735 19.2001 619.402 18.5902 621.476 18.5902H622.411V18.3056C622.411 17.6144 621.882 16.8825 620.785 16.8825C619.809 16.8825 619.321 17.2891 618.833 17.6551L618.101 16.8012ZM621.76 19.4847C620.541 19.4847 619.036 19.688 619.036 20.7858C619.036 21.5583 619.605 21.8836 620.5 21.8836C621.923 21.8836 622.452 20.8265 622.452 19.8913V19.4441H621.76V19.4847Z" fill="white"/>
<path d="M625.705 15.9474H627.006V17.0045H627.046C627.372 16.2726 628.225 15.7847 629.079 15.7847C629.283 15.7847 629.486 15.8254 629.649 15.866L629.608 17.2485C629.405 17.2078 629.161 17.1671 628.957 17.1671C627.697 17.1671 627.006 17.8583 627.006 19.3627V22.7781H625.705V15.9474Z" fill="white"/>
<path d="M634.812 17.0858H632.942V20.1759C632.942 20.9484 632.942 21.7616 633.918 21.7616C634.202 21.7616 634.568 21.721 634.853 21.5583V22.7374C634.568 22.9001 633.958 22.9814 633.674 22.9814C631.681 22.9814 631.641 21.7616 631.641 20.6638V17.1265H630.136V15.988H631.641V14.077H632.942V15.988H634.812V17.0858Z" fill="white"/>
<path d="M636.642 16.8012C637.374 16.11 638.39 15.7847 639.366 15.7847C641.399 15.7847 642.212 16.8825 642.212 18.0616V21.5583C642.212 22.0462 642.212 22.4528 642.253 22.7781H641.114C641.074 22.4122 641.074 22.0869 641.074 21.7616H641.033C640.464 22.6561 639.691 22.9814 638.634 22.9814C637.374 22.9814 636.276 22.2495 636.276 20.9484C636.276 19.2001 637.943 18.5902 640.017 18.5902H640.952V18.3056C640.952 17.6144 640.423 16.8825 639.325 16.8825C638.349 16.8825 637.862 17.2891 637.374 17.6551L636.642 16.8012ZM640.301 19.4847C639.081 19.4847 637.577 19.688 637.577 20.7858C637.577 21.5583 638.146 21.8836 639.041 21.8836C640.464 21.8836 640.992 20.8265 640.992 19.8913V19.4441H640.301V19.4847Z" fill="white"/>
<path d="M644.326 21.9242C644.326 21.3957 644.774 20.9891 645.262 20.9891C645.79 20.9891 646.197 21.4363 646.197 21.9242C646.197 22.4528 645.749 22.8594 645.262 22.8594C644.733 22.8594 644.326 22.4121 644.326 21.9242Z" fill="white"/>
<path d="M655.223 22.6968C655.223 24.7704 653.719 26.1935 651.483 26.1935C650.181 26.1935 649.124 25.8682 648.149 24.9737L649.043 23.8759C649.734 24.6078 650.466 24.9737 651.483 24.9737C653.394 24.9737 653.922 23.7539 653.922 22.6155V21.599H653.881C653.394 22.4122 652.458 22.8188 651.523 22.8188C649.531 22.8188 648.027 21.3144 648.067 19.3221C648.067 17.2891 649.409 15.7441 651.523 15.7441C652.458 15.7441 653.394 16.1507 653.881 16.8825H653.922V15.9067H655.223V22.6968ZM649.45 19.3627C649.45 20.7452 650.303 21.6397 651.686 21.6397C653.068 21.6397 653.922 20.7452 653.922 19.3627C653.922 17.9803 653.068 17.0045 651.686 17.0045C650.303 17.0045 649.45 17.9803 649.45 19.3627Z" fill="white"/>
<path d="M660.59 15.7847C662.623 15.7847 664.208 17.3704 664.208 19.3627C664.208 21.355 662.623 22.9408 660.59 22.9408C658.557 22.9408 656.971 21.355 656.971 19.3627C656.971 17.3704 658.557 15.7847 660.59 15.7847ZM660.59 21.721C661.972 21.721 662.826 20.7452 662.826 19.3627C662.826 17.9803 661.972 17.0045 660.59 17.0045C659.207 17.0045 658.354 17.9803 658.354 19.3627C658.354 20.7452 659.207 21.721 660.59 21.721Z" fill="white"/>
<path d="M666.079 21.9242C666.079 21.3957 666.526 20.9891 667.014 20.9891C667.543 20.9891 667.949 21.4363 667.949 21.9242C667.949 22.4528 667.502 22.8594 667.014 22.8594C666.486 22.8594 666.079 22.4121 666.079 21.9242Z" fill="white"/>
<path d="M670.877 12.5727C671.405 12.5727 671.812 13.0199 671.812 13.5079C671.812 14.0364 671.365 14.443 670.877 14.443C670.348 14.443 669.942 13.9958 669.942 13.5079C669.942 12.9793 670.389 12.5727 670.877 12.5727ZM670.226 15.9474H671.527V22.7782H670.226V15.9474Z" fill="white"/>
<path d="M680.554 22.7781H679.253V21.8023H679.212C678.724 22.5342 677.748 22.9408 676.854 22.9408C674.74 22.9408 673.398 21.3551 673.398 19.3628C673.398 17.3298 674.78 15.7848 676.854 15.7848C677.83 15.7848 678.765 16.232 679.212 16.9232H679.253V11.8815H680.554V22.7781ZM679.253 19.3628C679.253 17.9804 678.399 17.0045 677.017 17.0045C675.634 17.0045 674.78 17.9804 674.78 19.3628C674.78 20.7452 675.634 21.721 677.017 21.721C678.399 21.721 679.253 20.7452 679.253 19.3628Z" fill="white"/>
<path d="M354.467 5.66064H352.597V30.9913H354.467V5.66064Z" fill="white"/>
<path d="M501.938 5.66064H500.068V30.9913H501.938V5.66064Z" fill="white"/>
<path d="M197.97 8.54736C192.277 8.54736 187.683 13.1419 187.683 18.8341C187.683 24.5264 192.277 29.1209 197.97 29.1209C203.662 29.1209 208.256 24.5264 208.256 18.8341C208.256 13.1419 203.662 8.54736 197.97 8.54736ZM203.947 22.0869C203.947 22.5748 203.54 23.022 203.052 23.0627C199.677 23.4693 196.262 23.4693 192.887 23.0627C192.399 23.022 191.993 22.5341 191.993 22.0869C191.993 20.1759 191.993 18.3056 191.993 16.3946C191.993 15.9067 192.399 15.4594 192.887 15.4188C196.262 15.0122 199.677 15.0122 203.052 15.4188C203.54 15.5001 203.947 15.9473 203.947 16.3946C203.947 18.2649 203.947 20.1759 203.947 22.0869Z" fill="white"/>
<path d="M200.368 18.9155L196.912 16.9232C196.668 16.8012 196.384 16.9638 196.384 17.2485V21.2737C196.384 21.5583 196.668 21.721 196.912 21.599L200.368 19.6067C200.612 19.4034 200.612 19.0781 200.368 18.9155Z" fill="white"/>
<path d="M141.535 36.1956H17.8494C7.9692 36.1956 0 28.1857 0 18.3462C0 8.46603 8.00986 0.496826 17.8494 0.496826H141.535C151.415 0.496826 159.384 8.50669 159.384 18.3462C159.384 28.2264 151.374 36.1956 141.535 36.1956Z" fill="#087745"/>
<path d="M23.2163 14.7276C20.9394 14.7276 19.1097 16.5573 19.1097 18.8342C19.1097 21.1111 20.9394 22.9408 23.2163 22.9408C25.4932 22.9408 27.3229 21.1111 27.3229 18.8342C27.3229 16.5573 25.4932 14.7276 23.2163 14.7276ZM23.2163 21.5177C21.7526 21.5177 20.5328 20.3386 20.5328 18.8342C20.5328 17.3704 21.7119 16.1507 23.2163 16.1507C24.6801 16.1507 25.8998 17.3298 25.8998 18.8342C25.8592 20.2979 24.6801 21.5177 23.2163 21.5177Z" fill="white"/>
<path d="M27.4855 13.5892C26.9569 13.5892 26.5096 14.0364 26.5096 14.565C26.5096 15.0936 26.9569 15.5408 27.4855 15.5408C28.014 15.5408 28.4613 15.0936 28.4613 14.565C28.4613 13.9958 28.014 13.5892 27.4855 13.5892Z" fill="white"/>
<path d="M23.2163 8.54736C17.5241 8.54736 12.9296 13.1419 12.9296 18.8341C12.9296 24.5264 17.5241 29.1209 23.2163 29.1209C28.9086 29.1209 33.5031 24.5264 33.5031 18.8341C33.4625 13.1419 28.868 8.54736 23.2163 8.54736ZM29.7218 22.0869C29.6812 22.8594 29.5592 23.3067 29.4372 23.5913C29.1526 24.2825 28.624 24.8517 27.9328 25.0957C27.6482 25.2176 27.2416 25.3396 26.4284 25.3803C25.5746 25.4209 25.3306 25.4209 23.1757 25.4209C21.0207 25.4209 20.7768 25.4209 19.9229 25.3803C19.1504 25.3396 18.7032 25.2176 18.4186 25.0957C18.0526 24.9737 17.768 24.7704 17.4834 24.4858C17.1988 24.2418 16.9955 23.9165 16.8735 23.5506C16.7515 23.266 16.6296 22.8594 16.5889 22.0462C16.5482 21.1924 16.5482 20.9484 16.5482 18.7935C16.5482 16.6385 16.5482 16.3946 16.5889 15.5407C16.6296 14.7682 16.7515 14.321 16.8735 14.0364C16.9955 13.6704 17.1988 13.3858 17.4834 13.1012C17.7274 12.8166 18.0526 12.6133 18.4186 12.4913C18.7032 12.3693 19.1098 12.2474 19.9229 12.2067C20.7768 12.166 21.0207 12.166 23.1757 12.166C25.3306 12.166 25.5746 12.166 26.4284 12.2067C27.2009 12.2474 27.6482 12.3693 27.9328 12.4913C28.2987 12.6133 28.5834 12.8166 28.868 13.1012C29.1526 13.3451 29.3559 13.6704 29.4779 14.0364C29.5998 14.321 29.7218 14.7276 29.7625 15.5407C29.8031 16.3946 29.8031 16.6385 29.8031 18.7935C29.7625 20.9891 29.7625 21.233 29.7218 22.0869Z" fill="white"/>
<path d="M47.856 21.8023C48.0593 21.8836 48.3846 22.0056 48.8318 22.2089C47.8967 23.144 46.6769 23.5913 45.1725 23.5913C43.6274 23.5913 42.4077 23.1034 41.4725 22.1682C40.5373 21.233 40.0901 19.9726 40.0901 18.4276C40.0901 16.8419 40.578 15.5814 41.5132 14.5649C42.4483 13.5485 43.6681 13.0605 45.2131 13.0605C46.6769 13.0605 47.856 13.5078 48.7505 14.3616C49.645 15.2561 50.0923 16.3946 50.0923 17.8583C50.0923 18.6715 49.889 19.3627 49.4417 19.932C48.9945 20.5012 48.4252 20.7858 47.734 20.7858C46.9615 20.7858 46.3923 20.6232 46.067 20.2979C45.6604 20.6638 45.1725 20.8671 44.6033 20.8671C44.0747 20.8671 43.6681 20.7451 43.3428 20.4605C43.0176 20.1759 42.8549 19.81 42.8549 19.3221C42.8549 18.7122 43.0989 18.2649 43.6274 17.9397C44.156 17.6144 44.8472 17.4517 45.7417 17.4517C45.6604 16.7605 45.3758 16.3946 44.8879 16.3946C44.4 16.3946 43.9934 16.5166 43.6681 16.8012L43.3022 16.0693C43.7088 15.7847 44.1967 15.6221 44.7659 15.6221C46.1076 15.6221 46.7582 16.3946 46.7582 17.9397V19.688C47.1241 19.932 47.4087 20.0539 47.6527 20.0539C48.5472 20.0539 48.9945 19.3221 48.9945 17.8583C48.9945 16.7605 48.6285 15.8254 47.8967 15.0528C47.1648 14.321 46.2703 13.955 45.1318 13.955C43.9121 13.955 42.9362 14.3616 42.1637 15.2155C41.4318 16.0693 41.0253 17.1265 41.0253 18.4682C41.0253 19.7693 41.3912 20.7858 42.123 21.599C42.8549 22.3715 43.8714 22.7781 45.0912 22.7781C46.3109 22.6968 47.2055 22.4122 47.856 21.8023ZM45.7417 19.7693V18.0616H45.3758C44.4406 18.0616 43.9527 18.4276 43.9527 19.2001C43.9527 19.444 44.034 19.688 44.2373 19.8506C44.4406 20.0133 44.6439 20.0946 44.9285 20.0946C45.2132 20.1352 45.4978 20.0133 45.7417 19.7693Z" fill="white"/>
<path d="M50.9054 25.6649V24.4452C51.8406 24.4452 52.4911 24.2825 52.857 23.9979C53.223 23.7133 53.3856 23.2254 53.3856 22.5748V16.0287H51.8406V14.8902H54.768V22.5748C54.768 23.632 54.4427 24.4452 53.8329 24.9331C53.1823 25.421 52.2065 25.6649 50.9054 25.6649ZM53.8735 11.9221C54.1175 11.9221 54.3208 12.0034 54.4834 12.1661C54.646 12.3287 54.7274 12.532 54.7274 12.776C54.7274 13.0199 54.646 13.2232 54.4834 13.3858C54.3208 13.5485 54.1175 13.6298 53.8735 13.6298C53.6296 13.6298 53.4263 13.5485 53.2636 13.3858C53.101 13.2232 53.0197 13.0199 53.0197 12.776C53.0197 12.532 53.101 12.3287 53.2636 12.1661C53.4263 12.0034 53.6296 11.9221 53.8735 11.9221Z" fill="white"/>
<path d="M61.5582 21.721C60.9889 22.4122 60.1757 22.7375 59.0373 22.7375C58.4274 22.7375 57.8988 22.5342 57.4516 22.0869C57.0043 21.6397 56.801 21.1111 56.801 20.4199C56.801 19.6474 57.1263 18.9562 57.8175 18.4276C58.5087 17.899 59.3626 17.6144 60.4604 17.6144C60.745 17.6144 61.0702 17.6957 61.4362 17.8177C61.4362 16.5573 60.8669 15.9474 59.7691 15.9474C58.9153 15.9474 58.2648 16.1913 57.7768 16.6386L57.2076 15.5001C57.4516 15.2968 57.8175 15.0935 58.3054 14.9716C58.7527 14.8089 59.1999 14.7276 59.6065 14.7276C60.745 14.7276 61.5582 14.9716 62.0461 15.5001C62.5746 16.0287 62.8186 16.8419 62.8186 17.9397V20.7045C62.8186 21.3957 63.0219 21.843 63.4285 22.0463V22.7375C62.8592 22.7375 62.4527 22.6561 62.168 22.4935C61.8834 22.3715 61.6801 22.0869 61.5582 21.721ZM61.4362 18.8342C60.9889 18.7529 60.7043 18.6715 60.5417 18.6715C59.8505 18.6715 59.2812 18.8342 58.834 19.2001C58.3867 19.566 58.1834 19.9726 58.1834 20.4605C58.1834 21.2737 58.6713 21.6803 59.6065 21.6803C60.2977 21.6803 60.9076 21.3551 61.4362 20.7045V18.8342Z" fill="white"/>
<path d="M69.9746 22.6155L67.535 18.7529L66.3153 19.9726V22.6155H64.9329V11.6782H66.3153V18.4683L69.2834 14.8496H70.9098L68.4295 17.777L71.479 22.5748H69.9746V22.6155Z" fill="white"/>
<path d="M76.846 21.721C76.2768 22.4122 75.4636 22.7375 74.3251 22.7375C73.7152 22.7375 73.1867 22.5342 72.7394 22.0869C72.2922 21.6397 72.0889 21.1111 72.0889 20.4199C72.0889 19.6474 72.4141 18.9562 73.1053 18.4276C73.7966 17.899 74.6504 17.6144 75.7482 17.6144C76.0328 17.6144 76.3581 17.6957 76.724 17.8177C76.724 16.5573 76.1548 15.9474 75.057 15.9474C74.2031 15.9474 73.5526 16.1913 73.0647 16.6386L72.4955 15.5001C72.7394 15.2968 73.1054 15.0935 73.5933 14.9716C74.0405 14.8089 74.4878 14.7276 74.8944 14.7276C76.0328 14.7276 76.846 14.9716 77.3339 15.5001C77.8625 16.0287 78.1064 16.8419 78.1064 17.9397V20.7045C78.1064 21.3957 78.3097 21.843 78.7163 22.0463V22.7375C78.1471 22.7375 77.7405 22.6561 77.4559 22.4935C77.1713 22.3715 76.968 22.0869 76.846 21.721ZM76.724 18.8342C76.2768 18.7529 75.9922 18.6715 75.8295 18.6715C75.1383 18.6715 74.5691 18.8342 74.1218 19.2001C73.6746 19.566 73.4713 19.9726 73.4713 20.4605C73.4713 21.2737 73.9592 21.6803 74.8944 21.6803C75.5856 21.6803 76.1955 21.3551 76.724 20.7045V18.8342Z" fill="white"/>
<path d="M84.4493 16.1913C84.1647 15.988 83.8395 15.8661 83.5548 15.8661C83.0669 15.8661 82.6603 16.11 82.2944 16.5573C81.9285 17.0045 81.7658 17.5331 81.7658 18.1836V22.6155H80.3834V14.8902H81.7658V16.11C82.2537 15.1749 83.0263 14.7276 84.0021 14.7276C84.246 14.7276 84.612 14.7683 85.0592 14.8496L84.4493 16.1913Z" fill="white"/>
<path d="M86.4823 15.9474H85.5878V14.8496H86.4823V13.2232L87.8647 12.6946V14.8496H89.979V15.9474H87.8647V19.81C87.8647 20.4605 87.9867 20.9078 88.19 21.1924C88.3933 21.477 88.7592 21.599 89.2471 21.599C89.613 21.599 89.979 21.5177 90.3449 21.3144L90.5482 22.5342C89.979 22.6968 89.3691 22.7375 88.6779 22.7375C88.068 22.7375 87.5394 22.4935 87.1328 22.0463C86.7262 21.599 86.4823 21.0298 86.4823 20.3386V15.9474Z" fill="white"/>
<path d="M96.2811 21.721C95.7118 22.4122 94.8986 22.7375 93.7602 22.7375C93.1503 22.7375 92.6217 22.5342 92.1745 22.0869C91.7272 21.6397 91.5239 21.1111 91.5239 20.4199C91.5239 19.6474 91.8492 18.9562 92.5404 18.4276C93.2316 17.899 94.0855 17.6144 95.1833 17.6144C95.4679 17.6144 95.7931 17.6957 96.1591 17.8177C96.1591 16.5573 95.5898 15.9474 94.492 15.9474C93.6382 15.9474 92.9877 16.1913 92.4998 16.6386L91.9305 15.5001C92.1745 15.2968 92.5404 15.0935 93.0283 14.9716C93.4756 14.8089 93.9228 14.7276 94.3294 14.7276C95.4679 14.7276 96.2811 14.9716 96.769 15.5001C97.2975 16.0287 97.5415 16.8419 97.5415 17.9397V20.7045C97.5415 21.3957 97.7448 21.843 98.1514 22.0463V22.7375C97.5821 22.7375 97.1756 22.6561 96.8909 22.4935C96.5657 22.3715 96.403 22.0869 96.2811 21.721ZM96.1184 18.8342C95.6712 18.7529 95.3865 18.6715 95.2239 18.6715C94.5327 18.6715 93.9635 18.8342 93.5162 19.2001C93.069 19.566 92.8657 19.9726 92.8657 20.4605C92.8657 21.2737 93.3536 21.6803 94.2888 21.6803C94.98 21.6803 95.5898 21.3551 96.1184 20.7045V18.8342Z" fill="white"/>
<path d="M98.6393 24.4452V23.51H106.487V24.4452H98.6393Z" fill="white"/>
<path d="M106.934 22.1682L107.422 20.8671C108.194 21.355 108.804 21.6397 109.292 21.6397C110.146 21.6397 110.553 21.2737 110.553 20.5825C110.553 20.0539 110.146 19.6474 109.333 19.2814C108.682 18.9968 108.276 18.7529 108.072 18.6309C107.869 18.4682 107.666 18.3056 107.503 18.1023C107.34 17.899 107.218 17.6957 107.137 17.4924C107.056 17.2891 107.015 17.0452 107.015 16.8012C107.015 16.1507 107.259 15.6628 107.706 15.2968C108.154 14.9309 108.763 14.7682 109.536 14.7682C110.105 14.7682 110.796 14.9309 111.691 15.2968L111.284 16.5573C110.756 16.11 110.187 15.9067 109.658 15.9067C109.333 15.9067 109.048 15.988 108.845 16.1507C108.601 16.3133 108.52 16.5166 108.52 16.7199C108.52 17.2078 108.804 17.6144 109.373 17.8584L110.349 18.3056C110.959 18.5902 111.406 18.8748 111.65 19.2408C111.935 19.6067 112.057 20.0539 112.057 20.5825C112.057 21.2737 111.813 21.8023 111.325 22.2089C110.837 22.6155 110.146 22.8188 109.292 22.8188C108.438 22.7781 107.666 22.5748 106.934 22.1682Z" fill="white"/>
<path d="M119.985 18.8748H114.415C114.415 19.7693 114.659 20.4605 115.147 20.9485C115.594 21.3551 116.163 21.599 116.855 21.599C117.627 21.599 118.278 21.3551 118.806 20.9078L119.375 21.8836C119.172 22.0869 118.847 22.2902 118.4 22.4528C117.83 22.6561 117.221 22.7375 116.57 22.7375C115.594 22.7375 114.781 22.4122 114.09 21.7616C113.317 21.0298 112.951 20.054 112.951 18.8342C112.951 17.5737 113.358 16.5166 114.13 15.7441C114.822 15.0529 115.635 14.7276 116.611 14.7276C117.708 14.7276 118.562 15.0529 119.213 15.6628C119.823 16.2727 120.107 17.0452 120.107 18.0617C120.107 18.3463 120.067 18.6309 119.985 18.8748ZM116.651 15.8661C116.041 15.8661 115.513 16.0694 115.106 16.4759C114.7 16.8419 114.496 17.3298 114.415 17.899H118.725C118.725 17.3298 118.562 16.8825 118.196 16.5166C117.83 16.0694 117.302 15.8661 116.651 15.8661Z" fill="white"/>
<path d="M126.328 22.6155V17.7364C126.328 17.1672 126.166 16.7199 125.881 16.354C125.596 16.0287 125.19 15.8661 124.661 15.8661C124.336 15.8661 124.011 15.9474 123.645 16.1507C123.319 16.354 123.035 16.5573 122.872 16.8419V22.6155H121.49V11.6782H122.872V15.7034C123.075 15.4188 123.36 15.1749 123.767 14.9716C124.173 14.7683 124.58 14.6869 125.027 14.6869C125.84 14.6869 126.491 14.9716 126.938 15.5001C127.385 16.0287 127.629 16.7606 127.629 17.7364V22.6155H126.328Z" fill="white"/>
<path d="M134.013 21.721C133.444 22.4122 132.631 22.7375 131.492 22.7375C130.882 22.7375 130.354 22.5342 129.906 22.0869C129.459 21.6397 129.256 21.1111 129.256 20.4199C129.256 19.6474 129.581 18.9562 130.272 18.4276C130.964 17.899 131.817 17.6144 132.915 17.6144C133.2 17.6144 133.525 17.6957 133.891 17.8177C133.891 16.5573 133.322 15.9474 132.224 15.9474C131.37 15.9474 130.72 16.1913 130.232 16.6386L129.662 15.5001C129.906 15.2968 130.272 15.0935 130.76 14.9716C131.208 14.8089 131.655 14.7276 132.061 14.7276C133.2 14.7276 134.013 14.9716 134.501 15.5001C135.029 16.0287 135.273 16.8419 135.273 17.9397V20.7045C135.273 21.3957 135.477 21.843 135.883 22.0463V22.7375C135.314 22.7375 134.907 22.6561 134.623 22.4935C134.338 22.3715 134.135 22.0869 134.013 21.721ZM133.891 18.8342C133.444 18.7529 133.159 18.6715 132.997 18.6715C132.305 18.6715 131.736 18.8342 131.289 19.2001C130.842 19.566 130.638 19.9726 130.638 20.4605C130.638 21.2737 131.126 21.6803 132.061 21.6803C132.753 21.6803 133.362 21.3551 133.891 20.7045V18.8342Z" fill="white"/>
<path d="M137.916 15.9474H137.022V14.8496H137.916V13.2232L139.299 12.6946V14.8496H141.413V15.9474H139.299V19.81C139.299 20.4605 139.42 20.9078 139.624 21.1924C139.827 21.477 140.193 21.599 140.681 21.599C141.047 21.599 141.413 21.5177 141.779 21.3144L141.982 22.5342C141.413 22.6968 140.803 22.7375 140.112 22.7375C139.502 22.7375 138.973 22.4935 138.567 22.0463C138.16 21.599 137.916 21.0298 137.916 20.3386V15.9474Z" fill="white"/>
</svg>
